SplineFontDB: 3.2
FontName: Readerly-Italic
FullName: Readerly Italic
FamilyName: Readerly
Weight: Book
Copyright: Copyright 2020 The Newsreader Project Authors (http://github.com/productiontype/Newsreader)
Version: 1.003
ItalicAngle: -17
UnderlinePosition: -303
UnderlineWidth: 96
Ascent: 1470
Descent: 530
InvalidEm: 0
sfntRevision: 0x000100c5
LayerCount: 2
Layer: 0 1 "Back" 1
Layer: 1 1 "Fore" 0
XUID: [1021 301 -1444420827 10813994]
StyleMap: 0x0001
FSType: 0
OS2Version: 4
OS2_WeightWidthSlopeOnly: 0
OS2_UseTypoMetrics: 1
CreationTime: 1606394406
ModificationTime: 1772410252
PfmFamily: 17
TTFWeight: 400
TTFWidth: 5
LineGap: 0
VLineGap: 0
Panose: 2 0 0 0 0 0 0 0 0 0
OS2TypoAscent: 1470
OS2TypoAOffset: 0
OS2TypoDescent: -530
OS2TypoDOffset: 0
OS2TypoLinegap: 0
OS2WinAscent: 2326
OS2WinAOffset: 0
OS2WinDescent: 531
OS2WinDOffset: 0
HheadAscent: 1470
HheadAOffset: 0
HheadDescent: -530
HheadDOffset: 0
OS2SubXSize: 1300
OS2SubYSize: 1200
OS2SubXOff: -46
OS2SubYOff: 150
OS2SupXSize: 1300
OS2SupYSize: 1200
OS2SupXOff: 214
OS2SupYOff: 700
OS2StrikeYSize: 130
OS2StrikeYPos: 501
OS2CapHeight: 1340
OS2XHeight: 852
OS2Vendor: 'PROD'
OS2CodePages: 20000193.00000000
OS2UnicodeRanges: 00000047.00000001.00000000.00000000
Lookup: 1 0 0 "'locl' Localized Forms in Latin lookup 0" { "'locl' Localized Forms in Latin lookup 0 subtable"  } ['locl' ('latn' <'MOL ' > ) ]
Lookup: 1 0 0 "'locl' Localized Forms in Latin lookup 1" { "'locl' Localized Forms in Latin lookup 1 subtable"  } ['locl' ('latn' <'ROM ' > ) ]
Lookup: 6 0 0 "'ordn' Ordinals in Latin lookup 2" { "'ordn' Ordinals in Latin lookup 2 contextual 0"  "'ordn' Ordinals in Latin lookup 2 contextual 1"  } ['ordn' ('DFLT' <'dflt' > 'latn' <'MOL ' 'ROM ' 'dflt' > ) ]
Lookup: 1 0 0 "Single Substitution lookup 3" { "Single Substitution lookup 3 subtable"  } []
Lookup: 4 0 0 "'ordn' Ordinals in Latin lookup 4" { "'ordn' Ordinals in Latin lookup 4 subtable"  } ['ordn' ('DFLT' <'dflt' > 'latn' <'MOL ' 'ROM ' 'dflt' > ) ]

StartChar: .notdef
Encoding: 65536 -1 0
Width: 1000
GlyphClass: 1
Flags: W
LayerCount: 2
Fore
SplineSet
100 -481 m 1,0,-1
 100 1519 l 1,1,-1
 900 1519 l 1,2,-1
 900 -481 l 1,3,-1
 100 -481 l 1,0,-1
200 -381 m 1,4,-1
 800 -381 l 1,5,-1
 800 1419 l 1,6,-1
 200 1419 l 1,7,-1
 200 -381 l 1,4,-1
EndSplineSet
EndChar

StartChar: A
Encoding: 65 65 5
Width: 1505
GlyphClass: 2
Flags: W
AnchorPoint: "Anchor-4" 599 0 basechar 0
AnchorPoint: "Anchor-3" 1222 0 basechar 0
LayerCount: 2
Fore
SplineSet
404 482 m 1,0,-1
 446 612 l 1,1,-1
 1115 612 l 1,2,-1
 1072 482 l 1,3,-1
 404 482 l 1,0,-1
1232 130 m 1,4,-1
 1385 85 l 1,5,-1
 1359 0 l 1,6,-1
 820 0 l 1,7,-1
 846 85 l 1,8,-1
 1034 130 l 1,9,-1
 944 1301 l 1,10,-1
 980 1301 l 1,11,-1
 237 130 l 1,12,-1
 393 85 l 1,13,-1
 368 0 l 1,14,-1
 -127 0 l 1,15,-1
 -101 85 l 1,16,-1
 70 130 l 1,17,-1
 912 1416 l 1,18,-1
 1121 1416 l 1,19,-1
 1232 130 l 1,4,-1
EndSplineSet
Substitution2: "Single Substitution lookup 3 subtable" ordfeminine
EndChar

StartChar: B
Encoding: 66 66 6
Width: 1380
GlyphClass: 2
Flags: W
AnchorPoint: "Anchor-4" 583 0 basechar 0
LayerCount: 2
Fore
SplineSet
629 1264 m 1,0,-1
 671 1396 l 1,1,-1
 1003 1396 l 2,2,3
 1134 1396 1134 1396 1211.5 1358.5 c 128,-1,4
 1289 1321 1289 1321 1323.5 1258.5 c 128,-1,5
 1358 1196 1358 1196 1358 1120 c 0,6,7
 1358 1007 1358 1007 1308.5 923 c 128,-1,8
 1259 839 1259 839 1166.5 791 c 128,-1,9
 1074 743 1074 743 943 736 c 1,10,-1
 945 754 l 1,11,12
 1098 745 1098 745 1171 667.5 c 128,-1,13
 1244 590 1244 590 1244 468 c 0,14,15
 1244 338 1244 338 1181.5 232 c 128,-1,16
 1119 126 1119 126 995 63 c 128,-1,17
 871 0 871 0 687 0 c 2,18,-1
 245 0 l 1,19,-1
 285 132 l 1,20,-1
 658 132 l 2,21,22
 786 132 786 132 872 173.5 c 128,-1,23
 958 215 958 215 1002.5 294 c 128,-1,24
 1047 373 1047 373 1047 486 c 0,25,26
 1047 573 1047 573 993.5 624.5 c 128,-1,27
 940 676 940 676 814 676 c 2,28,-1
 445 676 l 1,29,-1
 493 808 l 1,30,-1
 861 808 l 2,31,32
 962 808 962 808 1030.5 844.5 c 128,-1,33
 1099 881 1099 881 1134.5 947 c 128,-1,34
 1170 1013 1170 1013 1170 1099 c 0,35,36
 1170 1153 1170 1153 1146.5 1189.5 c 128,-1,37
 1123 1226 1123 1226 1074.5 1245 c 128,-1,38
 1026 1264 1026 1264 951 1264 c 2,39,-1
 629 1264 l 1,0,-1
518 1264 m 1,40,-1
 349 1311 l 1,41,-1
 375 1396 l 1,42,-1
 751 1396 l 1,43,-1
 325 0 l 1,44,-1
 -40 0 l 1,45,-1
 -14 85 l 1,46,-1
 172 132 l 1,47,-1
 518 1264 l 1,40,-1
EndSplineSet
EndChar

StartChar: C
Encoding: 67 67 7
Width: 1470
GlyphClass: 2
Flags: W
AnchorPoint: "Anchor-4" 711 0 basechar 0
AnchorPoint: "Anchor-3" 1241 0 basechar 0
LayerCount: 2
Fore
SplineSet
1167 184 m 1,0,-1
 999 88 l 1,1,-1
 1235 414 l 1,2,-1
 1355 414 l 1,3,-1
 1215 56 l 1,4,5
 1130 22 1130 22 1015.5 1 c 128,-1,6
 901 -20 901 -20 775 -20 c 0,7,8
 571 -20 571 -20 436.5 46.5 c 128,-1,9
 302 113 302 113 235 237 c 128,-1,10
 168 361 168 361 168 533 c 0,11,12
 168 686 168 686 209 820 c 128,-1,13
 250 954 250 954 329.5 1063.5 c 128,-1,14
 409 1173 409 1173 523 1252 c 128,-1,15
 637 1331 637 1331 783.5 1373.5 c 128,-1,16
 930 1416 930 1416 1106 1416 c 0,17,18
 1171 1416 1171 1416 1229 1409 c 128,-1,19
 1287 1402 1287 1402 1340 1389.5 c 128,-1,20
 1393 1377 1393 1377 1441 1359 c 1,21,-1
 1384 1357 l 1,22,-1
 1513 1463 l 1,23,-1
 1601 1463 l 1,24,-1
 1459 954 l 1,25,-1
 1342 954 l 1,26,-1
 1347 1265 l 1,27,-1
 1373 1200 l 1,28,29
 1302 1245 1302 1245 1229.5 1261 c 128,-1,30
 1157 1277 1157 1277 1066 1277 c 0,31,32
 927 1277 927 1277 815.5 1241 c 128,-1,33
 704 1205 704 1205 621 1138.5 c 128,-1,34
 538 1072 538 1072 482.5 981 c 128,-1,35
 427 890 427 890 399.5 781.5 c 128,-1,36
 372 673 372 673 372 551 c 0,37,38
 372 406 372 406 423.5 309 c 128,-1,39
 475 212 475 212 573.5 163 c 128,-1,40
 672 114 672 114 811 114 c 0,41,42
 899 114 899 114 989.5 132.5 c 128,-1,43
 1080 151 1080 151 1167 184 c 1,0,-1
EndSplineSet
EndChar

StartChar: D
Encoding: 68 68 8
Width: 1581
GlyphClass: 2
Flags: W
AnchorPoint: "Anchor-4" 705 0 basechar 0
LayerCount: 2
Fore
SplineSet
598 132 m 2,0,1
 743 132 743 132 859.5 165.5 c 128,-1,2
 976 199 976 199 1065 263 c 128,-1,3
 1154 327 1154 327 1214 419.5 c 128,-1,4
 1274 512 1274 512 1304 629 c 128,-1,5
 1334 746 1334 746 1334 885 c 0,6,7
 1334 1004 1334 1004 1290 1089 c 128,-1,8
 1246 1174 1246 1174 1147 1219 c 128,-1,9
 1048 1264 1048 1264 883 1264 c 2,10,-1
 595 1264 l 1,11,-1
 638 1396 l 1,12,-1
 895 1396 l 2,13,14
 1127 1396 1127 1396 1268.5 1337.5 c 128,-1,15
 1410 1279 1410 1279 1474.5 1164.5 c 128,-1,16
 1539 1050 1539 1050 1539 883 c 0,17,18
 1539 688 1539 688 1478 526.5 c 128,-1,19
 1417 365 1417 365 1298.5 247 c 128,-1,20
 1180 129 1180 129 1007.5 64.5 c 128,-1,21
 835 0 835 0 612 0 c 2,22,-1
 212 0 l 1,23,-1
 255 132 l 1,24,-1
 598 132 l 2,0,1
518 1266 m 1,25,-1
 348 1311 l 1,26,-1
 374 1396 l 1,27,-1
 751 1396 l 1,28,-1
 325 0 l 1,29,-1
 -39 0 l 1,30,-1
 -13 85 l 1,31,-1
 172 130 l 1,32,-1
 518 1266 l 1,25,-1
EndSplineSet
EndChar

StartChar: E
Encoding: 69 69 9
Width: 1385
GlyphClass: 2
Flags: W
AnchorPoint: "Anchor-4" 577 0 basechar 0
AnchorPoint: "Anchor-3" 1007 0 basechar 0
LayerCount: 2
Fore
SplineSet
518 1266 m 1,0,-1
 348 1311 l 1,1,-1
 374 1396 l 1,2,-1
 751 1396 l 1,3,-1
 325 0 l 1,4,-1
 -39 0 l 1,5,-1
 -13 85 l 1,6,-1
 172 130 l 1,7,-1
 518 1266 l 1,0,-1
1284 1324 m 1,8,-1
 1327 1264 l 1,9,-1
 595 1264 l 1,10,-1
 638 1396 l 1,11,-1
 1324 1396 l 1,12,-1
 1431 1460 l 1,13,-1
 1513 1460 l 1,14,-1
 1395 1021 l 1,15,-1
 1283 1021 l 1,16,-1
 1284 1324 l 1,8,-1
951 -69 m 1,17,-1
 898 0 l 1,18,-1
 212 0 l 1,19,-1
 255 132 l 1,20,-1
 983 132 l 1,21,-1
 877 71 l 1,22,-1
 1183 412 l 1,23,-1
 1293 407 l 1,24,-1
 1045 -69 l 1,25,-1
 951 -69 l 1,17,-1
949 470 m 1,26,-1
 838 470 l 1,27,-1
 880 663 l 1,28,-1
 414 663 l 1,29,-1
 455 794 l 1,30,-1
 920 794 l 1,31,-1
 995 984 l 1,32,-1
 1106 984 l 1,33,-1
 1028 727 l 1,34,-1
 949 470 l 1,26,-1
EndSplineSet
EndChar

StartChar: F
Encoding: 70 70 10
Width: 1283
GlyphClass: 2
Flags: W
AnchorPoint: "Anchor-4" 231 0 basechar 0
LayerCount: 2
Fore
SplineSet
1083 919 m 1,0,-1
 1005 663 l 1,1,-1
 926 406 l 1,2,-1
 816 406 l 1,3,-1
 857 599 l 1,4,-1
 391 599 l 1,5,-1
 432 730 l 1,6,-1
 897 730 l 1,7,-1
 973 919 l 1,8,-1
 1083 919 l 1,0,-1
1366 1001 m 1,9,-1
 1254 1001 l 1,10,-1
 1256 1318 l 1,11,-1
 1299 1264 l 1,12,-1
 595 1264 l 1,13,-1
 638 1396 l 1,14,-1
 1295 1396 l 1,15,-1
 1402 1460 l 1,16,-1
 1485 1460 l 1,17,-1
 1366 1001 l 1,9,-1
365 130 m 1,18,-1
 534 85 l 1,19,-1
 509 0 l 1,20,-1
 -39 0 l 1,21,-1
 -13 85 l 1,22,-1
 172 130 l 1,23,-1
 518 1266 l 1,24,-1
 348 1311 l 1,25,-1
 374 1396 l 1,26,-1
 751 1396 l 1,27,-1
 365 130 l 1,18,-1
EndSplineSet
EndChar

StartChar: G
Encoding: 71 71 11
Width: 1593
GlyphClass: 2
Flags: W
AnchorPoint: "Anchor-4" 725 0 basechar 0
LayerCount: 2
Fore
SplineSet
811 114 m 0,0,1
 865 114 865 114 922.5 123.5 c 128,-1,2
 980 133 980 133 1038.5 153 c 128,-1,3
 1097 173 1097 173 1154 206 c 1,4,-1
 1059 100 l 1,5,-1
 1189 528 l 1,6,-1
 990 573 l 1,7,-1
 1016 658 l 1,8,-1
 1564 658 l 1,9,-1
 1537 573 l 1,10,-1
 1382 527 l 1,11,-1
 1284 206 l 1,12,-1
 1385 178 l 1,13,-1
 1362 105 l 1,14,15
 1278 66 1278 66 1183 38 c 128,-1,16
 1088 10 1088 10 990.5 -5 c 128,-1,17
 893 -20 893 -20 797 -20 c 0,18,19
 572 -20 572 -20 433.5 47.5 c 128,-1,20
 295 115 295 115 232 239.5 c 128,-1,21
 169 364 169 364 169 533 c 0,22,23
 169 686 169 686 209 820 c 128,-1,24
 249 954 249 954 327.5 1063.5 c 128,-1,25
 406 1173 406 1173 520.5 1252 c 128,-1,26
 635 1331 635 1331 783 1373.5 c 128,-1,27
 931 1416 931 1416 1111 1416 c 0,28,29
 1176 1416 1176 1416 1236 1409 c 128,-1,30
 1296 1402 1296 1402 1349.5 1389.5 c 128,-1,31
 1403 1377 1403 1377 1451 1359 c 1,32,-1
 1395 1357 l 1,33,-1
 1524 1463 l 1,34,-1
 1611 1463 l 1,35,-1
 1470 954 l 1,36,-1
 1352 954 l 1,37,-1
 1357 1265 l 1,38,-1
 1384 1200 l 1,39,40
 1310 1247 1310 1247 1233.5 1262 c 128,-1,41
 1157 1277 1157 1277 1062 1277 c 0,42,43
 921 1277 921 1277 810.5 1241.5 c 128,-1,44
 700 1206 700 1206 617.5 1141 c 128,-1,45
 535 1076 535 1076 480.5 987.5 c 128,-1,46
 426 899 426 899 399 792 c 128,-1,47
 372 685 372 685 372 566 c 0,48,49
 372 414 372 414 424 313.5 c 128,-1,50
 476 213 476 213 574.5 163.5 c 128,-1,51
 673 114 673 114 811 114 c 0,0,1
EndSplineSet
EndChar

StartChar: H
Encoding: 72 72 12
Width: 1669
GlyphClass: 2
Flags: W
AnchorPoint: "Anchor-4" 721 0 basechar 0
LayerCount: 2
Fore
SplineSet
409 645 m 1,0,-1
 449 777 l 1,1,-1
 1391 777 l 1,2,-1
 1352 645 l 1,3,-1
 409 645 l 1,0,-1
518 1266 m 1,4,-1
 348 1311 l 1,5,-1
 374 1396 l 1,6,-1
 921 1396 l 1,7,-1
 896 1311 l 1,8,-1
 711 1265 l 1,9,-1
 365 130 l 1,10,-1
 534 85 l 1,11,-1
 509 0 l 1,12,-1
 -39 0 l 1,13,-1
 -13 85 l 1,14,-1
 172 130 l 1,15,-1
 518 1266 l 1,4,-1
1428 1266 m 1,16,-1
 1259 1311 l 1,17,-1
 1284 1396 l 1,18,-1
 1831 1396 l 1,19,-1
 1806 1311 l 1,20,-1
 1621 1265 l 1,21,-1
 1275 130 l 1,22,-1
 1445 85 l 1,23,-1
 1419 0 l 1,24,-1
 872 0 l 1,25,-1
 897 85 l 1,26,-1
 1082 130 l 1,27,-1
 1428 1266 l 1,16,-1
EndSplineSet
EndChar

StartChar: I
Encoding: 73 73 13
Width: 759
GlyphClass: 2
Flags: W
AnchorPoint: "Anchor-4" 251 0 basechar 0
AnchorPoint: "Anchor-3" 341 0 basechar 0
LayerCount: 2
Fore
SplineSet
518 1266 m 1,0,-1
 348 1311 l 1,1,-1
 374 1396 l 1,2,-1
 921 1396 l 1,3,-1
 896 1311 l 1,4,-1
 711 1265 l 1,5,-1
 365 130 l 1,6,-1
 534 85 l 1,7,-1
 509 0 l 1,8,-1
 -39 0 l 1,9,-1
 -13 85 l 1,10,-1
 172 130 l 1,11,-1
 518 1266 l 1,0,-1
EndSplineSet
EndChar

StartChar: J
Encoding: 74 74 14
Width: 993
GlyphClass: 2
Flags: W
AnchorPoint: "Anchor-4" 311 0 basechar 0
LayerCount: 2
Fore
SplineSet
696 340 m 2,0,1
 668 250 668 250 623 183 c 128,-1,2
 578 116 578 116 515.5 71.5 c 128,-1,3
 453 27 453 27 376 5 c 128,-1,4
 299 -17 299 -17 208 -17 c 0,5,6
 54 -17 54 -17 -9 28 c 128,-1,7
 -72 73 -72 73 -72 146 c 0,8,9
 -72 191 -72 191 -44 219.5 c 128,-1,10
 -16 248 -16 248 28 248 c 0,11,12
 43 248 43 248 57.5 230 c 128,-1,13
 72 212 72 212 94.5 188.5 c 128,-1,14
 117 165 117 165 152.5 146.5 c 128,-1,15
 188 128 188 128 244 128 c 0,16,17
 342 128 342 128 405 176 c 128,-1,18
 468 224 468 224 508 355 c 2,19,-1
 786 1266 l 1,20,-1
 616 1311 l 1,21,-1
 642 1396 l 1,22,-1
 1189 1396 l 1,23,-1
 1164 1311 l 1,24,-1
 979 1265 l 1,25,-1
 696 340 l 2,0,1
EndSplineSet
EndChar

StartChar: K
Encoding: 75 75 15
Width: 1533
GlyphClass: 2
Flags: W
AnchorPoint: "Anchor-4" 721 0 basechar 0
LayerCount: 2
Fore
SplineSet
1244 123 m 1,0,-1
 1393 89 l 1,1,-1
 1367 0 l 1,2,-1
 969 0 l 1,3,-1
 986 59 l 1,4,-1
 1032 100 l 1,5,-1
 691 657 l 1,6,-1
 464 657 l 1,7,-1
 504 788 l 1,8,-1
 730 788 l 1,9,-1
 1333 1272 l 1,10,-1
 1194 1311 l 1,11,-1
 1220 1396 l 1,12,-1
 1708 1396 l 1,13,-1
 1682 1311 l 1,14,-1
 1512 1266 l 1,15,-1
 800 695 l 1,16,-1
 819 802 l 1,17,-1
 1244 123 l 1,0,-1
518 1266 m 1,18,-1
 348 1311 l 1,19,-1
 374 1396 l 1,20,-1
 921 1396 l 1,21,-1
 896 1311 l 1,22,-1
 711 1265 l 1,23,-1
 365 130 l 1,24,-1
 534 85 l 1,25,-1
 509 0 l 1,26,-1
 -39 0 l 1,27,-1
 -13 85 l 1,28,-1
 172 130 l 1,29,-1
 518 1266 l 1,18,-1
EndSplineSet
EndChar

StartChar: L
Encoding: 76 76 16
Width: 1248
GlyphClass: 2
Flags: W
AnchorPoint: "Anchor-4" 511 0 basechar 0
AnchorPoint: "Anchor-3" 958 1396 basechar 0
LayerCount: 2
Fore
SplineSet
711 1265 m 1,0,-1
 325 0 l 1,1,-1
 -39 0 l 1,2,-1
 -13 85 l 1,3,-1
 172 130 l 1,4,-1
 518 1266 l 1,5,-1
 348 1311 l 1,6,-1
 374 1396 l 1,7,-1
 921 1396 l 1,8,-1
 896 1311 l 1,9,-1
 711 1265 l 1,0,-1
796 70 m 1,10,-1
 1070 442 l 1,11,-1
 1180 437 l 1,12,-1
 965 -69 l 1,13,-1
 871 -69 l 1,14,-1
 818 0 l 1,15,-1
 157 0 l 1,16,-1
 200 132 l 1,17,-1
 903 132 l 1,18,-1
 796 70 l 1,10,-1
EndSplineSet
EndChar

StartChar: M
Encoding: 77 77 17
Width: 2031
GlyphClass: 2
Flags: W
AnchorPoint: "Anchor-4" 845 0 basechar 0
LayerCount: 2
Fore
SplineSet
700 1278 m 1,0,-1
 265 130 l 1,1,-1
 422 85 l 1,2,-1
 397 0 l 1,3,-1
 -63 0 l 1,4,-1
 -38 85 l 1,5,-1
 133 130 l 1,6,-1
 555 1252 l 1,7,-1
 388 1311 l 1,8,-1
 414 1396 l 1,9,-1
 851 1396 l 1,10,-1
 909 81 l 1,11,-1
 844 81 l 1,12,-1
 1712 1396 l 1,13,-1
 1841 1396 l 1,14,-1
 1834 1365 l 1,15,-1
 917 -5 l 1,16,-1
 732 -5 l 1,17,-1
 672 1272 l 1,18,-1
 700 1278 l 1,0,-1
1777 1396 m 1,19,-1
 2154 1396 l 1,20,-1
 2129 1311 l 1,21,-1
 1936 1257 l 1,22,-1
 1667 130 l 1,23,-1
 1824 85 l 1,24,-1
 1797 0 l 1,25,-1
 1265 0 l 1,26,-1
 1290 85 l 1,27,-1
 1474 130 l 1,28,-1
 1777 1396 l 1,19,-1
EndSplineSet
EndChar

StartChar: N
Encoding: 78 78 18
Width: 1609
GlyphClass: 2
Flags: W
AnchorPoint: "Anchor-4" 708 0 basechar 0
LayerCount: 2
Fore
SplineSet
1145 123 m 1,0,-1
 1110 152 l 1,1,-1
 1452 1266 l 1,2,-1
 1280 1311 l 1,3,-1
 1305 1396 l 1,4,-1
 1796 1396 l 1,5,-1
 1772 1311 l 1,6,-1
 1587 1265 l 1,7,-1
 1197 -5 l 1,8,-1
 994 -5 l 1,9,-1
 626 1284 l 1,10,-1
 653 1264 l 1,11,-1
 305 130 l 1,12,-1
 476 85 l 1,13,-1
 451 0 l 1,14,-1
 -40 0 l 1,15,-1
 -15 85 l 1,16,-1
 169 130 l 1,17,-1
 517 1262 l 1,18,-1
 352 1311 l 1,19,-1
 377 1396 l 1,20,-1
 786 1396 l 1,21,-1
 1145 123 l 1,0,-1
EndSplineSet
EndChar

StartChar: O
Encoding: 79 79 19
Width: 1599
GlyphClass: 2
Flags: W
AnchorPoint: "Anchor-4" 642 0 basechar 0
AnchorPoint: "Anchor-3" 764 0 basechar 0
AnchorPoint: "Anchor-2" 1390 1396 basechar 0
LayerCount: 2
Fore
SplineSet
361 512 m 0,0,1
 361 328 361 328 453.5 223.5 c 128,-1,2
 546 119 546 119 738 119 c 0,3,4
 832 119 832 119 914.5 147 c 128,-1,5
 997 175 997 175 1066.5 226.5 c 128,-1,6
 1136 278 1136 278 1191 348.5 c 128,-1,7
 1246 419 1246 419 1284.5 504.5 c 128,-1,8
 1323 590 1323 590 1343 686 c 128,-1,9
 1363 782 1363 782 1363 884 c 0,10,11
 1363 1067 1363 1067 1270.5 1172 c 128,-1,12
 1178 1277 1178 1277 986 1277 c 0,13,14
 892 1277 892 1277 809 1249 c 128,-1,15
 726 1221 726 1221 656.5 1169.5 c 128,-1,16
 587 1118 587 1118 532.5 1047.5 c 128,-1,17
 478 977 478 977 439.5 891.5 c 128,-1,18
 401 806 401 806 381 710 c 128,-1,19
 361 614 361 614 361 512 c 0,0,1
1563 880 m 0,20,21
 1563 737 1563 737 1522.5 604 c 128,-1,22
 1482 471 1482 471 1406.5 358 c 128,-1,23
 1331 245 1331 245 1228 160 c 128,-1,24
 1125 75 1125 75 999 27.5 c 128,-1,25
 873 -20 873 -20 731 -20 c 0,26,27
 548 -20 548 -20 420.5 45.5 c 128,-1,28
 293 111 293 111 227 232 c 128,-1,29
 161 353 161 353 161 516 c 0,30,31
 161 658 161 658 201.5 791 c 128,-1,32
 242 924 242 924 317 1037.5 c 128,-1,33
 392 1151 392 1151 495.5 1236 c 128,-1,34
 599 1321 599 1321 725 1368.5 c 128,-1,35
 851 1416 851 1416 992 1416 c 0,36,37
 1176 1416 1176 1416 1303 1350 c 128,-1,38
 1430 1284 1430 1284 1496.5 1164 c 128,-1,39
 1563 1044 1563 1044 1563 880 c 0,20,21
EndSplineSet
Substitution2: "Single Substitution lookup 3 subtable" ordmasculine
EndChar

StartChar: P
Encoding: 80 80 20
Width: 1298
GlyphClass: 2
Flags: W
AnchorPoint: "Anchor-4" 227 0 basechar 0
LayerCount: 2
Fore
SplineSet
803 704 m 2,0,1
 896 704 896 704 966.5 729 c 128,-1,2
 1037 754 1037 754 1084.5 801 c 128,-1,3
 1132 848 1132 848 1156 914.5 c 128,-1,4
 1180 981 1180 981 1180 1064 c 0,5,6
 1180 1128 1180 1128 1152 1172.5 c 128,-1,7
 1124 1217 1124 1217 1059 1240.5 c 128,-1,8
 994 1264 994 1264 885 1264 c 2,9,-1
 556 1264 l 1,10,-1
 602 1396 l 1,11,-1
 943 1396 l 2,12,13
 1095 1396 1095 1396 1190.5 1358 c 128,-1,14
 1286 1320 1286 1320 1331 1249.5 c 128,-1,15
 1376 1179 1376 1179 1376 1080 c 0,16,17
 1376 967 1376 967 1338 874 c 128,-1,18
 1300 781 1300 781 1224 713.5 c 128,-1,19
 1148 646 1148 646 1034.5 609.5 c 128,-1,20
 921 573 921 573 770 573 c 2,21,-1
 349 573 l 1,22,-1
 390 704 l 1,23,-1
 803 704 l 2,0,1
365 130 m 1,24,-1
 534 85 l 1,25,-1
 509 0 l 1,26,-1
 -39 0 l 1,27,-1
 -13 85 l 1,28,-1
 172 130 l 1,29,-1
 518 1266 l 1,30,-1
 348 1311 l 1,31,-1
 374 1396 l 1,32,-1
 751 1396 l 1,33,-1
 365 130 l 1,24,-1
EndSplineSet
EndChar

StartChar: Q
Encoding: 81 81 21
Width: 1599
GlyphClass: 2
Flags: W
AnchorPoint: "Anchor-4" 428 -143 basechar 0
LayerCount: 2
Fore
SplineSet
674 -254 m 2,0,-1
 307 125 l 2,1,2
 260 174 260 174 227 232.5 c 128,-1,3
 194 291 194 291 177.5 362 c 128,-1,4
 161 433 161 433 161 516 c 0,5,6
 161 658 161 658 201.5 791 c 128,-1,7
 242 924 242 924 317 1037.5 c 128,-1,8
 392 1151 392 1151 495.5 1236 c 128,-1,9
 599 1321 599 1321 725 1368.5 c 128,-1,10
 851 1416 851 1416 992 1416 c 0,11,12
 1176 1416 1176 1416 1303 1350 c 128,-1,13
 1430 1284 1430 1284 1496.5 1164 c 128,-1,14
 1563 1044 1563 1044 1563 880 c 0,15,16
 1563 732 1563 732 1518 590.5 c 128,-1,17
 1473 449 1473 449 1388.5 330.5 c 128,-1,18
 1304 212 1304 212 1183.5 131 c 128,-1,19
 1063 50 1063 50 912.5 19.5 c 128,-1,20
 762 -11 762 -11 586 26 c 1,21,-1
 568 67 l 1,22,-1
 863 -186 l 2,23,24
 925 -239 925 -239 970.5 -268.5 c 128,-1,25
 1016 -298 1016 -298 1058.5 -311 c 128,-1,26
 1101 -324 1101 -324 1152.5 -324 c 128,-1,27
 1204 -324 1204 -324 1277 -319 c 1,28,-1
 1250 -421 l 1,29,30
 1213 -429 1213 -429 1180 -435 c 128,-1,31
 1147 -441 1147 -441 1112 -444 c 128,-1,32
 1077 -447 1077 -447 1033 -447 c 0,33,34
 962 -447 962 -447 906.5 -428 c 128,-1,35
 851 -409 851 -409 796.5 -366.5 c 128,-1,36
 742 -324 742 -324 674 -254 c 2,0,-1
361 512 m 0,37,38
 361 328 361 328 453.5 223.5 c 128,-1,39
 546 119 546 119 738 119 c 0,40,41
 832 119 832 119 914.5 147 c 128,-1,42
 997 175 997 175 1066.5 226.5 c 128,-1,43
 1136 278 1136 278 1191 348.5 c 128,-1,44
 1246 419 1246 419 1284.5 504.5 c 128,-1,45
 1323 590 1323 590 1343 686 c 128,-1,46
 1363 782 1363 782 1363 884 c 0,47,48
 1363 1067 1363 1067 1270.5 1172 c 128,-1,49
 1178 1277 1178 1277 986 1277 c 0,50,51
 892 1277 892 1277 809 1249 c 128,-1,52
 726 1221 726 1221 656.5 1169.5 c 128,-1,53
 587 1118 587 1118 532.5 1047.5 c 128,-1,54
 478 977 478 977 439.5 891.5 c 128,-1,55
 401 806 401 806 381 710 c 128,-1,56
 361 614 361 614 361 512 c 0,37,38
EndSplineSet
EndChar

StartChar: R
Encoding: 82 82 22
Width: 1412
GlyphClass: 2
Flags: W
AnchorPoint: "Anchor-4" 707 0 basechar 0
LayerCount: 2
Fore
SplineSet
826 766 m 2,0,1
 951 766 951 766 1027 808 c 128,-1,2
 1103 850 1103 850 1138 923 c 128,-1,3
 1173 996 1173 996 1173 1088 c 0,4,5
 1173 1173 1173 1173 1117.5 1218.5 c 128,-1,6
 1062 1264 1062 1264 935 1264 c 2,7,-1
 625 1264 l 1,8,-1
 667 1396 l 1,9,-1
 985 1396 l 2,10,11
 1126 1396 1126 1396 1211.5 1360.5 c 128,-1,12
 1297 1325 1297 1325 1335.5 1261.5 c 128,-1,13
 1374 1198 1374 1198 1374 1112 c 0,14,15
 1374 995 1374 995 1322.5 903 c 128,-1,16
 1271 811 1271 811 1171 754.5 c 128,-1,17
 1071 698 1071 698 924 689 c 1,18,-1
 924 696 l 1,19,20
 994 689 994 689 1033 663 c 128,-1,21
 1072 637 1072 637 1092 584.5 c 128,-1,22
 1112 532 1112 532 1124 446 c 2,23,-1
 1155 244 l 2,24,25
 1164 176 1164 176 1179.5 144.5 c 128,-1,26
 1195 113 1195 113 1222.5 104.5 c 128,-1,27
 1250 96 1250 96 1293 96 c 1,28,-1
 1267 0 l 1,29,30
 1179 -4 1179 -4 1123 0.5 c 128,-1,31
 1067 5 1067 5 1035 25 c 128,-1,32
 1003 45 1003 45 987.5 87 c 128,-1,33
 972 129 972 129 963 198 c 2,34,-1
 930 444 l 2,35,36
 920 530 920 530 905 570 c 128,-1,37
 890 610 890 610 859.5 622 c 128,-1,38
 829 634 829 634 772 634 c 2,39,-1
 435 634 l 1,40,-1
 474 766 l 1,41,-1
 826 766 l 2,0,1
365 130 m 1,42,-1
 534 85 l 1,43,-1
 509 0 l 1,44,-1
 -39 0 l 1,45,-1
 -13 85 l 1,46,-1
 172 130 l 1,47,-1
 518 1266 l 1,48,-1
 348 1311 l 1,49,-1
 374 1396 l 1,50,-1
 751 1396 l 1,51,-1
 365 130 l 1,42,-1
EndSplineSet
EndChar

StartChar: S
Encoding: 83 83 23
Width: 1213
GlyphClass: 2
Flags: W
AnchorPoint: "Anchor-4" 535 0 basechar 0
LayerCount: 2
Fore
SplineSet
1090 1215 m 1,0,1
 1044 1251 1044 1251 976 1271.5 c 128,-1,2
 908 1292 908 1292 817 1292 c 0,3,4
 697 1292 697 1292 622.5 1262 c 128,-1,5
 548 1232 548 1232 514 1178 c 128,-1,6
 480 1124 480 1124 480 1050 c 0,7,8
 480 977 480 977 517 935 c 128,-1,9
 554 893 554 893 617.5 865 c 128,-1,10
 681 837 681 837 758 807 c 0,11,12
 836 778 836 778 907.5 737.5 c 128,-1,13
 979 697 979 697 1024 630 c 128,-1,14
 1069 563 1069 563 1069 451 c 0,15,16
 1069 309 1069 309 999 203 c 128,-1,17
 929 97 929 97 794.5 38.5 c 128,-1,18
 660 -20 660 -20 467 -20 c 0,19,20
 341 -20 341 -20 258 -6.5 c 128,-1,21
 175 7 175 7 99 35 c 1,22,-1
 83 422 l 1,23,-1
 196 422 l 1,24,-1
 324 44 l 1,25,-1
 247 134 l 1,26,27
 294 122 294 122 348.5 115 c 128,-1,28
 403 108 403 108 472 108 c 0,29,30
 611 108 611 108 703 145 c 128,-1,31
 795 182 795 182 841.5 248.5 c 128,-1,32
 888 315 888 315 888 404 c 0,33,34
 888 469 888 469 861 512.5 c 128,-1,35
 834 556 834 556 789 585 c 128,-1,36
 744 614 744 614 689.5 635 c 128,-1,37
 635 656 635 656 578 677 c 0,38,39
 504 705 504 705 441 741 c 128,-1,40
 378 777 378 777 340 836 c 128,-1,41
 302 895 302 895 302 993 c 0,42,43
 302 1118 302 1118 362.5 1213 c 128,-1,44
 423 1308 423 1308 544.5 1362 c 128,-1,45
 666 1416 666 1416 850 1416 c 0,46,47
 949 1416 949 1416 1032 1398.5 c 128,-1,48
 1115 1381 1115 1381 1191 1339 c 1,49,-1
 1088 1357 l 1,50,-1
 1209 1463 l 1,51,-1
 1296 1463 l 1,52,-1
 1175 971 l 1,53,-1
 1065 971 l 1,54,-1
 1050 1275 l 1,55,-1
 1090 1215 l 1,0,1
EndSplineSet
EndChar

StartChar: T
Encoding: 84 84 24
Width: 1412
GlyphClass: 2
Flags: W
AnchorPoint: "Anchor-4" 576 0 basechar 0
LayerCount: 2
Fore
SplineSet
1410 1255 m 1,0,-1
 451 1255 l 1,1,-1
 543 1289 l 1,2,-1
 318 957 l 1,3,-1
 203 962 l 1,4,-1
 408 1480 l 1,5,-1
 492 1480 l 1,6,-1
 544 1374 l 1,7,-1
 446 1396 l 1,8,-1
 1495 1396 l 1,9,-1
 1379 1374 l 1,10,-1
 1500 1480 l 1,11,-1
 1585 1480 l 1,12,-1
 1501 957 l 1,13,-1
 1392 957 l 1,14,-1
 1365 1288 l 1,15,-1
 1410 1255 l 1,0,-1
863 1332 m 1,16,-1
 1056 1332 l 1,17,-1
 689 130 l 1,18,-1
 858 85 l 1,19,-1
 833 0 l 1,20,-1
 285 0 l 1,21,-1
 311 85 l 1,22,-1
 496 130 l 1,23,-1
 863 1332 l 1,16,-1
EndSplineSet
EndChar

StartChar: U
Encoding: 85 85 25
Width: 1588
GlyphClass: 2
Flags: W
AnchorPoint: "Anchor-4" 651 0 basechar 0
AnchorPoint: "Anchor-3" 794 0 basechar 0
AnchorPoint: "Anchor-2" 1627 1396 basechar 0
LayerCount: 2
Fore
SplineSet
441 520 m 2,0,1
 402 389 402 389 424 303.5 c 128,-1,2
 446 218 446 218 525 176.5 c 128,-1,3
 604 135 604 135 732 135 c 0,4,5
 857 135 857 135 947.5 171.5 c 128,-1,6
 1038 208 1038 208 1101 288 c 128,-1,7
 1164 368 1164 368 1204 499 c 2,8,-1
 1438 1266 l 1,9,-1
 1267 1311 l 1,10,-1
 1292 1396 l 1,11,-1
 1783 1396 l 1,12,-1
 1758 1311 l 1,13,-1
 1574 1265 l 1,14,-1
 1341 500 l 2,15,16
 1284 314 1284 314 1197.5 199.5 c 128,-1,17
 1111 85 1111 85 987.5 32.5 c 128,-1,18
 864 -20 864 -20 697 -20 c 0,19,20
 509 -20 509 -20 389.5 41 c 128,-1,21
 270 102 270 102 235.5 233.5 c 128,-1,22
 201 365 201 365 266 578 c 2,23,-1
 477 1266 l 1,24,-1
 306 1311 l 1,25,-1
 332 1396 l 1,26,-1
 880 1396 l 1,27,-1
 854 1311 l 1,28,-1
 670 1265 l 1,29,-1
 441 520 l 2,0,1
EndSplineSet
EndChar

StartChar: V
Encoding: 86 86 26
Width: 1474
GlyphClass: 2
Flags: W
AnchorPoint: "Anchor-4" 636 0 basechar 0
LayerCount: 2
Fore
SplineSet
393 1266 m 1,0,-1
 240 1311 l 1,1,-1
 266 1396 l 1,2,-1
 805 1396 l 1,3,-1
 779 1311 l 1,4,-1
 591 1266 l 1,5,-1
 679 95 l 1,6,-1
 642 95 l 1,7,-1
 1358 1266 l 1,8,-1
 1202 1311 l 1,9,-1
 1227 1396 l 1,10,-1
 1722 1396 l 1,11,-1
 1696 1311 l 1,12,-1
 1525 1266 l 1,13,-1
 710 -20 l 1,14,-1
 502 -20 l 1,15,-1
 393 1266 l 1,0,-1
EndSplineSet
EndChar

StartChar: W
Encoding: 87 87 27
Width: 2021
GlyphClass: 2
Flags: W
AnchorPoint: "Anchor-4" 884 0 basechar 0
LayerCount: 2
Fore
SplineSet
1922 1265 m 1,0,-1
 1763 1311 l 1,1,-1
 1789 1396 l 1,2,-1
 2268 1396 l 1,3,-1
 2242 1311 l 1,4,-1
 2074 1265 l 1,5,-1
 1420 -5 l 1,6,-1
 1207 -5 l 1,7,-1
 1212 1198 l 1,8,-1
 1253 1204 l 1,9,-1
 507 -5 l 1,10,-1
 285 -5 l 1,11,-1
 413 1265 l 1,12,-1
 261 1311 l 1,13,-1
 286 1396 l 1,14,-1
 831 1396 l 1,15,-1
 805 1311 l 1,16,-1
 618 1265 l 1,17,-1
 494 130 l 1,18,-1
 443 130 l 1,19,-1
 1215 1401 l 1,20,-1
 1415 1401 l 1,21,-1
 1414 120 l 1,22,-1
 1345 111 l 1,23,-1
 1922 1265 l 1,0,-1
EndSplineSet
EndChar

StartChar: X
Encoding: 88 88 28
Width: 1530
GlyphClass: 2
Flags: W
AnchorPoint: "Anchor-4" 613 0 basechar 0
LayerCount: 2
Fore
SplineSet
811 644 m 1,0,-1
 255 130 l 1,1,-1
 401 85 l 1,2,-1
 376 0 l 1,3,-1
 -115 0 l 1,4,-1
 -90 85 l 1,5,-1
 80 131 l 1,6,-1
 761 747 l 1,7,-1
 849 805 l 1,8,-1
 1346 1265 l 1,9,-1
 1199 1311 l 1,10,-1
 1225 1396 l 1,11,-1
 1716 1396 l 1,12,-1
 1690 1311 l 1,13,-1
 1520 1264 l 1,14,-1
 898 701 l 1,15,-1
 811 644 l 1,0,-1
1013 130 m 1,16,-1
 768 652 l 1,17,-1
 749 692 l 1,18,-1
 477 1265 l 1,19,-1
 321 1311 l 1,20,-1
 346 1396 l 1,21,-1
 888 1396 l 1,22,-1
 862 1311 l 1,23,-1
 691 1266 l 1,24,-1
 903 816 l 1,25,-1
 925 771 l 1,26,-1
 1227 131 l 1,27,-1
 1385 85 l 1,28,-1
 1359 0 l 1,29,-1
 817 0 l 1,30,-1
 844 85 l 1,31,-1
 1013 130 l 1,16,-1
EndSplineSet
EndChar

StartChar: Y
Encoding: 89 89 29
Width: 1436
GlyphClass: 2
Flags: W
AnchorPoint: "Anchor-4" 600 0 basechar 0
LayerCount: 2
Fore
SplineSet
1315 1268 m 1,0,-1
 1160 1311 l 1,1,-1
 1185 1396 l 1,2,-1
 1678 1396 l 1,3,-1
 1652 1311 l 1,4,-1
 1488 1267 l 1,5,-1
 852 590 l 1,6,-1
 711 130 l 1,7,-1
 881 85 l 1,8,-1
 855 0 l 1,9,-1
 307 0 l 1,10,-1
 333 85 l 1,11,-1
 518 130 l 1,12,-1
 656 581 l 1,13,-1
 407 1266 l 1,14,-1
 251 1311 l 1,15,-1
 277 1396 l 1,16,-1
 802 1396 l 1,17,-1
 777 1311 l 1,18,-1
 607 1267 l 1,19,-1
 821 663 l 1,20,-1
 764 664 l 1,21,-1
 1315 1268 l 1,0,-1
EndSplineSet
EndChar

StartChar: Z
Encoding: 90 90 30
Width: 1298
GlyphClass: 2
Flags: W
AnchorPoint: "Anchor-4" 481 0 basechar 0
LayerCount: 2
Fore
SplineSet
1434 1396 m 1,0,-1
 1401 1289 l 1,1,-1
 207 81 l 1,2,-1
 189 132 l 1,3,-1
 869 132 l 1,4,-1
 1082 412 l 1,5,-1
 1187 410 l 1,6,-1
 973 -66 l 1,7,-1
 878 -66 l 1,8,-1
 841 0 l 1,9,-1
 -31 0 l 1,10,-1
 1 107 l 1,11,-1
 1193 1314 l 1,12,-1
 1210 1264 l 1,13,-1
 555 1264 l 1,14,-1
 381 991 l 1,15,-1
 272 996 l 1,16,-1
 432 1463 l 1,17,-1
 516 1463 l 1,18,-1
 580 1396 l 1,19,-1
 1434 1396 l 1,0,-1
EndSplineSet
EndChar

StartChar: Aogonek
Encoding: 260 260 39
Width: 1505
GlyphClass: 1
Flags: W
LayerCount: 2
Fore
SplineSet
404 482 m 1,0,-1
 446 612 l 1,1,-1
 1115 612 l 1,2,-1
 1072 482 l 1,3,-1
 404 482 l 1,0,-1
1232 130 m 1,4,-1
 1385 85 l 1,5,-1
 1359 0 l 1,6,-1
 820 0 l 1,7,-1
 846 85 l 1,8,-1
 1034 130 l 1,9,-1
 944 1301 l 1,10,-1
 980 1301 l 1,11,-1
 237 130 l 1,12,-1
 393 85 l 1,13,-1
 368 0 l 1,14,-1
 -127 0 l 1,15,-1
 -101 85 l 1,16,-1
 70 130 l 1,17,-1
 912 1416 l 1,18,-1
 1121 1416 l 1,19,-1
 1232 130 l 1,4,-1
971 -311 m 0,20,21
 971 -345 971 -345 992 -364 c 128,-1,22
 1013 -383 1013 -383 1053 -383 c 0,23,24
 1083 -383 1083 -383 1112.5 -374 c 128,-1,25
 1142 -365 1142 -365 1188 -336 c 1,26,-1
 1192 -391 l 1,27,28
 1126 -442 1126 -442 1077.5 -461.5 c 128,-1,29
 1029 -481 1029 -481 975 -481 c 0,30,31
 910 -481 910 -481 877 -446 c 128,-1,32
 844 -411 844 -411 844 -357 c 0,33,34
 844 -323 844 -323 856 -287.5 c 128,-1,35
 868 -252 868 -252 899.5 -205.5 c 128,-1,36
 931 -159 931 -159 989 -94 c 2,37,-1
 1109 39 l 1,38,-1
 1177 39 l 1,39,-1
 1066 -110 l 2,40,41
 1029 -161 1029 -161 1008 -198 c 128,-1,42
 987 -235 987 -235 979 -261.5 c 128,-1,43
 971 -288 971 -288 971 -311 c 0,20,21
EndSplineSet
EndChar

StartChar: AE
Encoding: 198 198 55
Width: 2113
GlyphClass: 2
Flags: W
AnchorPoint: "Anchor-4" 949 0 basechar 0
LayerCount: 2
Fore
SplineSet
229 130 m 1,0,-1
 386 85 l 1,1,-1
 361 0 l 1,2,-1
 -146 0 l 1,3,-1
 -120 85 l 1,4,-1
 51 130 l 1,5,-1
 1070 1267 l 1,6,-1
 884 1311 l 1,7,-1
 910 1396 l 1,8,-1
 1479 1396 l 1,9,-1
 1054 0 l 1,10,-1
 689 0 l 1,11,-1
 716 85 l 1,12,-1
 900 130 l 1,13,-1
 1248 1269 l 1,14,-1
 1244 1268 l 1,15,-1
 229 130 l 1,0,-1
1679 -69 m 1,16,-1
 1627 0 l 1,17,-1
 940 0 l 1,18,-1
 984 132 l 1,19,-1
 1712 132 l 1,20,-1
 1605 71 l 1,21,-1
 1912 412 l 1,22,-1
 2022 407 l 1,23,-1
 1774 -69 l 1,24,-1
 1679 -69 l 1,16,-1
461 497 m 1,25,-1
 503 628 l 1,26,-1
 1096 628 l 1,27,-1
 1053 497 l 1,28,-1
 461 497 l 1,25,-1
1567 470 m 1,29,-1
 1608 663 l 1,30,-1
 1142 663 l 1,31,-1
 1183 794 l 1,32,-1
 1649 794 l 1,33,-1
 1724 984 l 1,34,-1
 1835 984 l 1,35,-1
 1756 727 l 1,36,-1
 1678 470 l 1,37,-1
 1567 470 l 1,29,-1
2011 1021 m 1,38,-1
 2013 1324 l 1,39,-1
 2056 1264 l 1,40,-1
 1324 1264 l 1,41,-1
 1367 1396 l 1,42,-1
 2052 1396 l 1,43,-1
 2159 1460 l 1,44,-1
 2242 1460 l 1,45,-1
 2123 1021 l 1,46,-1
 2011 1021 l 1,38,-1
EndSplineSet
EndChar

StartChar: Ccedilla
Encoding: 199 199 57
Width: 1469
GlyphClass: 1
Flags: W
LayerCount: 2
Fore
SplineSet
1167 184 m 1,0,-1
 999 88 l 1,1,-1
 1235 414 l 1,2,-1
 1355 414 l 1,3,-1
 1215 56 l 1,4,5
 1130 22 1130 22 1015 1 c 128,-1,6
 900 -20 900 -20 775 -20 c 0,7,8
 571 -20 571 -20 436.5 46.5 c 128,-1,9
 302 113 302 113 235 237 c 128,-1,10
 168 361 168 361 168 533 c 0,11,12
 168 686 168 686 209 820 c 128,-1,13
 250 954 250 954 329 1063.5 c 128,-1,14
 408 1173 408 1173 522 1252 c 128,-1,15
 636 1331 636 1331 783 1373.5 c 128,-1,16
 930 1416 930 1416 1106 1416 c 0,17,18
 1171 1416 1171 1416 1229 1409 c 128,-1,19
 1287 1402 1287 1402 1340 1389.5 c 128,-1,20
 1393 1377 1393 1377 1441 1359 c 1,21,-1
 1384 1357 l 1,22,-1
 1513 1463 l 1,23,-1
 1601 1463 l 1,24,-1
 1459 954 l 1,25,-1
 1341 954 l 1,26,-1
 1346 1265 l 1,27,-1
 1373 1200 l 1,28,29
 1302 1245 1302 1245 1229 1261 c 128,-1,30
 1156 1277 1156 1277 1066 1277 c 0,31,32
 927 1277 927 1277 815.5 1241 c 128,-1,33
 704 1205 704 1205 620.5 1138.5 c 128,-1,34
 537 1072 537 1072 482 981 c 128,-1,35
 427 890 427 890 399.5 781.5 c 128,-1,36
 372 673 372 673 372 551 c 0,37,38
 372 406 372 406 423.5 309 c 128,-1,39
 475 212 475 212 573.5 163 c 128,-1,40
 672 114 672 114 811 114 c 0,41,42
 899 114 899 114 989.5 132.5 c 128,-1,43
 1080 151 1080 151 1167 184 c 1,0,-1
558 -414 m 0,44,45
 617 -414 617 -414 650 -384.5 c 128,-1,46
 683 -355 683 -355 683 -308 c 0,47,48
 683 -274 683 -274 644.5 -250 c 128,-1,49
 606 -226 606 -226 503 -209 c 1,50,-1
 509 -190 l 1,51,-1
 711 27 l 1,52,-1
 800 27 l 1,53,-1
 605 -180 l 1,54,-1
 615 -112 l 1,55,56
 723 -134 723 -134 764 -173 c 128,-1,57
 805 -212 805 -212 805 -262 c 0,58,59
 805 -323 805 -323 772 -372.5 c 128,-1,60
 739 -422 739 -422 675 -451.5 c 128,-1,61
 611 -481 611 -481 518 -481 c 0,62,63
 446 -481 446 -481 417.5 -462.5 c 128,-1,64
 389 -444 389 -444 389 -415 c 0,65,66
 389 -391 389 -391 404 -374.5 c 128,-1,67
 419 -358 419 -358 443 -358 c 0,68,69
 455 -358 455 -358 469 -372 c 128,-1,70
 483 -386 483 -386 503.5 -400 c 128,-1,71
 524 -414 524 -414 558 -414 c 0,44,45
EndSplineSet
EndChar

StartChar: Dcroat
Encoding: 272 272 63
Width: 1583
GlyphClass: 1
Flags: W
LayerCount: 2
Fore
SplineSet
158 642 m 1,0,-1
 195 763 l 1,1,-1
 885 763 l 1,2,-1
 847 642 l 1,3,-1
 158 642 l 1,0,-1
601 132 m 2,4,5
 745 132 745 132 862 165.5 c 128,-1,6
 979 199 979 199 1067.5 263 c 128,-1,7
 1156 327 1156 327 1216 419.5 c 128,-1,8
 1276 512 1276 512 1306.5 629 c 128,-1,9
 1337 746 1337 746 1337 885 c 0,10,11
 1337 1004 1337 1004 1292.5 1089 c 128,-1,12
 1248 1174 1248 1174 1149 1219 c 128,-1,13
 1050 1264 1050 1264 885 1264 c 2,14,-1
 598 1264 l 1,15,-1
 641 1396 l 1,16,-1
 897 1396 l 2,17,18
 1129 1396 1129 1396 1270.5 1337.5 c 128,-1,19
 1412 1279 1412 1279 1476.5 1164.5 c 128,-1,20
 1541 1050 1541 1050 1541 883 c 0,21,22
 1541 688 1541 688 1480 526.5 c 128,-1,23
 1419 365 1419 365 1301 247 c 128,-1,24
 1183 129 1183 129 1010 64.5 c 128,-1,25
 837 0 837 0 614 0 c 2,26,-1
 214 0 l 1,27,-1
 258 132 l 1,28,-1
 601 132 l 2,4,5
521 1266 m 1,29,-1
 350 1311 l 1,30,-1
 377 1396 l 1,31,-1
 753 1396 l 1,32,-1
 328 0 l 1,33,-1
 -37 0 l 1,34,-1
 -10 85 l 1,35,-1
 174 130 l 1,36,-1
 521 1266 l 1,29,-1
EndSplineSet
EndChar

StartChar: Eogonek
Encoding: 280 280 71
Width: 1385
GlyphClass: 1
Flags: W
LayerCount: 2
Fore
SplineSet
518 1266 m 1,0,-1
 348 1311 l 1,1,-1
 374 1396 l 1,2,-1
 751 1396 l 1,3,-1
 325 0 l 1,4,-1
 -39 0 l 1,5,-1
 -13 85 l 1,6,-1
 172 130 l 1,7,-1
 518 1266 l 1,0,-1
838 470 m 1,8,-1
 880 663 l 1,9,-1
 414 663 l 1,10,-1
 455 794 l 1,11,-1
 920 794 l 1,12,-1
 995 984 l 1,13,-1
 1106 984 l 1,14,-1
 1028 727 l 1,15,-1
 949 470 l 1,16,-1
 838 470 l 1,8,-1
1395 1021 m 1,17,-1
 1283 1021 l 1,18,-1
 1284 1324 l 1,19,-1
 1327 1264 l 1,20,-1
 595 1264 l 1,21,-1
 638 1396 l 1,22,-1
 1324 1396 l 1,23,-1
 1431 1460 l 1,24,-1
 1513 1460 l 1,25,-1
 1395 1021 l 1,17,-1
951 -69 m 1,26,-1
 898 0 l 1,27,-1
 212 0 l 1,28,-1
 255 132 l 1,29,-1
 983 132 l 1,30,-1
 877 71 l 1,31,-1
 1183 412 l 1,32,-1
 1293 407 l 1,33,-1
 1045 -69 l 1,34,-1
 951 -69 l 1,26,-1
756 -311 m 0,35,36
 756 -345 756 -345 777.5 -364 c 128,-1,37
 799 -383 799 -383 839 -383 c 0,38,39
 868 -383 868 -383 897.5 -374 c 128,-1,40
 927 -365 927 -365 973 -336 c 1,41,-1
 978 -391 l 1,42,43
 911 -442 911 -442 862.5 -461.5 c 128,-1,44
 814 -481 814 -481 761 -481 c 0,45,46
 695 -481 695 -481 662.5 -446 c 128,-1,47
 630 -411 630 -411 630 -357 c 0,48,49
 630 -323 630 -323 639.5 -289 c 128,-1,50
 649 -255 649 -255 678 -210 c 128,-1,51
 707 -165 707 -165 764 -100 c 2,52,-1
 887 39 l 1,53,-1
 955 39 l 1,54,-1
 842 -116 l 2,55,56
 805 -167 805 -167 786.5 -202 c 128,-1,57
 768 -237 768 -237 762 -262.5 c 128,-1,58
 756 -288 756 -288 756 -311 c 0,35,36
EndSplineSet
EndChar

StartChar: Hbar
Encoding: 294 294 89
Width: 1673
GlyphClass: 1
Flags: W
LayerCount: 2
Fore
SplineSet
411 645 m 1,0,-1
 451 777 l 1,1,-1
 1393 777 l 1,2,-1
 1354 645 l 1,3,-1
 411 645 l 1,0,-1
262 985 m 1,4,-1
 299 1106 l 1,5,-1
 1757 1106 l 1,6,-1
 1719 985 l 1,7,-1
 262 985 l 1,4,-1
520 1266 m 1,8,-1
 350 1311 l 1,9,-1
 376 1396 l 1,10,-1
 923 1396 l 1,11,-1
 898 1311 l 1,12,-1
 713 1265 l 1,13,-1
 366 130 l 1,14,-1
 536 85 l 1,15,-1
 511 0 l 1,16,-1
 -37 0 l 1,17,-1
 -11 85 l 1,18,-1
 173 130 l 1,19,-1
 520 1266 l 1,8,-1
1430 1266 m 1,20,-1
 1260 1311 l 1,21,-1
 1286 1396 l 1,22,-1
 1833 1396 l 1,23,-1
 1808 1311 l 1,24,-1
 1623 1265 l 1,25,-1
 1276 130 l 1,26,-1
 1447 85 l 1,27,-1
 1421 0 l 1,28,-1
 873 0 l 1,29,-1
 899 85 l 1,30,-1
 1083 130 l 1,31,-1
 1430 1266 l 1,20,-1
EndSplineSet
EndChar

StartChar: Iogonek
Encoding: 302 302 97
Width: 759
GlyphClass: 1
Flags: W
LayerCount: 2
Fore
SplineSet
518 1266 m 1,0,-1
 348 1311 l 1,1,-1
 374 1396 l 1,2,-1
 921 1396 l 1,3,-1
 896 1311 l 1,4,-1
 711 1265 l 1,5,-1
 365 130 l 1,6,-1
 534 85 l 1,7,-1
 509 0 l 1,8,-1
 -39 0 l 1,9,-1
 -13 85 l 1,10,-1
 172 130 l 1,11,-1
 518 1266 l 1,0,-1
90 -308 m 0,12,13
 90 -343 90 -343 111 -363 c 128,-1,14
 132 -383 132 -383 173 -383 c 0,15,16
 202 -383 202 -383 231.5 -374 c 128,-1,17
 261 -365 261 -365 307 -336 c 1,18,-1
 311 -391 l 1,19,20
 245 -442 245 -442 196.5 -461.5 c 128,-1,21
 148 -481 148 -481 95 -481 c 0,22,23
 29 -481 29 -481 -4 -445 c 128,-1,24
 -37 -409 -37 -409 -37 -355 c 0,25,26
 -37 -321 -37 -321 -25 -285 c 128,-1,27
 -13 -249 -13 -249 18.5 -202.5 c 128,-1,28
 50 -156 50 -156 111 -91 c 2,29,-1
 228 39 l 1,30,-1
 296 39 l 1,31,-1
 186 -107 l 2,32,33
 148 -159 148 -159 126.5 -195.5 c 128,-1,34
 105 -232 105 -232 97.5 -259 c 128,-1,35
 90 -286 90 -286 90 -308 c 0,12,13
EndSplineSet
EndChar

StartChar: Lslash
Encoding: 321 321 107
Width: 1274
GlyphClass: 1
Flags: W
LayerCount: 2
Fore
SplineSet
738 1265 m 1,0,-1
 352 0 l 1,1,-1
 -13 0 l 1,2,-1
 14 85 l 1,3,-1
 198 130 l 1,4,-1
 545 1266 l 1,5,-1
 374 1311 l 1,6,-1
 401 1396 l 1,7,-1
 948 1396 l 1,8,-1
 922 1311 l 1,9,-1
 738 1265 l 1,0,-1
822 70 m 1,10,-1
 1096 442 l 1,11,-1
 1206 437 l 1,12,-1
 992 -69 l 1,13,-1
 897 -69 l 1,14,-1
 845 0 l 1,15,-1
 183 0 l 1,16,-1
 226 132 l 1,17,-1
 930 132 l 1,18,-1
 822 70 l 1,10,-1
985 971 m 1,19,-1
 942 828 l 1,20,-1
 497 613 l 1,21,-1
 402 594 l 1,22,-1
 118 457 l 1,23,-1
 162 600 l 1,24,-1
 445 737 l 1,25,-1
 539 756 l 1,26,-1
 985 971 l 1,19,-1
EndSplineSet
EndChar

StartChar: Eng
Encoding: 330 330 114
Width: 1609
GlyphClass: 1
Flags: W
LayerCount: 2
Fore
SplineSet
1173 210 m 1,0,-1
 1082 -85 l 1,1,-1
 626 1284 l 1,2,-1
 653 1264 l 1,3,-1
 305 130 l 1,4,-1
 476 85 l 1,5,-1
 451 0 l 1,6,-1
 -40 0 l 1,7,-1
 -15 85 l 1,8,-1
 169 130 l 1,9,-1
 517 1262 l 1,10,-1
 352 1311 l 1,11,-1
 377 1396 l 1,12,-1
 779 1396 l 1,13,-1
 1173 210 l 1,0,-1
1157 -137 m 2,14,15
 1120 -257 1120 -257 1063.5 -333.5 c 128,-1,16
 1007 -410 1007 -410 928.5 -445.5 c 128,-1,17
 850 -481 850 -481 745 -481 c 0,18,19
 648 -481 648 -481 594.5 -447 c 128,-1,20
 541 -413 541 -413 541 -356 c 0,21,22
 541 -312 541 -312 565 -278 c 128,-1,23
 589 -244 589 -244 629 -243 c 0,24,25
 642 -243 642 -243 656 -256 c 128,-1,26
 670 -269 670 -269 690 -287 c 128,-1,27
 710 -305 710 -305 738.5 -318.5 c 128,-1,28
 767 -332 767 -332 809 -332 c 0,29,30
 855 -332 855 -332 894.5 -314 c 128,-1,31
 934 -296 934 -296 966.5 -252 c 128,-1,32
 999 -208 999 -208 1024 -128 c 2,33,-1
 1452 1266 l 1,34,-1
 1280 1311 l 1,35,-1
 1305 1396 l 1,36,-1
 1796 1396 l 1,37,-1
 1772 1311 l 1,38,-1
 1587 1265 l 1,39,-1
 1157 -137 l 2,14,15
EndSplineSet
EndChar

StartChar: Ohorn
Encoding: 416 416 123
Width: 1606
GlyphClass: 2
Flags: W
AnchorPoint: "Anchor-4" 642 0 basechar 0
LayerCount: 2
Fore
SplineSet
361 512 m 0,0,1
 361 328 361 328 453.5 223.5 c 128,-1,2
 546 119 546 119 738 119 c 0,3,4
 832 119 832 119 914.5 147 c 128,-1,5
 997 175 997 175 1066.5 226.5 c 128,-1,6
 1136 278 1136 278 1191 348.5 c 128,-1,7
 1246 419 1246 419 1284.5 504.5 c 128,-1,8
 1323 590 1323 590 1343 686 c 128,-1,9
 1363 782 1363 782 1363 884 c 0,10,11
 1363 1067 1363 1067 1270.5 1172 c 128,-1,12
 1178 1277 1178 1277 986 1277 c 0,13,14
 892 1277 892 1277 809 1249 c 128,-1,15
 726 1221 726 1221 656.5 1169.5 c 128,-1,16
 587 1118 587 1118 532.5 1047.5 c 128,-1,17
 478 977 478 977 439.5 891.5 c 128,-1,18
 401 806 401 806 381 710 c 128,-1,19
 361 614 361 614 361 512 c 0,0,1
1563 880 m 0,20,21
 1563 737 1563 737 1522.5 604 c 128,-1,22
 1482 471 1482 471 1406.5 358 c 128,-1,23
 1331 245 1331 245 1228 160 c 128,-1,24
 1125 75 1125 75 999 27.5 c 128,-1,25
 873 -20 873 -20 731 -20 c 0,26,27
 548 -20 548 -20 420.5 45.5 c 128,-1,28
 293 111 293 111 227 232 c 128,-1,29
 161 353 161 353 161 516 c 0,30,31
 161 658 161 658 201.5 791 c 128,-1,32
 242 924 242 924 317 1037.5 c 128,-1,33
 392 1151 392 1151 495.5 1236 c 128,-1,34
 599 1321 599 1321 725 1368.5 c 128,-1,35
 851 1416 851 1416 992 1416 c 0,36,37
 1065 1416 1065 1416 1115 1410 c 128,-1,38
 1165 1404 1165 1404 1204.5 1396.5 c 128,-1,39
 1244 1389 1244 1389 1283 1383 c 128,-1,40
 1322 1377 1322 1377 1371 1377 c 0,41,42
 1460 1377 1460 1377 1501 1410.5 c 128,-1,43
 1542 1444 1542 1444 1542 1507 c 0,44,45
 1542 1542 1542 1542 1531.5 1566 c 128,-1,46
 1521 1590 1521 1590 1521 1600 c 0,47,48
 1521 1626 1521 1626 1549 1649.5 c 128,-1,49
 1577 1673 1577 1673 1618 1673 c 0,50,51
 1657 1673 1657 1673 1685 1645.5 c 128,-1,52
 1713 1618 1713 1618 1713 1562 c 0,53,54
 1713 1426 1713 1426 1629 1352.5 c 128,-1,55
 1545 1279 1545 1279 1365 1293 c 1,56,-1
 1370 1307 l 1,57,58
 1472 1228 1472 1228 1517.5 1118.5 c 128,-1,59
 1563 1009 1563 1009 1563 880 c 0,20,21
EndSplineSet
EndChar

StartChar: uni01EA
Encoding: 490 490 124
Width: 1599
GlyphClass: 1
Flags: W
LayerCount: 2
Fore
SplineSet
361 512 m 0,0,1
 361 328 361 328 453.5 223.5 c 128,-1,2
 546 119 546 119 738 119 c 0,3,4
 832 119 832 119 914.5 147 c 128,-1,5
 997 175 997 175 1066.5 226.5 c 128,-1,6
 1136 278 1136 278 1191 348.5 c 128,-1,7
 1246 419 1246 419 1284.5 504.5 c 128,-1,8
 1323 590 1323 590 1343 686 c 128,-1,9
 1363 782 1363 782 1363 884 c 0,10,11
 1363 1067 1363 1067 1270.5 1172 c 128,-1,12
 1178 1277 1178 1277 986 1277 c 0,13,14
 892 1277 892 1277 809 1249 c 128,-1,15
 726 1221 726 1221 656.5 1169.5 c 128,-1,16
 587 1118 587 1118 532.5 1047.5 c 128,-1,17
 478 977 478 977 439.5 891.5 c 128,-1,18
 401 806 401 806 381 710 c 128,-1,19
 361 614 361 614 361 512 c 0,0,1
1563 880 m 0,20,21
 1563 737 1563 737 1522.5 604 c 128,-1,22
 1482 471 1482 471 1406.5 358 c 128,-1,23
 1331 245 1331 245 1228 160 c 128,-1,24
 1125 75 1125 75 999 27.5 c 128,-1,25
 873 -20 873 -20 731 -20 c 0,26,27
 548 -20 548 -20 420.5 45.5 c 128,-1,28
 293 111 293 111 227 232 c 128,-1,29
 161 353 161 353 161 516 c 0,30,31
 161 658 161 658 201.5 791 c 128,-1,32
 242 924 242 924 317 1037.5 c 128,-1,33
 392 1151 392 1151 495.5 1236 c 128,-1,34
 599 1321 599 1321 725 1368.5 c 128,-1,35
 851 1416 851 1416 992 1416 c 0,36,37
 1176 1416 1176 1416 1303 1350 c 128,-1,38
 1430 1284 1430 1284 1496.5 1164 c 128,-1,39
 1563 1044 1563 1044 1563 880 c 0,20,21
501 -311 m 0,40,41
 501 -345 501 -345 522 -364 c 128,-1,42
 543 -383 543 -383 583 -383 c 0,43,44
 613 -383 613 -383 642 -374 c 128,-1,45
 671 -365 671 -365 717 -336 c 1,46,-1
 722 -391 l 1,47,48
 655 -442 655 -442 607 -461.5 c 128,-1,49
 559 -481 559 -481 505 -481 c 0,50,51
 440 -481 440 -481 407 -446 c 128,-1,52
 374 -411 374 -411 374 -357 c 0,53,54
 374 -323 374 -323 385 -288 c 128,-1,55
 396 -253 396 -253 429.5 -208.5 c 128,-1,56
 463 -164 463 -164 529 -100 c 2,57,-1
 670 39 l 1,58,-1
 737 39 l 1,59,-1
 604 -116 l 2,60,61
 561 -166 561 -166 538.5 -201.5 c 128,-1,62
 516 -237 516 -237 508.5 -262.5 c 128,-1,63
 501 -288 501 -288 501 -311 c 0,40,41
EndSplineSet
EndChar

StartChar: Oslash
Encoding: 216 216 142
Width: 1626
GlyphClass: 2
Flags: W
AnchorPoint: "Anchor-4" 655 0 basechar 0
LayerCount: 2
Fore
SplineSet
1777 1396 m 1,0,-1
 1475 1136 l 1,1,-1
 1409 1086 l 1,2,-1
 405 213 l 1,3,-1
 355 166 l 1,4,-1
 161 0 l 1,5,-1
 -27 0 l 1,6,-1
 277 262 l 1,7,-1
 338 309 l 1,8,-1
 1344 1182 l 1,9,-1
 1396 1230 l 1,10,-1
 1590 1396 l 1,11,-1
 1777 1396 l 1,0,-1
374 512 m 0,12,13
 374 328 374 328 466.5 223.5 c 128,-1,14
 559 119 559 119 751 119 c 0,15,16
 845 119 845 119 927.5 147 c 128,-1,17
 1010 175 1010 175 1079.5 226.5 c 128,-1,18
 1149 278 1149 278 1204 348.5 c 128,-1,19
 1259 419 1259 419 1297.5 504.5 c 128,-1,20
 1336 590 1336 590 1356 686 c 128,-1,21
 1376 782 1376 782 1376 884 c 0,22,23
 1376 1067 1376 1067 1283.5 1172 c 128,-1,24
 1191 1277 1191 1277 999 1277 c 0,25,26
 905 1277 905 1277 822 1249 c 128,-1,27
 739 1221 739 1221 669.5 1169.5 c 128,-1,28
 600 1118 600 1118 545.5 1047.5 c 128,-1,29
 491 977 491 977 452.5 891.5 c 128,-1,30
 414 806 414 806 394 710 c 128,-1,31
 374 614 374 614 374 512 c 0,12,13
1576 880 m 0,32,33
 1576 737 1576 737 1535.5 604 c 128,-1,34
 1495 471 1495 471 1419.5 358 c 128,-1,35
 1344 245 1344 245 1241 160 c 128,-1,36
 1138 75 1138 75 1012 27.5 c 128,-1,37
 886 -20 886 -20 744 -20 c 0,38,39
 561 -20 561 -20 433.5 45.5 c 128,-1,40
 306 111 306 111 240 232 c 128,-1,41
 174 353 174 353 174 516 c 0,42,43
 174 658 174 658 214.5 791 c 128,-1,44
 255 924 255 924 330 1037.5 c 128,-1,45
 405 1151 405 1151 508.5 1236 c 128,-1,46
 612 1321 612 1321 738 1368.5 c 128,-1,47
 864 1416 864 1416 1005 1416 c 0,48,49
 1189 1416 1189 1416 1316 1350 c 128,-1,50
 1443 1284 1443 1284 1509.5 1164 c 128,-1,51
 1576 1044 1576 1044 1576 880 c 0,32,33
EndSplineSet
EndChar

StartChar: OE
Encoding: 338 338 144
Width: 2190
GlyphClass: 1
Flags: W
LayerCount: 2
Fore
SplineSet
1364 1396 m 1,0,-1
 1557 1396 l 1,1,-1
 1130 0 l 1,2,-1
 936 0 l 1,3,-1
 1364 1396 l 1,0,-1
1087 1396 m 2,4,-1
 2129 1396 l 1,5,-1
 2236 1460 l 1,6,-1
 2318 1460 l 1,7,-1
 2200 1021 l 1,8,-1
 2088 1021 l 1,9,-1
 2089 1324 l 1,10,-1
 2133 1264 l 1,11,-1
 1106 1264 l 2,12,13
 954 1264 954 1264 835 1229.5 c 128,-1,14
 716 1195 716 1195 628 1130 c 128,-1,15
 540 1065 540 1065 482 973 c 128,-1,16
 424 881 424 881 395.5 767 c 128,-1,17
 367 653 367 653 367 521 c 0,18,19
 367 402 367 402 413 314 c 128,-1,20
 459 226 459 226 561.5 179 c 128,-1,21
 664 132 664 132 836 132 c 2,22,-1
 1789 132 l 1,23,-1
 1682 71 l 1,24,-1
 1988 412 l 1,25,-1
 2098 407 l 1,26,-1
 1851 -69 l 1,27,-1
 1756 -69 l 1,28,-1
 1704 0 l 1,29,-1
 797 0 l 2,30,31
 574 0 574 0 434.5 62 c 128,-1,32
 295 124 295 124 230 238 c 128,-1,33
 165 352 165 352 165 511 c 0,34,35
 165 702 165 702 225.5 864 c 128,-1,36
 286 1026 286 1026 403.5 1145 c 128,-1,37
 521 1264 521 1264 693 1330 c 128,-1,38
 865 1396 865 1396 1087 1396 c 2,4,-1
1754 470 m 1,39,-1
 1644 470 l 1,40,-1
 1685 663 l 1,41,-1
 1219 663 l 1,42,-1
 1260 794 l 1,43,-1
 1725 794 l 1,44,-1
 1801 984 l 1,45,-1
 1911 984 l 1,46,-1
 1833 727 l 1,47,-1
 1754 470 l 1,39,-1
EndSplineSet
EndChar

StartChar: Scedilla
Encoding: 350 350 152
Width: 1213
GlyphClass: 1
Flags: W
LayerCount: 2
Fore
SplineSet
1090 1215 m 1,0,1
 1044 1251 1044 1251 976 1271.5 c 128,-1,2
 908 1292 908 1292 817 1292 c 0,3,4
 697 1292 697 1292 622.5 1262 c 128,-1,5
 548 1232 548 1232 514 1178 c 128,-1,6
 480 1124 480 1124 480 1050 c 0,7,8
 480 977 480 977 517 935 c 128,-1,9
 554 893 554 893 617.5 865 c 128,-1,10
 681 837 681 837 758 807 c 0,11,12
 836 778 836 778 907.5 737.5 c 128,-1,13
 979 697 979 697 1024 630 c 128,-1,14
 1069 563 1069 563 1069 451 c 0,15,16
 1069 309 1069 309 999 203 c 128,-1,17
 929 97 929 97 794.5 38.5 c 128,-1,18
 660 -20 660 -20 467 -20 c 0,19,20
 341 -20 341 -20 258 -6.5 c 128,-1,21
 175 7 175 7 99 35 c 1,22,-1
 83 422 l 1,23,-1
 196 422 l 1,24,-1
 324 44 l 1,25,-1
 247 134 l 1,26,27
 294 122 294 122 348.5 115 c 128,-1,28
 403 108 403 108 472 108 c 0,29,30
 611 108 611 108 703 145 c 128,-1,31
 795 182 795 182 841.5 248.5 c 128,-1,32
 888 315 888 315 888 404 c 0,33,34
 888 469 888 469 861 512.5 c 128,-1,35
 834 556 834 556 789 585 c 128,-1,36
 744 614 744 614 689.5 635 c 128,-1,37
 635 656 635 656 578 677 c 0,38,39
 504 705 504 705 441 741 c 128,-1,40
 378 777 378 777 340 836 c 128,-1,41
 302 895 302 895 302 993 c 0,42,43
 302 1118 302 1118 362.5 1213 c 128,-1,44
 423 1308 423 1308 544.5 1362 c 128,-1,45
 666 1416 666 1416 850 1416 c 0,46,47
 949 1416 949 1416 1032 1398.5 c 128,-1,48
 1115 1381 1115 1381 1191 1339 c 1,49,-1
 1088 1357 l 1,50,-1
 1209 1463 l 1,51,-1
 1296 1463 l 1,52,-1
 1175 971 l 1,53,-1
 1065 971 l 1,54,-1
 1050 1275 l 1,55,-1
 1090 1215 l 1,0,1
341 -481 m 0,56,57
 269 -481 269 -481 240.5 -462.5 c 128,-1,58
 212 -444 212 -444 212 -415 c 0,59,60
 212 -391 212 -391 227 -374.5 c 128,-1,61
 242 -358 242 -358 266 -358 c 0,62,63
 279 -358 279 -358 292.5 -372 c 128,-1,64
 306 -386 306 -386 327 -400 c 128,-1,65
 348 -414 348 -414 381 -414 c 0,66,67
 440 -414 440 -414 473 -384.5 c 128,-1,68
 506 -355 506 -355 506 -308 c 0,69,70
 506 -274 506 -274 468 -250 c 128,-1,71
 430 -226 430 -226 326 -209 c 1,72,-1
 332 -190 l 1,73,-1
 534 27 l 1,74,-1
 623 27 l 1,75,-1
 428 -180 l 1,76,-1
 439 -112 l 1,77,78
 547 -134 547 -134 587.5 -173 c 128,-1,79
 628 -212 628 -212 628 -262 c 0,80,81
 628 -323 628 -323 595 -372.5 c 128,-1,82
 562 -422 562 -422 498.5 -451.5 c 128,-1,83
 435 -481 435 -481 341 -481 c 0,56,57
EndSplineSet
Substitution2: "'locl' Localized Forms in Latin lookup 1 subtable" uni0218
Substitution2: "'locl' Localized Forms in Latin lookup 0 subtable" uni0218
EndChar

StartChar: uni0162
Encoding: 354 354 156
Width: 1412
GlyphClass: 1
Flags: W
LayerCount: 2
Fore
SplineSet
1410 1255 m 1,0,-1
 451 1255 l 1,1,-1
 543 1289 l 1,2,-1
 318 957 l 1,3,-1
 203 962 l 1,4,-1
 408 1480 l 1,5,-1
 492 1480 l 1,6,-1
 544 1374 l 1,7,-1
 446 1396 l 1,8,-1
 1495 1396 l 1,9,-1
 1379 1374 l 1,10,-1
 1500 1480 l 1,11,-1
 1585 1480 l 1,12,-1
 1501 957 l 1,13,-1
 1392 957 l 1,14,-1
 1365 1288 l 1,15,-1
 1410 1255 l 1,0,-1
863 1332 m 1,16,-1
 1056 1332 l 1,17,-1
 689 130 l 1,18,-1
 858 85 l 1,19,-1
 833 0 l 1,20,-1
 285 0 l 1,21,-1
 311 85 l 1,22,-1
 496 130 l 1,23,-1
 863 1332 l 1,16,-1
383 -481 m 0,24,25
 311 -481 311 -481 282.5 -462.5 c 128,-1,26
 254 -444 254 -444 254 -415 c 0,27,28
 254 -391 254 -391 269 -374.5 c 128,-1,29
 284 -358 284 -358 308 -358 c 0,30,31
 321 -358 321 -358 334.5 -372 c 128,-1,32
 348 -386 348 -386 369 -400 c 128,-1,33
 390 -414 390 -414 423 -414 c 0,34,35
 482 -414 482 -414 515 -384.5 c 128,-1,36
 548 -355 548 -355 548 -308 c 0,37,38
 548 -274 548 -274 509.5 -250 c 128,-1,39
 471 -226 471 -226 368 -209 c 1,40,-1
 374 -190 l 1,41,-1
 576 27 l 1,42,-1
 665 27 l 1,43,-1
 470 -180 l 1,44,-1
 481 -112 l 1,45,46
 589 -134 589 -134 629.5 -173 c 128,-1,47
 670 -212 670 -212 670 -262 c 0,48,49
 670 -323 670 -323 637 -372.5 c 128,-1,50
 604 -422 604 -422 540.5 -451.5 c 128,-1,51
 477 -481 477 -481 383 -481 c 0,24,25
EndSplineSet
EndChar

StartChar: Tbar
Encoding: 358 358 158
Width: 1416
GlyphClass: 1
Flags: W
LayerCount: 2
Fore
SplineSet
373 651 m 1,0,-1
 410 772 l 1,1,-1
 1169 772 l 1,2,-1
 1131 651 l 1,3,-1
 373 651 l 1,0,-1
1410 1255 m 1,4,-1
 452 1255 l 1,5,-1
 544 1289 l 1,6,-1
 319 957 l 1,7,-1
 204 962 l 1,8,-1
 409 1480 l 1,9,-1
 493 1480 l 1,10,-1
 544 1374 l 1,11,-1
 447 1396 l 1,12,-1
 1495 1396 l 1,13,-1
 1380 1374 l 1,14,-1
 1501 1480 l 1,15,-1
 1586 1480 l 1,16,-1
 1502 957 l 1,17,-1
 1393 957 l 1,18,-1
 1366 1288 l 1,19,-1
 1410 1255 l 1,4,-1
864 1332 m 1,20,-1
 1057 1332 l 1,21,-1
 689 130 l 1,22,-1
 859 85 l 1,23,-1
 834 0 l 1,24,-1
 286 0 l 1,25,-1
 312 85 l 1,26,-1
 496 130 l 1,27,-1
 864 1332 l 1,20,-1
EndSplineSet
EndChar

StartChar: Uogonek
Encoding: 370 370 169
Width: 1588
GlyphClass: 1
Flags: W
LayerCount: 2
Fore
SplineSet
441 520 m 2,0,1
 402 389 402 389 424 303.5 c 128,-1,2
 446 218 446 218 525 176.5 c 128,-1,3
 604 135 604 135 732 135 c 0,4,5
 857 135 857 135 947.5 171.5 c 128,-1,6
 1038 208 1038 208 1101 288 c 128,-1,7
 1164 368 1164 368 1204 499 c 2,8,-1
 1438 1266 l 1,9,-1
 1267 1311 l 1,10,-1
 1292 1396 l 1,11,-1
 1783 1396 l 1,12,-1
 1758 1311 l 1,13,-1
 1574 1265 l 1,14,-1
 1341 500 l 2,15,16
 1284 314 1284 314 1197.5 199.5 c 128,-1,17
 1111 85 1111 85 987.5 32.5 c 128,-1,18
 864 -20 864 -20 697 -20 c 0,19,20
 509 -20 509 -20 389.5 41 c 128,-1,21
 270 102 270 102 235.5 233.5 c 128,-1,22
 201 365 201 365 266 578 c 2,23,-1
 477 1266 l 1,24,-1
 306 1311 l 1,25,-1
 332 1396 l 1,26,-1
 880 1396 l 1,27,-1
 854 1311 l 1,28,-1
 670 1265 l 1,29,-1
 441 520 l 2,0,1
543 -311 m 0,30,31
 543 -345 543 -345 564.5 -364 c 128,-1,32
 586 -383 586 -383 626 -383 c 0,33,34
 655 -383 655 -383 684.5 -374 c 128,-1,35
 714 -365 714 -365 760 -336 c 1,36,-1
 764 -391 l 1,37,38
 698 -442 698 -442 649.5 -461.5 c 128,-1,39
 601 -481 601 -481 548 -481 c 0,40,41
 482 -481 482 -481 449 -446 c 128,-1,42
 416 -411 416 -411 416 -357 c 0,43,44
 416 -323 416 -323 426.5 -288.5 c 128,-1,45
 437 -254 437 -254 468.5 -209 c 128,-1,46
 500 -164 500 -164 562 -100 c 2,47,-1
 694 39 l 1,48,-1
 761 39 l 1,49,-1
 639 -116 l 2,50,51
 599 -167 599 -167 578 -202 c 128,-1,52
 557 -237 557 -237 550 -262.5 c 128,-1,53
 543 -288 543 -288 543 -311 c 0,30,31
EndSplineSet
EndChar

StartChar: Uhorn
Encoding: 431 431 170
Width: 1605
GlyphClass: 2
Flags: W
AnchorPoint: "Anchor-4" 651 0 basechar 0
LayerCount: 2
Fore
SplineSet
441 520 m 2,0,1
 402 389 402 389 424 303.5 c 128,-1,2
 446 218 446 218 525 176.5 c 128,-1,3
 604 135 604 135 732 135 c 0,4,5
 857 135 857 135 947.5 171.5 c 128,-1,6
 1038 208 1038 208 1101 288 c 128,-1,7
 1164 368 1164 368 1204 499 c 2,8,-1
 1438 1266 l 1,9,-1
 1267 1311 l 1,10,-1
 1292 1396 l 1,11,-1
 1615 1396 l 2,12,13
 1732 1396 1732 1396 1773.5 1428 c 128,-1,14
 1815 1460 1815 1460 1815 1513 c 0,15,16
 1815 1544 1815 1544 1804.5 1567 c 128,-1,17
 1794 1590 1794 1590 1794 1600 c 0,18,19
 1794 1626 1794 1626 1822 1649.5 c 128,-1,20
 1850 1673 1850 1673 1890 1673 c 256,21,22
 1930 1673 1930 1673 1958 1646.5 c 128,-1,23
 1986 1620 1986 1620 1986 1574 c 0,24,25
 1986 1500 1986 1500 1946 1432 c 128,-1,26
 1906 1364 1906 1364 1816 1321 c 128,-1,27
 1726 1278 1726 1278 1576 1275 c 1,28,-1
 1341 500 l 2,29,30
 1284 314 1284 314 1197.5 199.5 c 128,-1,31
 1111 85 1111 85 987.5 32.5 c 128,-1,32
 864 -20 864 -20 697 -20 c 0,33,34
 509 -20 509 -20 389.5 41 c 128,-1,35
 270 102 270 102 235.5 233.5 c 128,-1,36
 201 365 201 365 266 578 c 2,37,-1
 477 1266 l 1,38,-1
 306 1311 l 1,39,-1
 332 1396 l 1,40,-1
 880 1396 l 1,41,-1
 854 1311 l 1,42,-1
 670 1265 l 1,43,-1
 441 520 l 2,0,1
EndSplineSet
EndChar

StartChar: Thorn
Encoding: 222 222 195
Width: 1319
GlyphClass: 1
Flags: W
LayerCount: 2
Fore
SplineSet
717 425 m 2,0,1
 810 425 810 425 880.5 449.5 c 128,-1,2
 951 474 951 474 998.5 521 c 128,-1,3
 1046 568 1046 568 1070 634.5 c 128,-1,4
 1094 701 1094 701 1094 785 c 0,5,6
 1094 848 1094 848 1066 892.5 c 128,-1,7
 1038 937 1038 937 973 960.5 c 128,-1,8
 908 984 908 984 799 984 c 2,9,-1
 470 984 l 1,10,-1
 516 1116 l 1,11,-1
 857 1116 l 2,12,13
 1009 1116 1009 1116 1104.5 1078 c 128,-1,14
 1200 1040 1200 1040 1245 969.5 c 128,-1,15
 1290 899 1290 899 1290 800 c 0,16,17
 1290 687 1290 687 1252 594 c 128,-1,18
 1214 501 1214 501 1138 433.5 c 128,-1,19
 1062 366 1062 366 948.5 329.5 c 128,-1,20
 835 293 835 293 684 293 c 2,21,-1
 263 293 l 1,22,-1
 304 425 l 1,23,-1
 717 425 l 2,0,1
518 1266 m 1,24,-1
 348 1311 l 1,25,-1
 374 1396 l 1,26,-1
 921 1396 l 1,27,-1
 896 1311 l 1,28,-1
 711 1265 l 1,29,-1
 365 130 l 1,30,-1
 534 85 l 1,31,-1
 509 0 l 1,32,-1
 -39 0 l 1,33,-1
 -13 85 l 1,34,-1
 172 130 l 1,35,-1
 518 1266 l 1,24,-1
EndSplineSet
EndChar

StartChar: uni018F
Encoding: 399 399 197
Width: 1442
GlyphClass: 1
Flags: W
LayerCount: 2
Fore
SplineSet
183 683 m 1,0,-1
 1270 683 l 1,1,-1
 1236 551 l 1,2,-1
 316 551 l 1,3,-1
 365 606 l 1,4,5
 348 547 348 547 339 494 c 128,-1,6
 330 441 330 441 330 395 c 0,7,8
 330 259 330 259 404.5 188 c 128,-1,9
 479 117 479 117 631 117 c 0,10,11
 736 117 736 117 824.5 152 c 128,-1,12
 913 187 913 187 982.5 252.5 c 128,-1,13
 1052 318 1052 318 1100.5 407.5 c 128,-1,14
 1149 497 1149 497 1174.5 606.5 c 128,-1,15
 1200 716 1200 716 1200 840 c 0,16,17
 1200 976 1200 976 1151 1066 c 128,-1,18
 1102 1156 1102 1156 1006.5 1200.5 c 128,-1,19
 911 1245 911 1245 770 1245 c 0,20,21
 681 1245 681 1245 602 1230.5 c 128,-1,22
 523 1216 523 1216 447.5 1188 c 128,-1,23
 372 1160 372 1160 293 1118 c 1,24,-1
 306 1220 l 1,25,26
 395 1284 395 1284 490 1327.5 c 128,-1,27
 585 1371 585 1371 678 1393.5 c 128,-1,28
 771 1416 771 1416 854 1416 c 0,29,30
 1022 1416 1022 1416 1144 1351.5 c 128,-1,31
 1266 1287 1266 1287 1333 1167 c 128,-1,32
 1400 1047 1400 1047 1400 881 c 0,33,34
 1400 732 1400 732 1361.5 597 c 128,-1,35
 1323 462 1323 462 1251.5 349 c 128,-1,36
 1180 236 1180 236 1082.5 153.5 c 128,-1,37
 985 71 985 71 866.5 25.5 c 128,-1,38
 748 -20 748 -20 615 -20 c 0,39,40
 461 -20 461 -20 356.5 32 c 128,-1,41
 252 84 252 84 198.5 182.5 c 128,-1,42
 145 281 145 281 145 421 c 0,43,44
 145 480 145 480 154.5 545.5 c 128,-1,45
 164 611 164 611 183 683 c 1,0,-1
EndSplineSet
EndChar

StartChar: a
Encoding: 97 97 204
Width: 1215
GlyphClass: 2
Flags: W
AnchorPoint: "Anchor-4" 443 0 basechar 0
AnchorPoint: "Anchor-3" 1005 0 basechar 0
AnchorPoint: "Anchor-0" 781 981 basechar 0
LayerCount: 2
Fore
SplineSet
693 80 m 2,0,-1
 836 465 l 1,1,-1
 824 465 l 1,2,3
 723 314 723 314 644.5 219 c 128,-1,4
 566 124 566 124 503 72 c 128,-1,5
 440 20 440 20 387 0.5 c 128,-1,6
 334 -19 334 -19 284 -19 c 0,7,8
 211 -19 211 -19 155.5 7.5 c 128,-1,9
 100 34 100 34 69 86 c 128,-1,10
 38 138 38 138 38 215 c 0,11,12
 38 307 38 307 71.5 413 c 128,-1,13
 105 519 105 519 165.5 622 c 128,-1,14
 226 725 226 725 308.5 810 c 128,-1,15
 391 895 391 895 490.5 946 c 128,-1,16
 590 997 590 997 700 997 c 0,17,18
 793 997 793 997 849 950.5 c 128,-1,19
 905 904 905 904 930 818 c 1,20,-1
 918 758 l 1,21,22
 884 829 884 829 833.5 859.5 c 128,-1,23
 783 890 783 890 722 890 c 0,24,25
 638 890 638 890 562 845.5 c 128,-1,26
 486 801 486 801 423 727.5 c 128,-1,27
 360 654 360 654 313.5 567.5 c 128,-1,28
 267 481 267 481 242 396 c 128,-1,29
 217 311 217 311 217 244 c 0,30,31
 217 179 217 179 254 146.5 c 128,-1,32
 291 114 291 114 352 114 c 0,33,34
 404 114 404 114 476.5 163.5 c 128,-1,35
 549 213 549 213 624.5 295.5 c 128,-1,36
 700 378 700 378 765.5 481 c 128,-1,37
 831 584 831 584 870 692 c 2,38,-1
 923 845 l 1,39,-1
 1044 981 l 1,40,-1
 1140 981 l 1,41,-1
 826 75 l 1,42,-1
 788 133 l 1,43,44
 832 128 832 128 887 137.5 c 128,-1,45
 942 147 942 147 1006.5 174.5 c 128,-1,46
 1071 202 1071 202 1139 249 c 1,47,-1
 1178 187 l 1,48,49
 1033 62 1033 62 934.5 21 c 128,-1,50
 836 -20 836 -20 776 -20 c 256,51,52
 716 -20 716 -20 695 5 c 128,-1,53
 674 30 674 30 693 80 c 2,0,-1
EndSplineSet
Substitution2: "Single Substitution lookup 3 subtable" ordfeminine
EndChar

StartChar: b
Encoding: 98 98 205
Width: 1114
GlyphClass: 2
Flags: W
AnchorPoint: "Anchor-4" 353 0 basechar 0
LayerCount: 2
Fore
SplineSet
287 340 m 2,0,1
 278 311 278 311 273.5 285.5 c 128,-1,2
 269 260 269 260 269 237 c 0,3,4
 269 165 269 165 314.5 124 c 128,-1,5
 360 83 360 83 439 83 c 0,6,7
 506 83 506 83 570 118.5 c 128,-1,8
 634 154 634 154 689 216 c 128,-1,9
 744 278 744 278 786.5 357.5 c 128,-1,10
 829 437 829 437 852.5 525.5 c 128,-1,11
 876 614 876 614 876 702 c 0,12,13
 876 774 876 774 841 814 c 128,-1,14
 806 854 806 854 739 854 c 0,15,16
 695 854 695 854 646 832.5 c 128,-1,17
 597 811 597 811 548.5 772.5 c 128,-1,18
 500 734 500 734 456 681.5 c 128,-1,19
 412 629 412 629 377 567 c 128,-1,20
 342 505 342 505 320 438 c 2,21,-1
 287 340 l 2,0,1
393 1267 m 1,22,23
 374 1277 374 1277 342.5 1291 c 128,-1,24
 311 1305 311 1305 276.5 1320 c 128,-1,25
 242 1335 242 1335 213 1346 c 1,26,-1
 227 1404 l 1,27,-1
 586 1468 l 1,28,-1
 623 1468 l 1,29,-1
 333 626 l 1,30,-1
 348 635 l 1,31,32
 436 770 436 770 518 850.5 c 128,-1,33
 600 931 600 931 675 966 c 128,-1,34
 750 1001 750 1001 816 1001 c 0,35,36
 932 1001 932 1001 995 922 c 128,-1,37
 1058 843 1058 843 1058 730 c 0,38,39
 1058 624 1058 624 1024.5 517 c 128,-1,40
 991 410 991 410 931 313.5 c 128,-1,41
 871 217 871 217 790 142 c 128,-1,42
 709 67 709 67 614 23.5 c 128,-1,43
 519 -20 519 -20 415 -20 c 0,44,45
 262 -20 262 -20 183 47.5 c 128,-1,46
 104 115 104 115 104 233 c 0,47,48
 104 264 104 264 110 299 c 128,-1,49
 116 334 116 334 127 371 c 2,50,-1
 393 1267 l 1,22,23
EndSplineSet
EndChar

StartChar: c
Encoding: 99 99 206
Width: 944
GlyphClass: 2
Flags: W
AnchorPoint: "Anchor-4" 396 0 basechar 0
AnchorPoint: "Anchor-3" 660 0 basechar 0
AnchorPoint: "Anchor-0" 623 981 basechar 0
LayerCount: 2
Fore
SplineSet
619 896 m 0,0,1
 539 896 539 896 472 853 c 128,-1,2
 405 810 405 810 355.5 734 c 128,-1,3
 306 658 306 658 279 559 c 128,-1,4
 252 460 252 460 252 349 c 0,5,6
 252 219 252 219 300.5 169 c 128,-1,7
 349 119 349 119 445 119 c 0,8,9
 504 119 504 119 557.5 139 c 128,-1,10
 611 159 611 159 660 203.5 c 128,-1,11
 709 248 709 248 752 323 c 1,12,-1
 843 323 l 1,13,14
 790 209 790 209 726.5 132.5 c 128,-1,15
 663 56 663 56 583 18 c 128,-1,16
 503 -20 503 -20 401 -20 c 0,17,18
 241 -20 241 -20 158.5 60 c 128,-1,19
 76 140 76 140 76 305 c 0,20,21
 76 451 76 451 121 577 c 128,-1,22
 166 703 166 703 246.5 798.5 c 128,-1,23
 327 894 327 894 436 947.5 c 128,-1,24
 545 1001 545 1001 673 1001 c 0,25,26
 800 1001 800 1001 868.5 955 c 128,-1,27
 937 909 937 909 937 842 c 0,28,29
 937 793 937 793 901 760 c 128,-1,30
 865 727 865 727 823 727 c 0,31,32
 805 727 805 727 781.5 749 c 128,-1,33
 758 771 758 771 727 811 c 0,34,35
 696 853 696 853 669 874.5 c 128,-1,36
 642 896 642 896 619 896 c 0,0,1
EndSplineSet
EndChar

StartChar: d
Encoding: 100 100 207
Width: 1213
GlyphClass: 2
Flags: W
AnchorPoint: "Anchor-4" 465 0 basechar 0
AnchorPoint: "Anchor-3" 1287 1448 basechar 0
AnchorPoint: "Anchor-1" 1060 1173 basechar 0
LayerCount: 2
Fore
SplineSet
921 761 m 1,0,1
 887 831 887 831 836.5 862 c 128,-1,2
 786 893 786 893 724 893 c 0,3,4
 640 893 640 893 564 848.5 c 128,-1,5
 488 804 488 804 424.5 730 c 128,-1,6
 361 656 361 656 314.5 569.5 c 128,-1,7
 268 483 268 483 242.5 397.5 c 128,-1,8
 217 312 217 312 217 245 c 0,9,10
 217 179 217 179 254 146.5 c 128,-1,11
 291 114 291 114 352 114 c 0,12,13
 396 114 396 114 454 148.5 c 128,-1,14
 512 183 512 183 576 243 c 128,-1,15
 640 303 640 303 701 383 c 128,-1,16
 762 463 762 463 812 556 c 128,-1,17
 862 649 862 649 892 746 c 2,18,-1
 1053 1267 l 1,19,20
 1035 1277 1035 1277 1004 1291 c 128,-1,21
 973 1305 973 1305 938 1320 c 128,-1,22
 903 1335 903 1335 874 1346 c 1,23,-1
 888 1404 l 1,24,-1
 1248 1468 l 1,25,-1
 1285 1468 l 1,26,-1
 828 75 l 1,27,-1
 791 133 l 1,28,29
 835 128 835 128 890 137.5 c 128,-1,30
 945 147 945 147 1009 174.5 c 128,-1,31
 1073 202 1073 202 1141 249 c 1,32,-1
 1181 187 l 1,33,34
 1036 62 1036 62 937 21 c 128,-1,35
 838 -20 838 -20 779 -20 c 0,36,37
 719 -20 719 -20 698 5 c 128,-1,38
 677 30 677 30 696 80 c 2,39,-1
 839 465 l 1,40,-1
 826 465 l 1,41,42
 726 314 726 314 647 218.5 c 128,-1,43
 568 123 568 123 505 71.5 c 128,-1,44
 442 20 442 20 388 0.5 c 128,-1,45
 334 -19 334 -19 284 -19 c 0,46,47
 211 -19 211 -19 156 7.5 c 128,-1,48
 101 34 101 34 70 86 c 128,-1,49
 39 138 39 138 39 216 c 0,50,51
 39 308 39 308 72 414 c 128,-1,52
 105 520 105 520 166 623.5 c 128,-1,53
 227 727 227 727 310 812 c 128,-1,54
 393 897 393 897 492.5 948.5 c 128,-1,55
 592 1000 592 1000 703 1000 c 0,56,57
 796 1000 796 1000 852 953.5 c 128,-1,58
 908 907 908 907 933 821 c 1,59,-1
 921 761 l 1,0,1
EndSplineSet
EndChar

StartChar: e
Encoding: 101 101 208
Width: 978
GlyphClass: 2
Flags: W
AnchorPoint: "Anchor-4" 404 0 basechar 0
AnchorPoint: "Anchor-3" 692 0 basechar 0
AnchorPoint: "Anchor-0" 626 981 basechar 0
LayerCount: 2
Fore
SplineSet
632 895 m 0,0,1
 569 895 569 895 512 867.5 c 128,-1,2
 455 840 455 840 407.5 790 c 128,-1,3
 360 740 360 740 325.5 671.5 c 128,-1,4
 291 603 291 603 271.5 521 c 128,-1,5
 252 439 252 439 252 349 c 0,6,7
 252 219 252 219 299.5 169 c 128,-1,8
 347 119 347 119 443 119 c 0,9,10
 503 119 503 119 558.5 139.5 c 128,-1,11
 614 160 614 160 664 204.5 c 128,-1,12
 714 249 714 249 758 323 c 1,13,-1
 849 323 l 1,14,15
 787 194 787 194 716.5 119 c 128,-1,16
 646 44 646 44 566.5 12 c 128,-1,17
 487 -20 487 -20 399 -20 c 0,18,19
 292 -20 292 -20 220.5 16 c 128,-1,20
 149 52 149 52 113 124 c 128,-1,21
 77 196 77 196 77 305 c 0,22,23
 77 426 77 426 107 532 c 128,-1,24
 137 638 137 638 192.5 724 c 128,-1,25
 248 810 248 810 322.5 872 c 128,-1,26
 397 934 397 934 486 967.5 c 128,-1,27
 575 1001 575 1001 672 1001 c 0,28,29
 768 1001 768 1001 826 969.5 c 128,-1,30
 884 938 884 938 910.5 885 c 128,-1,31
 937 832 937 832 937 767 c 0,32,33
 937 718 937 718 920.5 666.5 c 128,-1,34
 904 615 904 615 877 578 c 1,35,36
 797 553 797 553 714.5 531 c 128,-1,37
 632 509 632 509 550 491.5 c 128,-1,38
 468 474 468 474 389 459.5 c 128,-1,39
 310 445 310 445 236 434 c 1,40,-1
 242 526 l 1,41,42
 392 553 392 553 489.5 575.5 c 128,-1,43
 587 598 587 598 644.5 618.5 c 128,-1,44
 702 639 702 639 729 660.5 c 128,-1,45
 756 682 756 682 763.5 707 c 128,-1,46
 771 732 771 732 771 762 c 0,47,48
 771 803 771 803 755 832.5 c 128,-1,49
 739 862 739 862 708.5 878.5 c 128,-1,50
 678 895 678 895 632 895 c 0,0,1
EndSplineSet
EndChar

StartChar: f
Encoding: 102 102 209
Width: 743
GlyphClass: 2
Flags: W
AnchorPoint: "Anchor-4" -26 -461 basechar 0
LayerCount: 2
Fore
SplineSet
136 873 m 1,0,-1
 139 981 l 1,1,-1
 837 981 l 1,2,-1
 833 873 l 1,3,-1
 136 873 l 1,0,-1
413 210 m 2,4,5
 376 31 376 31 323 -99.5 c 128,-1,6
 270 -230 270 -230 201 -315 c 128,-1,7
 132 -400 132 -400 47 -440.5 c 128,-1,8
 -38 -481 -38 -481 -137 -481 c 0,9,10
 -234 -481 -234 -481 -282.5 -441.5 c 128,-1,11
 -331 -402 -331 -402 -331 -337 c 0,12,13
 -331 -281 -331 -281 -295.5 -250 c 128,-1,14
 -260 -219 -260 -219 -185 -219 c 1,15,16
 -175 -261 -175 -261 -165 -291 c 128,-1,17
 -155 -321 -155 -321 -140 -341 c 0,18,19
 -124 -361 -124 -361 -103 -368.5 c 128,-1,20
 -82 -376 -82 -376 -53 -376 c 0,21,22
 -10 -376 -10 -376 29.5 -355 c 128,-1,23
 69 -334 69 -334 104.5 -284 c 128,-1,24
 140 -234 140 -234 170 -148.5 c 128,-1,25
 200 -63 200 -63 225 65 c 2,26,-1
 399 972 l 2,27,28
 428 1123 428 1123 500.5 1234.5 c 128,-1,29
 573 1346 573 1346 683 1407 c 128,-1,30
 793 1468 793 1468 936 1468 c 0,31,32
 1021 1468 1021 1468 1078.5 1450 c 128,-1,33
 1136 1432 1136 1432 1165 1400.5 c 128,-1,34
 1194 1369 1194 1369 1194 1327 c 0,35,36
 1194 1271 1194 1271 1156 1239 c 128,-1,37
 1118 1207 1118 1207 1038 1207 c 1,38,39
 1024 1257 1024 1257 1010.5 1292 c 128,-1,40
 997 1327 997 1327 979 1345 c 0,41,42
 960 1364 960 1364 938 1370.5 c 128,-1,43
 916 1377 916 1377 884 1377 c 0,44,45
 805 1377 805 1377 746 1343.5 c 128,-1,46
 687 1310 687 1310 647 1239 c 128,-1,47
 607 1168 607 1168 584 1057 c 2,48,-1
 413 210 l 2,4,5
EndSplineSet
EndChar

StartChar: g
Encoding: 103 103 210
Width: 1001
GlyphClass: 2
Flags: W
AnchorPoint: "Anchor-4" 357 -466 basechar 0
AnchorPoint: "Anchor-0" 570 981 basechar 0
LayerCount: 2
Fore
SplineSet
1027 830 m 0,0,1
 1016 830 1016 830 1000.5 835.5 c 128,-1,2
 985 841 985 841 961 849.5 c 128,-1,3
 937 858 937 858 901 868 c 128,-1,4
 865 878 865 878 814 889 c 128,-1,5
 763 900 763 900 692 910 c 1,6,-1
 677 983 l 1,7,8
 763 980 763 980 847.5 982.5 c 128,-1,9
 932 985 932 985 999 988 c 128,-1,10
 1066 991 1066 991 1098 991 c 0,11,12
 1110 991 1110 991 1115.5 986.5 c 128,-1,13
 1121 982 1121 982 1121 971 c 0,14,15
 1121 956 1121 956 1110.5 932.5 c 128,-1,16
 1100 909 1100 909 1084 885.5 c 128,-1,17
 1068 862 1068 862 1052.5 846 c 128,-1,18
 1037 830 1037 830 1027 830 c 0,0,1
428 411 m 0,19,20
 475 411 475 411 518 428.5 c 128,-1,21
 561 446 561 446 596 477.5 c 128,-1,22
 631 509 631 509 657 551.5 c 128,-1,23
 683 594 683 594 697 644.5 c 128,-1,24
 711 695 711 695 711 750 c 0,25,26
 711 828 711 828 679.5 866.5 c 128,-1,27
 648 905 648 905 575 905 c 0,28,29
 528 905 528 905 485.5 888 c 128,-1,30
 443 871 443 871 407.5 839.5 c 128,-1,31
 372 808 372 808 346.5 765.5 c 128,-1,32
 321 723 321 723 307 672.5 c 128,-1,33
 293 622 293 622 293 566 c 0,34,35
 293 488 293 488 324.5 448.5 c 128,-1,36
 356 409 356 409 428 411 c 0,19,20
586 1001 m 0,37,38
 692 1001 692 1001 755 967.5 c 128,-1,39
 818 934 818 934 846.5 878 c 128,-1,40
 875 822 875 822 875 754 c 0,41,42
 875 668 875 668 839.5 588.5 c 128,-1,43
 804 509 804 509 741 447.5 c 128,-1,44
 678 386 678 386 595 350.5 c 128,-1,45
 512 315 512 315 418 315 c 0,46,47
 313 315 313 315 249 348.5 c 128,-1,48
 185 382 185 382 156.5 438 c 128,-1,49
 128 494 128 494 128 561 c 0,50,51
 128 649 128 649 164 728 c 128,-1,52
 200 807 200 807 263 868.5 c 128,-1,53
 326 930 326 930 408.5 965.5 c 128,-1,54
 491 1001 491 1001 586 1001 c 0,37,38
353 -480 m 0,55,56
 230 -480 230 -480 141 -462 c 128,-1,57
 52 -444 52 -444 -5 -411.5 c 128,-1,58
 -62 -379 -62 -379 -89.5 -334 c 128,-1,59
 -117 -289 -117 -289 -117 -237 c 0,60,61
 -117 -173 -117 -173 -83.5 -127 c 128,-1,62
 -50 -81 -50 -81 25.5 -48.5 c 128,-1,63
 101 -16 101 -16 229 6 c 1,64,-1
 261 71 l 1,65,-1
 413 -12 l 1,66,67
 310 -13 310 -13 241 -27 c 128,-1,68
 172 -41 172 -41 130.5 -66.5 c 128,-1,69
 89 -92 89 -92 71.5 -127 c 128,-1,70
 54 -162 54 -162 54 -206 c 0,71,72
 54 -258 54 -258 86.5 -297.5 c 128,-1,73
 119 -337 119 -337 191.5 -359 c 128,-1,74
 264 -381 264 -381 381 -381 c 0,75,76
 488 -381 488 -381 560 -357 c 128,-1,77
 632 -333 632 -333 668 -293 c 128,-1,78
 704 -253 704 -253 704 -206 c 0,79,80
 704 -171 704 -171 688 -145.5 c 128,-1,81
 672 -120 672 -120 633 -100 c 128,-1,82
 594 -80 594 -80 526.5 -62.5 c 128,-1,83
 459 -45 459 -45 356 -26 c 0,84,85
 233 -3 233 -3 174 27.5 c 128,-1,86
 115 58 115 58 97.5 94 c 128,-1,87
 80 130 80 130 80 167 c 0,88,89
 80 225 80 225 117.5 259.5 c 128,-1,90
 155 294 155 294 223 314.5 c 128,-1,91
 291 335 291 335 380 349 c 1,92,-1
 406 321 l 1,93,94
 309 315 309 315 271 292 c 128,-1,95
 233 269 233 269 233 232 c 0,96,97
 233 213 233 213 241.5 198.5 c 128,-1,98
 250 184 250 184 275.5 170.5 c 128,-1,99
 301 157 301 157 352 143.5 c 128,-1,100
 403 130 403 130 487 112 c 0,101,102
 634 83 634 83 716.5 43.5 c 128,-1,103
 799 4 799 4 831.5 -48.5 c 128,-1,104
 864 -101 864 -101 864 -169 c 0,105,106
 864 -238 864 -238 832 -294.5 c 128,-1,107
 800 -351 800 -351 735.5 -393 c 128,-1,108
 671 -435 671 -435 576 -457.5 c 128,-1,109
 481 -480 481 -480 353 -480 c 0,55,56
EndSplineSet
EndChar

StartChar: h
Encoding: 104 104 211
Width: 1214
GlyphClass: 2
Flags: W
AnchorPoint: "Anchor-4" 451 0 basechar 0
AnchorPoint: "Anchor-1" 519 1173 basechar 0
LayerCount: 2
Fore
SplineSet
288 240 m 2,0,-1
 212 0 l 1,1,-1
 34 0 l 1,2,-1
 415 1267 l 1,3,4
 397 1277 397 1277 366 1291 c 128,-1,5
 335 1305 335 1305 300 1320 c 128,-1,6
 265 1335 265 1335 236 1346 c 1,7,-1
 250 1404 l 1,8,-1
 610 1468 l 1,9,-1
 647 1468 l 1,10,-1
 290 469 l 1,11,-1
 314 470 l 1,12,13
 387 612 387 612 457.5 713 c 128,-1,14
 528 814 528 814 598.5 877.5 c 128,-1,15
 669 941 669 941 741.5 970.5 c 128,-1,16
 814 1000 814 1000 891 1000 c 0,17,18
 992 1000 992 1000 1037.5 953 c 128,-1,19
 1083 906 1083 906 1083 835 c 0,20,21
 1083 797 1083 797 1070 745.5 c 128,-1,22
 1057 694 1057 694 1023 613 c 2,23,-1
 801 82 l 1,24,-1
 786 137 l 1,25,26
 830 135 830 135 881.5 147 c 128,-1,27
 933 159 933 159 993 184.5 c 128,-1,28
 1053 210 1053 210 1120 250 c 1,29,-1
 1163 185 l 1,30,31
 1064 105 1064 105 982 60 c 128,-1,32
 900 15 900 15 835 -2.5 c 128,-1,33
 770 -20 770 -20 717 -20 c 0,34,35
 653 -20 653 -20 632.5 7 c 128,-1,36
 612 34 612 34 641 103 c 2,37,-1
 871 656 l 2,38,39
 891 702 891 702 898.5 730.5 c 128,-1,40
 906 759 906 759 906 779 c 0,41,42
 906 810 906 810 883 828 c 128,-1,43
 860 846 860 846 810 846 c 0,44,45
 739 846 739 846 664 799.5 c 128,-1,46
 589 753 589 753 518 670 c 128,-1,47
 447 587 447 587 387.5 477 c 128,-1,48
 328 367 328 367 288 240 c 2,0,-1
EndSplineSet
EndChar

StartChar: i
Encoding: 105 105 212
Width: 690
GlyphClass: 2
Flags: W
AnchorPoint: "Anchor-4" 218 0 basechar 0
AnchorPoint: "Anchor-3" 354 0 basechar 0
AnchorPoint: "Anchor-0" 635 1410 basechar 0
LayerCount: 2
Fore
SplineSet
127 116 m 2,0,-1
 425 895 l 1,1,-1
 461 843 l 1,2,3
 419 845 419 845 365 833 c 128,-1,4
 311 821 311 821 246.5 791 c 128,-1,5
 182 761 182 761 107 710 c 1,6,-1
 62 774 l 1,7,8
 172 871 172 871 254.5 919.5 c 128,-1,9
 337 968 337 968 398 984.5 c 128,-1,10
 459 1001 459 1001 502 1001 c 0,11,12
 564 1001 564 1001 585.5 970.5 c 128,-1,13
 607 940 607 940 578 865 c 2,14,-1
 280 82 l 1,15,-1
 247 138 l 1,16,17
 291 134 291 134 344 144 c 128,-1,18
 397 154 397 154 457 179 c 128,-1,19
 517 204 517 204 580 247 c 1,20,-1
 621 182 l 1,21,22
 525 102 525 102 448 58 c 128,-1,23
 371 14 371 14 309.5 -3 c 128,-1,24
 248 -20 248 -20 200 -20 c 0,25,26
 132 -20 132 -20 113.5 7 c 128,-1,27
 95 34 95 34 127 116 c 2,0,-1
464 1317 m 0,28,29
 464 1360 464 1360 483.5 1393.5 c 128,-1,30
 503 1427 503 1427 539.5 1446.5 c 128,-1,31
 576 1466 576 1466 628 1466 c 0,32,33
 695 1466 695 1466 729.5 1435.5 c 128,-1,34
 764 1405 764 1405 764 1356 c 0,35,36
 764 1312 764 1312 745 1278.5 c 128,-1,37
 726 1245 726 1245 689.5 1225.5 c 128,-1,38
 653 1206 653 1206 601 1206 c 0,39,40
 533 1206 533 1206 498.5 1236.5 c 128,-1,41
 464 1267 464 1267 464 1317 c 0,28,29
EndSplineSet
EndChar

StartChar: j
Encoding: 106 106 213
Width: 618
GlyphClass: 2
Flags: W
AnchorPoint: "Anchor-4" -79 -461 basechar 0
AnchorPoint: "Anchor-0" 588 1410 basechar 0
LayerCount: 2
Fore
SplineSet
439 1317 m 0,0,1
 439 1360 439 1360 458.5 1393.5 c 128,-1,2
 478 1427 478 1427 514.5 1446.5 c 128,-1,3
 551 1466 551 1466 603 1466 c 0,4,5
 670 1466 670 1466 704.5 1435.5 c 128,-1,6
 739 1405 739 1405 739 1356 c 0,7,8
 739 1312 739 1312 719.5 1278.5 c 128,-1,9
 700 1245 700 1245 664 1225.5 c 128,-1,10
 628 1206 628 1206 576 1206 c 0,11,12
 508 1206 508 1206 473.5 1236.5 c 128,-1,13
 439 1267 439 1267 439 1317 c 0,0,1
336 146 m 2,14,15
 276 -55 276 -55 186 -195.5 c 128,-1,16
 96 -336 96 -336 -11 -408.5 c 128,-1,17
 -118 -481 -118 -481 -230 -481 c 0,18,19
 -310 -481 -310 -481 -345 -444 c 128,-1,20
 -380 -407 -380 -407 -380 -353 c 0,21,22
 -380 -301 -380 -301 -347 -268.5 c 128,-1,23
 -314 -236 -314 -236 -279 -236 c 0,24,25
 -273 -236 -273 -236 -253.5 -252.5 c 128,-1,26
 -234 -269 -234 -269 -205 -295 c 0,27,28
 -176 -320 -176 -320 -157.5 -330.5 c 128,-1,29
 -139 -341 -139 -341 -126 -341 c 0,30,31
 -93 -341 -93 -341 -61 -325.5 c 128,-1,32
 -29 -310 -29 -310 5.5 -265.5 c 128,-1,33
 40 -221 40 -221 78 -134 c 128,-1,34
 116 -47 116 -47 159 95 c 2,35,-1
 400 895 l 1,36,-1
 435 843 l 1,37,38
 400 845 400 845 349.5 832 c 128,-1,39
 299 819 299 819 234.5 787.5 c 128,-1,40
 170 756 170 756 90 701 c 1,41,-1
 45 765 l 1,42,43
 146 855 146 855 225 906.5 c 128,-1,44
 304 958 304 958 365.5 979.5 c 128,-1,45
 427 1001 427 1001 476 1001 c 0,46,47
 517 1001 517 1001 538.5 988 c 128,-1,48
 560 975 560 975 563 945.5 c 128,-1,49
 566 916 566 916 551 865 c 2,50,-1
 336 146 l 2,14,15
EndSplineSet
EndChar

StartChar: k
Encoding: 107 107 214
Width: 1133
GlyphClass: 2
Flags: W
AnchorPoint: "Anchor-4" 453 0 basechar 0
LayerCount: 2
Fore
SplineSet
646 1468 m 1,0,-1
 199 0 l 1,1,-1
 31 0 l 1,2,-1
 419 1268 l 1,3,4
 401 1277 401 1277 370 1291.5 c 128,-1,5
 339 1306 339 1306 304 1320.5 c 128,-1,6
 269 1335 269 1335 240 1346 c 1,7,-1
 254 1404 l 1,8,-1
 609 1468 l 1,9,-1
 646 1468 l 1,0,-1
355 548 m 1,10,-1
 361 566 l 1,11,12
 499 696 499 696 597.5 780.5 c 128,-1,13
 696 865 696 865 767.5 913.5 c 128,-1,14
 839 962 839 962 896.5 981.5 c 128,-1,15
 954 1001 954 1001 1011 1001 c 0,16,17
 1082 1001 1082 1001 1116.5 967 c 128,-1,18
 1151 933 1151 933 1151 884 c 0,19,20
 1151 828 1151 828 1124.5 793.5 c 128,-1,21
 1098 759 1098 759 1062.5 743.5 c 128,-1,22
 1027 728 1027 728 999 728 c 0,23,24
 991 728 991 728 978.5 746 c 128,-1,25
 966 764 966 764 949 789 c 0,26,27
 934 814 934 814 919.5 830 c 128,-1,28
 905 846 905 846 893 846 c 0,29,30
 871 846 871 846 837.5 831.5 c 128,-1,31
 804 817 804 817 753 783.5 c 128,-1,32
 702 750 702 750 630.5 693 c 128,-1,33
 559 636 559 636 461 550 c 1,34,-1
 498 622 l 1,35,36
 567 466 567 466 614.5 368 c 128,-1,37
 662 270 662 270 694.5 216 c 128,-1,38
 727 162 727 162 753 141.5 c 128,-1,39
 779 121 779 121 805 121 c 0,40,41
 830 121 830 121 859 138 c 128,-1,42
 888 155 888 155 925.5 191 c 128,-1,43
 963 227 963 227 1011 279 c 1,44,-1
 1062 232 l 1,45,46
 984 134 984 134 923.5 79 c 128,-1,47
 863 24 863 24 817 2 c 128,-1,48
 771 -20 771 -20 733 -20 c 0,49,50
 692 -20 692 -20 653.5 7 c 128,-1,51
 615 34 615 34 572 98 c 128,-1,52
 529 162 529 162 476.5 272 c 128,-1,53
 424 382 424 382 355 548 c 1,10,-1
EndSplineSet
EndChar

StartChar: l
Encoding: 108 108 215
Width: 630
GlyphClass: 2
Flags: W
AnchorPoint: "Anchor-4" 178 0 basechar 0
AnchorPoint: "Anchor-3" 661 1448 basechar 0
LayerCount: 2
Fore
SplineSet
432 1267 m 1,0,1
 414 1277 414 1277 382.5 1291 c 128,-1,2
 351 1305 351 1305 316.5 1320 c 128,-1,3
 282 1335 282 1335 253 1346 c 1,4,-1
 267 1404 l 1,5,-1
 621 1468 l 1,6,-1
 659 1468 l 1,7,-1
 234 84 l 1,8,-1
 205 138 l 1,9,10
 248 134 248 134 301.5 144 c 128,-1,11
 355 154 355 154 415 179 c 128,-1,12
 475 204 475 204 538 247 c 1,13,-1
 578 182 l 1,14,15
 483 102 483 102 405.5 58 c 128,-1,16
 328 14 328 14 267 -3 c 128,-1,17
 206 -20 206 -20 158 -20 c 0,18,19
 91 -20 91 -20 72.5 6 c 128,-1,20
 54 32 54 32 80 116 c 2,21,-1
 432 1267 l 1,0,1
EndSplineSet
EndChar

StartChar: m
Encoding: 109 109 216
Width: 1846
GlyphClass: 2
Flags: W
AnchorPoint: "Anchor-4" 790 0 basechar 0
AnchorPoint: "Anchor-0" 1092 981 basechar 0
LayerCount: 2
Fore
SplineSet
1433 82 m 1,0,-1
 1418 137 l 1,1,2
 1462 135 1462 135 1514 147 c 128,-1,3
 1566 159 1566 159 1625.5 184.5 c 128,-1,4
 1685 210 1685 210 1752 250 c 1,5,-1
 1795 185 l 1,6,7
 1696 105 1696 105 1614.5 60 c 128,-1,8
 1533 15 1533 15 1467.5 -2.5 c 128,-1,9
 1402 -20 1402 -20 1349 -20 c 0,10,11
 1285 -20 1285 -20 1264.5 7 c 128,-1,12
 1244 34 1244 34 1273 103 c 2,13,-1
 1504 657 l 2,14,15
 1523 703 1523 703 1530.5 731 c 128,-1,16
 1538 759 1538 759 1538 778 c 0,17,18
 1538 810 1538 810 1518 828 c 128,-1,19
 1498 846 1498 846 1449 846 c 0,20,21
 1380 846 1380 846 1309.5 800 c 128,-1,22
 1239 754 1239 754 1173 674 c 128,-1,23
 1107 594 1107 594 1051 489 c 128,-1,24
 995 384 995 384 954 266 c 2,25,-1
 865 0 l 1,26,-1
 685 0 l 1,27,-1
 906 657 l 2,28,29
 917 688 917 688 923.5 710.5 c 128,-1,30
 930 733 930 733 932.5 749 c 128,-1,31
 935 765 935 765 935 778 c 0,32,33
 935 810 935 810 914.5 828 c 128,-1,34
 894 846 894 846 845 846 c 0,35,36
 781 846 781 846 714.5 799.5 c 128,-1,37
 648 753 648 753 585.5 670 c 128,-1,38
 523 587 523 587 468.5 476.5 c 128,-1,39
 414 366 414 366 374 240 c 2,40,-1
 298 0 l 1,41,-1
 119 0 l 1,42,-1
 373 841 l 1,43,44
 371 841 371 841 368 841 c 128,-1,45
 365 841 365 841 362 841 c 0,46,47
 305 841 305 841 256 827 c 128,-1,48
 207 813 207 813 165 781 c 128,-1,49
 123 749 123 749 85 695 c 1,50,-1
 68 701 l 1,51,52
 101 819 101 819 154 884.5 c 128,-1,53
 207 950 207 950 279.5 975.5 c 128,-1,54
 352 1001 352 1001 442 1001 c 0,55,56
 458 1001 458 1001 474.5 1000 c 128,-1,57
 491 999 491 999 507.5 997.5 c 128,-1,58
 524 996 524 996 541 993 c 1,59,-1
 372 470 l 1,60,-1
 398 470 l 1,61,62
 473 625 473 625 540.5 728 c 128,-1,63
 608 831 608 831 670 890.5 c 128,-1,64
 732 950 732 950 790.5 975.5 c 128,-1,65
 849 1001 849 1001 906 1001 c 0,66,67
 995 1001 995 1001 1031 960.5 c 128,-1,68
 1067 920 1067 920 1067 859 c 0,69,70
 1067 814 1067 814 1053 761 c 128,-1,71
 1039 708 1039 708 1010 621 c 2,72,-1
 964 482 l 1,73,-1
 989 482 l 1,74,75
 1061 630 1061 630 1129 730 c 128,-1,76
 1197 830 1197 830 1263.5 889.5 c 128,-1,77
 1330 949 1330 949 1396 975 c 128,-1,78
 1462 1001 1462 1001 1531 1001 c 0,79,80
 1627 1001 1627 1001 1671 955.5 c 128,-1,81
 1715 910 1715 910 1715 839 c 0,82,83
 1715 801 1715 801 1702.5 748.5 c 128,-1,84
 1690 696 1690 696 1654 613 c 2,85,-1
 1433 82 l 1,0,-1
EndSplineSet
EndChar

StartChar: n
Encoding: 110 110 217
Width: 1299
GlyphClass: 2
Flags: W
AnchorPoint: "Anchor-4" 532 0 basechar 0
AnchorPoint: "Anchor-0" 794 981 basechar 0
LayerCount: 2
Fore
SplineSet
85 695 m 1,0,-1
 68 701 l 1,1,2
 101 819 101 819 154 884.5 c 128,-1,3
 207 950 207 950 279.5 975.5 c 128,-1,4
 352 1001 352 1001 442 1001 c 0,5,6
 458 1001 458 1001 474.5 1000 c 128,-1,7
 491 999 491 999 507.5 997.5 c 128,-1,8
 524 996 524 996 541 993 c 1,9,-1
 370 463 l 1,10,-1
 397 463 l 1,11,12
 470 607 470 607 540.5 709 c 128,-1,13
 611 811 611 811 682 875.5 c 128,-1,14
 753 940 753 940 826.5 970 c 128,-1,15
 900 1000 900 1000 977 1000 c 0,16,17
 1078 1000 1078 1000 1123 953 c 128,-1,18
 1168 906 1168 906 1168 835 c 0,19,20
 1168 797 1168 797 1155.5 745.5 c 128,-1,21
 1143 694 1143 694 1109 613 c 2,22,-1
 887 82 l 1,23,-1
 872 137 l 1,24,25
 916 135 916 135 967.5 147 c 128,-1,26
 1019 159 1019 159 1079 184.5 c 128,-1,27
 1139 210 1139 210 1206 250 c 1,28,-1
 1249 185 l 1,29,30
 1149 105 1149 105 1067.5 60 c 128,-1,31
 986 15 986 15 920.5 -2.5 c 128,-1,32
 855 -20 855 -20 803 -20 c 0,33,34
 739 -20 739 -20 718 7 c 128,-1,35
 697 34 697 34 727 103 c 2,36,-1
 957 656 l 2,37,38
 976 702 976 702 984 730.5 c 128,-1,39
 992 759 992 759 992 779 c 0,40,41
 992 810 992 810 969 828 c 128,-1,42
 946 846 946 846 895 846 c 0,43,44
 825 846 825 846 750 799.5 c 128,-1,45
 675 753 675 753 604 670 c 128,-1,46
 533 587 533 587 473.5 477 c 128,-1,47
 414 367 414 367 374 240 c 2,48,-1
 298 0 l 1,49,-1
 119 0 l 1,50,-1
 373 841 l 1,51,52
 371 841 371 841 368 841 c 128,-1,53
 365 841 365 841 362 841 c 0,54,55
 305 841 305 841 256 827 c 128,-1,56
 207 813 207 813 165 781 c 128,-1,57
 123 749 123 749 85 695 c 1,0,-1
EndSplineSet
EndChar

StartChar: o
Encoding: 111 111 218
Width: 1090
GlyphClass: 2
Flags: W
AnchorPoint: "Anchor-4" 386 0 basechar 0
AnchorPoint: "Anchor-3" 481 0 basechar 0
AnchorPoint: "Anchor-2" 853 981 basechar 0
AnchorPoint: "Anchor-0" 689 981 basechar 0
LayerCount: 2
Fore
SplineSet
663 1001 m 0,0,1
 776 1001 776 1001 853.5 958.5 c 128,-1,2
 931 916 931 916 971.5 841 c 128,-1,3
 1012 766 1012 766 1012 666 c 0,4,5
 1012 528 1012 528 967 404.5 c 128,-1,6
 922 281 922 281 841.5 185.5 c 128,-1,7
 761 90 761 90 654.5 35 c 128,-1,8
 548 -20 548 -20 424 -20 c 0,9,10
 312 -20 312 -20 234 22.5 c 128,-1,11
 156 65 156 65 116 140.5 c 128,-1,12
 76 216 76 216 76 316 c 0,13,14
 76 453 76 453 120.5 576.5 c 128,-1,15
 165 700 165 700 245.5 796 c 128,-1,16
 326 892 326 892 432.5 946.5 c 128,-1,17
 539 1001 539 1001 663 1001 c 0,0,1
429 93 m 0,18,19
 501 93 501 93 563.5 125.5 c 128,-1,20
 626 158 626 158 675.5 215.5 c 128,-1,21
 725 273 725 273 760 349 c 128,-1,22
 795 425 795 425 814 512 c 128,-1,23
 833 599 833 599 833 689 c 0,24,25
 833 785 833 785 787.5 836.5 c 128,-1,26
 742 888 742 888 658 888 c 0,27,28
 586 888 586 888 524 855.5 c 128,-1,29
 462 823 462 823 412.5 765.5 c 128,-1,30
 363 708 363 708 327.5 632 c 128,-1,31
 292 556 292 556 273 469.5 c 128,-1,32
 254 383 254 383 254 292 c 0,33,34
 254 197 254 197 300 145 c 128,-1,35
 346 93 346 93 429 93 c 0,18,19
EndSplineSet
Substitution2: "Single Substitution lookup 3 subtable" ordmasculine
EndChar

StartChar: p
Encoding: 112 112 219
Width: 1219
GlyphClass: 2
Flags: W
AnchorPoint: "Anchor-4" 73 -461 basechar 0
AnchorPoint: "Anchor-0" 762 981 basechar 0
LayerCount: 2
Fore
SplineSet
365 287 m 2,0,1
 359 266 359 266 357.5 250.5 c 128,-1,2
 356 235 356 235 356 222 c 0,3,4
 356 162 356 162 402.5 120.5 c 128,-1,5
 449 79 449 79 547 79 c 0,6,7
 617 79 617 79 680 113.5 c 128,-1,8
 743 148 743 148 796 207.5 c 128,-1,9
 849 267 849 267 887.5 343 c 128,-1,10
 926 419 926 419 947 502.5 c 128,-1,11
 968 586 968 586 968 668 c 0,12,13
 968 770 968 770 930 813.5 c 128,-1,14
 892 857 892 857 820 857 c 0,15,16
 772 857 772 857 720.5 830.5 c 128,-1,17
 669 804 669 804 619 758 c 128,-1,18
 569 712 569 712 525 655.5 c 128,-1,19
 481 599 481 599 449.5 539.5 c 128,-1,20
 418 480 418 480 403 425 c 2,21,-1
 365 287 l 2,0,1
276 132 m 1,22,-1
 330 132 l 1,23,-1
 189 -345 l 1,24,-1
 376 -387 l 1,25,-1
 352 -461 l 1,26,-1
 -159 -461 l 1,27,-1
 -136 -387 l 1,28,-1
 20 -345 l 1,29,-1
 371 841 l 1,30,31
 370 841 370 841 367.5 841 c 128,-1,32
 365 841 365 841 363 841 c 0,33,34
 305 841 305 841 256 827 c 128,-1,35
 207 813 207 813 165 781 c 128,-1,36
 123 749 123 749 85 695 c 1,37,-1
 68 701 l 1,38,39
 101 819 101 819 154 884.5 c 128,-1,40
 207 950 207 950 279 975.5 c 128,-1,41
 351 1001 351 1001 440 1001 c 0,42,43
 464 1001 464 1001 488.5 999 c 128,-1,44
 513 997 513 997 539 994 c 1,45,-1
 424 624 l 1,46,-1
 440 632 l 1,47,48
 520 764 520 764 597.5 845 c 128,-1,49
 675 926 675 926 749 963.5 c 128,-1,50
 823 1001 823 1001 892 1001 c 0,51,52
 1022 1001 1022 1001 1087.5 920 c 128,-1,53
 1153 839 1153 839 1153 714 c 0,54,55
 1153 603 1153 603 1122.5 495.5 c 128,-1,56
 1092 388 1092 388 1036.5 295 c 128,-1,57
 981 202 981 202 904.5 131 c 128,-1,58
 828 60 828 60 735.5 20 c 128,-1,59
 643 -20 643 -20 540 -20 c 0,60,61
 439 -20 439 -20 366.5 19 c 128,-1,62
 294 58 294 58 276 132 c 1,22,-1
EndSplineSet
EndChar

StartChar: q
Encoding: 113 113 220
Width: 1134
GlyphClass: 2
Flags: W
AnchorPoint: "Anchor-4" 606 -461 basechar 0
AnchorPoint: "Anchor-0" 751 981 basechar 0
LayerCount: 2
Fore
SplineSet
555 -346 m 1,0,-1
 780 354 l 1,1,-1
 767 354 l 1,2,3
 683 234 683 234 614 159.5 c 128,-1,4
 545 85 545 85 486.5 46.5 c 128,-1,5
 428 8 428 8 378.5 -5.5 c 128,-1,6
 329 -19 329 -19 284 -19 c 0,7,8
 211 -19 211 -19 155.5 7.5 c 128,-1,9
 100 34 100 34 69 86 c 128,-1,10
 38 138 38 138 38 215 c 0,11,12
 38 307 38 307 71.5 413 c 128,-1,13
 105 519 105 519 165.5 622 c 128,-1,14
 226 725 226 725 308.5 810 c 128,-1,15
 391 895 391 895 490.5 946 c 128,-1,16
 590 997 590 997 700 997 c 0,17,18
 793 997 793 997 849 950.5 c 128,-1,19
 905 904 905 904 930 818 c 1,20,-1
 918 758 l 1,21,22
 884 829 884 829 833.5 859.5 c 128,-1,23
 783 890 783 890 722 890 c 0,24,25
 638 890 638 890 562 845.5 c 128,-1,26
 486 801 486 801 423 727.5 c 128,-1,27
 360 654 360 654 313.5 567.5 c 128,-1,28
 267 481 267 481 242 396 c 128,-1,29
 217 311 217 311 217 244 c 0,30,31
 217 179 217 179 255 146.5 c 128,-1,32
 293 114 293 114 356 114 c 0,33,34
 412 114 412 114 483.5 155 c 128,-1,35
 555 196 555 196 626 266.5 c 128,-1,36
 697 337 697 337 757 429 c 128,-1,37
 817 521 817 521 851 624 c 2,38,-1
 916 825 l 1,39,-1
 997 981 l 1,40,-1
 1119 981 l 1,41,-1
 725 -345 l 1,42,-1
 877 -387 l 1,43,-1
 855 -461 l 1,44,-1
 335 -461 l 1,45,-1
 356 -387 l 1,46,-1
 555 -346 l 1,0,-1
EndSplineSet
EndChar

StartChar: r
Encoding: 114 114 221
Width: 961
GlyphClass: 2
Flags: W
AnchorPoint: "Anchor-4" 209 0 basechar 0
AnchorPoint: "Anchor-0" 631 981 basechar 0
LayerCount: 2
Fore
SplineSet
373 841 m 1,0,1
 371 841 371 841 368 841 c 128,-1,2
 365 841 365 841 362 841 c 0,3,4
 305 841 305 841 256 827 c 128,-1,5
 207 813 207 813 165 781 c 128,-1,6
 123 749 123 749 85 695 c 1,7,-1
 68 701 l 1,8,9
 101 819 101 819 154 884.5 c 128,-1,10
 207 950 207 950 279.5 975.5 c 128,-1,11
 352 1001 352 1001 442 1001 c 0,12,13
 458 1001 458 1001 475 1000 c 128,-1,14
 492 999 492 999 510 997.5 c 128,-1,15
 528 996 528 996 545 993 c 1,16,-1
 392 529 l 1,17,-1
 418 529 l 1,18,19
 514 707 514 707 594.5 810 c 128,-1,20
 675 913 675 913 749 957 c 128,-1,21
 823 1001 823 1001 897 1001 c 0,22,23
 973 1001 973 1001 1006.5 967.5 c 128,-1,24
 1040 934 1040 934 1040 888 c 0,25,26
 1040 834 1040 834 1014 798 c 128,-1,27
 988 762 988 762 955 744 c 128,-1,28
 922 726 922 726 902 726 c 0,29,30
 897 726 897 726 881 741 c 128,-1,31
 865 756 865 756 845 775 c 0,32,33
 825 795 825 795 806 810.5 c 128,-1,34
 787 826 787 826 776 826 c 0,35,36
 742 826 742 826 700 795.5 c 128,-1,37
 658 765 658 765 613.5 711.5 c 128,-1,38
 569 658 569 658 525.5 586.5 c 128,-1,39
 482 515 482 515 444.5 432.5 c 128,-1,40
 407 350 407 350 380 264 c 2,41,-1
 297 0 l 1,42,-1
 118 0 l 1,43,-1
 373 841 l 1,0,1
EndSplineSet
EndChar

StartChar: s
Encoding: 115 115 222
Width: 879
GlyphClass: 2
Flags: W
AnchorPoint: "Anchor-4" 350 0 basechar 0
AnchorPoint: "Anchor-0" 558 981 basechar 0
LayerCount: 2
Fore
SplineSet
194 277 m 1,0,1
 206 217 206 217 218 181 c 128,-1,2
 230 145 230 145 250 121 c 0,3,4
 270 96 270 96 292 88 c 128,-1,5
 314 80 314 80 346 80 c 0,6,7
 412 80 412 80 468 100.5 c 128,-1,8
 524 121 524 121 557.5 161 c 128,-1,9
 591 201 591 201 591 259 c 0,10,11
 591 297 591 297 575.5 328.5 c 128,-1,12
 560 360 560 360 518.5 391 c 128,-1,13
 477 422 477 422 398 457 c 0,14,15
 319 493 319 493 275 530 c 128,-1,16
 231 567 231 567 213.5 608.5 c 128,-1,17
 196 650 196 650 196 698 c 0,18,19
 196 789 196 789 244.5 857 c 128,-1,20
 293 925 293 925 381 963 c 128,-1,21
 469 1001 469 1001 588 1001 c 0,22,23
 669 1001 669 1001 726 983 c 128,-1,24
 783 965 783 965 813.5 931.5 c 128,-1,25
 844 898 844 898 844 848 c 0,26,27
 844 814 844 814 826 787.5 c 128,-1,28
 808 761 808 761 775 745.5 c 128,-1,29
 742 730 742 730 695 730 c 1,30,31
 682 779 682 779 668.5 809 c 128,-1,32
 655 839 655 839 636 861 c 0,33,34
 616 882 616 882 593 890 c 128,-1,35
 570 898 570 898 538 898 c 0,36,37
 452 898 452 898 394 860.5 c 128,-1,38
 336 823 336 823 336 760 c 0,39,40
 336 729 336 729 350 702 c 128,-1,41
 364 675 364 675 406 645 c 128,-1,42
 448 615 448 615 530 573 c 0,43,44
 614 533 614 533 657.5 489 c 128,-1,45
 701 445 701 445 717 398 c 128,-1,46
 733 351 733 351 733 299 c 0,47,48
 733 202 733 202 676 130 c 128,-1,49
 619 58 619 58 521.5 19 c 128,-1,50
 424 -20 424 -20 302 -20 c 0,51,52
 203 -20 203 -20 142.5 3 c 128,-1,53
 82 26 82 26 54 65 c 128,-1,54
 26 104 26 104 26 150 c 0,55,56
 26 189 26 189 41 217.5 c 128,-1,57
 56 246 56 246 93 261.5 c 128,-1,58
 130 277 130 277 194 277 c 1,0,1
EndSplineSet
EndChar

StartChar: t
Encoding: 116 116 223
Width: 771
GlyphClass: 2
Flags: W
AnchorPoint: "Anchor-4" 314 0 basechar 0
AnchorPoint: "Anchor-3" 682 1481 basechar 0
LayerCount: 2
Fore
SplineSet
148 873 m 1,0,-1
 155 981 l 1,1,-1
 809 981 l 1,2,-1
 805 873 l 1,3,-1
 148 873 l 1,0,-1
357 281 m 2,4,5
 349 255 349 255 343.5 233.5 c 128,-1,6
 338 212 338 212 334.5 195.5 c 128,-1,7
 331 179 331 179 331 169 c 0,8,9
 331 146 331 146 339 138 c 128,-1,10
 347 130 347 130 364 130 c 0,11,12
 387 130 387 130 422.5 145 c 128,-1,13
 458 160 458 160 508.5 196.5 c 128,-1,14
 559 233 559 233 626 295 c 1,15,-1
 677 235 l 1,16,17
 612 168 612 168 554 119.5 c 128,-1,18
 496 71 496 71 445 40.5 c 128,-1,19
 394 10 394 10 350.5 -4.5 c 128,-1,20
 307 -19 307 -19 270 -19 c 0,21,22
 219 -19 219 -19 189.5 11.5 c 128,-1,23
 160 42 160 42 160 106 c 0,24,25
 160 134 160 134 168 175 c 128,-1,26
 176 216 176 216 196 282 c 2,27,-1
 467 1181 l 1,28,-1
 630 1181 l 1,29,-1
 357 281 l 2,4,5
EndSplineSet
EndChar

StartChar: u
Encoding: 117 117 224
Width: 1265
GlyphClass: 2
Flags: W
AnchorPoint: "Anchor-4" 510 0 basechar 0
AnchorPoint: "Anchor-3" 1040 0 basechar 0
AnchorPoint: "Anchor-2" 1129 981 basechar 0
AnchorPoint: "Anchor-0" 742 981 basechar 0
LayerCount: 2
Fore
SplineSet
753 76 m 2,0,-1
 877 448 l 1,1,-1
 856 448 l 1,2,3
 770 295 770 295 699.5 202 c 128,-1,4
 629 109 629 109 569 61 c 128,-1,5
 509 13 509 13 453.5 -3.5 c 128,-1,6
 398 -20 398 -20 342 -20 c 0,7,8
 238 -20 238 -20 190.5 25.5 c 128,-1,9
 143 71 143 71 143 141 c 0,10,11
 143 177 143 177 155.5 230.5 c 128,-1,12
 168 284 168 284 206 382 c 2,13,-1
 409 900 l 1,14,-1
 438 843 l 1,15,16
 396 846 396 846 342 831 c 128,-1,17
 288 816 288 816 226.5 784.5 c 128,-1,18
 165 753 165 753 97 702 c 1,19,-1
 51 767 l 1,20,21
 158 864 158 864 240 914.5 c 128,-1,22
 322 965 322 965 384.5 983 c 128,-1,23
 447 1001 447 1001 493 1001 c 0,24,25
 553 1001 553 1001 574 969.5 c 128,-1,26
 595 938 595 938 565 863 c 2,27,-1
 342 294 l 2,28,29
 329 262 329 262 321.5 235.5 c 128,-1,30
 314 209 314 209 314 190 c 0,31,32
 314 157 314 157 339 140 c 128,-1,33
 364 123 364 123 406 123 c 0,34,35
 446 123 446 123 499.5 145 c 128,-1,36
 553 167 553 167 613 219.5 c 128,-1,37
 673 272 673 272 732 362 c 128,-1,38
 791 452 791 452 842 588 c 2,39,-1
 989 981 l 1,40,-1
 1168 981 l 1,41,-1
 877 77 l 1,42,-1
 844 133 l 1,43,44
 887 128 887 128 942.5 138 c 128,-1,45
 998 148 998 148 1062 175 c 128,-1,46
 1126 202 1126 202 1194 249 c 1,47,-1
 1233 187 l 1,48,49
 1089 61 1089 61 990 20.5 c 128,-1,50
 891 -20 891 -20 832 -20 c 0,51,52
 774 -20 774 -20 755 3.5 c 128,-1,53
 736 27 736 27 753 76 c 2,0,-1
EndSplineSet
EndChar

StartChar: v
Encoding: 118 118 225
Width: 1131
GlyphClass: 2
Flags: W
AnchorPoint: "Anchor-4" 424 0 basechar 0
AnchorPoint: "Anchor-0" 703 981 basechar 0
LayerCount: 2
Fore
SplineSet
1074 809 m 0,0,1
 1074 678 1074 678 1037 556 c 128,-1,2
 1000 434 1000 434 935 329.5 c 128,-1,3
 870 225 870 225 785 146.5 c 128,-1,4
 700 68 700 68 604 24 c 128,-1,5
 508 -20 508 -20 408 -20 c 0,6,7
 289 -20 289 -20 227 29.5 c 128,-1,8
 165 79 165 79 165 168 c 0,9,10
 165 224 165 224 189 292 c 2,11,-1
 381 841 l 1,12,13
 379 841 379 841 376 841 c 128,-1,14
 373 841 373 841 370 841 c 0,15,16
 313 841 313 841 264 827 c 128,-1,17
 215 813 215 813 173 781 c 128,-1,18
 131 749 131 749 93 695 c 1,19,-1
 76 701 l 1,20,21
 104 790 104 790 141.5 848 c 128,-1,22
 179 906 179 906 228.5 939.5 c 128,-1,23
 278 973 278 973 340 987 c 128,-1,24
 402 1001 402 1001 478 1001 c 0,25,26
 497 1001 497 1001 516 1000 c 128,-1,27
 535 999 535 999 555 997.5 c 128,-1,28
 575 996 575 996 595 993 c 1,29,-1
 347 277 l 2,30,31
 340 255 340 255 336 236.5 c 128,-1,32
 332 218 332 218 332 202 c 0,33,34
 332 156 332 156 365.5 135.5 c 128,-1,35
 399 115 399 115 463 115 c 256,36,37
 527 115 527 115 592.5 145.5 c 128,-1,38
 658 176 658 176 717.5 229.5 c 128,-1,39
 777 283 777 283 824 351 c 128,-1,40
 871 419 871 419 898.5 495 c 128,-1,41
 926 571 926 571 926 646 c 0,42,43
 926 698 926 698 903 730.5 c 128,-1,44
 880 763 880 763 850 784.5 c 128,-1,45
 820 806 820 806 797 822.5 c 128,-1,46
 774 839 774 839 774 860 c 0,47,48
 774 927 774 927 820 964 c 128,-1,49
 866 1001 866 1001 924 1001 c 0,50,51
 992 1001 992 1001 1033 951.5 c 128,-1,52
 1074 902 1074 902 1074 809 c 0,0,1
EndSplineSet
EndChar

StartChar: w
Encoding: 119 119 226
Width: 1612
GlyphClass: 2
Flags: W
AnchorPoint: "Anchor-4" 692 0 basechar 0
AnchorPoint: "Anchor-0" 982 981 basechar 0
LayerCount: 2
Fore
SplineSet
925 981 m 1,0,-1
 1088 981 l 1,1,-1
 878 274 l 2,2,3
 871 251 871 251 867.5 232 c 128,-1,4
 864 213 864 213 864 198 c 0,5,6
 864 152 864 152 891 133.5 c 128,-1,7
 918 115 918 115 966 115 c 0,8,9
 1029 115 1029 115 1091 146.5 c 128,-1,10
 1153 178 1153 178 1209 232 c 128,-1,11
 1265 286 1265 286 1308 355 c 128,-1,12
 1351 424 1351 424 1376 499 c 128,-1,13
 1401 574 1401 574 1401 646 c 0,14,15
 1401 698 1401 698 1378.5 730.5 c 128,-1,16
 1356 763 1356 763 1325.5 784.5 c 128,-1,17
 1295 806 1295 806 1272.5 822.5 c 128,-1,18
 1250 839 1250 839 1250 860 c 0,19,20
 1250 927 1250 927 1295.5 964 c 128,-1,21
 1341 1001 1341 1001 1399 1001 c 0,22,23
 1445 1001 1445 1001 1478.5 979 c 128,-1,24
 1512 957 1512 957 1530.5 914.5 c 128,-1,25
 1549 872 1549 872 1549 809 c 0,26,27
 1549 682 1549 682 1516.5 560.5 c 128,-1,28
 1484 439 1484 439 1425.5 334 c 128,-1,29
 1367 229 1367 229 1290.5 149.5 c 128,-1,30
 1214 70 1214 70 1126 25 c 128,-1,31
 1038 -20 1038 -20 946 -20 c 0,32,33
 858 -20 858 -20 810.5 16 c 128,-1,34
 763 52 763 52 763 133 c 0,35,36
 763 161 763 161 769.5 195.5 c 128,-1,37
 776 230 776 230 789 270 c 2,38,-1
 839 423 l 1,39,-1
 820 423 l 1,40,41
 768 299 768 299 713.5 214 c 128,-1,42
 659 129 659 129 602.5 77.5 c 128,-1,43
 546 26 546 26 488 3 c 128,-1,44
 430 -20 430 -20 370 -20 c 0,45,46
 274 -20 274 -20 219.5 29 c 128,-1,47
 165 78 165 78 165 167 c 0,48,49
 165 226 165 226 190 299 c 2,50,-1
 380 841 l 1,51,52
 376 841 376 841 374.5 841 c 128,-1,53
 373 841 373 841 369 841 c 0,54,55
 312 841 312 841 263 827 c 128,-1,56
 214 813 214 813 172 781 c 128,-1,57
 130 749 130 749 92 695 c 1,58,-1
 75 701 l 1,59,60
 103 790 103 790 140.5 848 c 128,-1,61
 178 906 178 906 227.5 939.5 c 128,-1,62
 277 973 277 973 339 987 c 128,-1,63
 401 1001 401 1001 477 1001 c 0,64,65
 496 1001 496 1001 515 1000 c 128,-1,66
 534 999 534 999 554 997.5 c 128,-1,67
 574 996 574 996 594 993 c 1,68,-1
 345 274 l 2,69,70
 337 250 337 250 333 229.5 c 128,-1,71
 329 209 329 209 329 193 c 0,72,73
 329 151 329 151 355 133 c 128,-1,74
 381 115 381 115 431 115 c 0,75,76
 493 115 493 115 560 158.5 c 128,-1,77
 627 202 627 202 688.5 296 c 128,-1,78
 750 390 750 390 795 542 c 2,79,-1
 925 981 l 1,0,-1
EndSplineSet
EndChar

StartChar: x
Encoding: 120 120 227
Width: 1181
GlyphClass: 2
Flags: W
AnchorPoint: "Anchor-4" 437 0 basechar 0
AnchorPoint: "Anchor-0" 733 981 basechar 0
LayerCount: 2
Fore
SplineSet
637 474 m 1,0,-1
 577 423 l 1,1,-1
 372 164 l 2,2,3
 316 95 316 95 269.5 54.5 c 128,-1,4
 223 14 223 14 179.5 -3 c 128,-1,5
 136 -20 136 -20 90 -20 c 0,6,7
 17 -20 17 -20 -19.5 16 c 128,-1,8
 -56 52 -56 52 -56 101 c 0,9,10
 -56 148 -56 148 -33 182 c 128,-1,11
 -10 216 -10 216 19.5 235 c 128,-1,12
 49 254 49 254 68 254 c 0,13,14
 75 254 75 254 90 240 c 128,-1,15
 105 226 105 226 123 208 c 256,16,17
 141 190 141 190 157 176.5 c 128,-1,18
 173 163 173 163 180 163 c 0,19,20
 199 163 199 163 228.5 179 c 128,-1,21
 258 195 258 195 299 233 c 128,-1,22
 340 271 340 271 392 335 c 2,23,-1
 547 524 l 1,24,-1
 603 569 l 1,25,-1
 794 818 l 2,26,27
 849 887 849 887 895.5 927 c 128,-1,28
 942 967 942 967 985.5 984 c 128,-1,29
 1029 1001 1029 1001 1075 1001 c 0,30,31
 1148 1001 1148 1001 1184.5 965.5 c 128,-1,32
 1221 930 1221 930 1221 880 c 0,33,34
 1221 834 1221 834 1198 799.5 c 128,-1,35
 1175 765 1175 765 1146 746 c 128,-1,36
 1117 727 1117 727 1098 727 c 0,37,38
 1092 727 1092 727 1076 740.5 c 128,-1,39
 1060 754 1060 754 1042 773 c 0,40,41
 1025 792 1025 792 1009 805 c 128,-1,42
 993 818 993 818 986 818 c 0,43,44
 967 818 967 818 936 802.5 c 128,-1,45
 905 787 905 787 865 749.5 c 128,-1,46
 825 712 825 712 774 646 c 2,47,-1
 637 474 l 1,0,-1
1109 257 m 1,48,49
 1015 145 1015 145 944.5 85 c 128,-1,50
 874 25 874 25 821.5 2.5 c 128,-1,51
 769 -20 769 -20 730 -20 c 0,52,53
 700 -20 700 -20 680 -10 c 128,-1,54
 660 0 660 0 646.5 23.5 c 128,-1,55
 633 47 633 47 622 88 c 2,56,-1
 430 812 l 2,57,58
 425 833 425 833 421 840.5 c 128,-1,59
 417 848 417 848 407 848 c 0,60,61
 375 848 375 848 311 792 c 128,-1,62
 247 736 247 736 181 632 c 1,63,-1
 116 670 l 1,64,65
 180 793 180 793 240.5 865.5 c 128,-1,66
 301 938 301 938 356 969.5 c 128,-1,67
 411 1001 411 1001 458 1001 c 0,68,69
 491 1001 491 1001 511.5 991 c 128,-1,70
 532 981 532 981 546 957 c 128,-1,71
 560 933 560 933 570 893 c 2,72,-1
 759 180 l 2,73,74
 769 146 769 146 774 136.5 c 128,-1,75
 779 127 779 127 790 127 c 0,76,77
 809 127 809 127 848 144 c 128,-1,78
 887 161 887 161 941.5 199.5 c 128,-1,79
 996 238 996 238 1060 303 c 1,80,-1
 1109 257 l 1,48,49
EndSplineSet
EndChar

StartChar: y
Encoding: 121 121 228
Width: 1151
GlyphClass: 2
Flags: W
AnchorPoint: "Anchor-4" 838 -139 basechar 0
AnchorPoint: "Anchor-0" 670 981 basechar 0
LayerCount: 2
Fore
SplineSet
121 560 m 1,0,-1
 47 590 l 1,1,2
 97 721 97 721 145.5 802.5 c 128,-1,3
 194 884 194 884 238 927 c 128,-1,4
 282 970 282 970 321 985.5 c 128,-1,5
 360 1001 360 1001 392 1001 c 0,6,7
 416 1001 416 1001 433 989.5 c 128,-1,8
 450 978 450 978 465 949 c 128,-1,9
 480 920 480 920 498 868 c 256,10,11
 516 816 516 816 547 697 c 128,-1,12
 578 578 578 578 615 389.5 c 128,-1,13
 652 201 652 201 688 -61 c 1,14,-1
 540 -167 l 1,15,16
 514 7 514 7 490 142.5 c 128,-1,17
 466 278 466 278 445.5 379.5 c 128,-1,18
 425 481 425 481 408.5 552.5 c 128,-1,19
 392 624 392 624 380 671 c 0,20,21
 364 733 364 733 354 764 c 128,-1,22
 344 795 344 795 337 805.5 c 128,-1,23
 330 816 330 816 320 816 c 0,24,25
 305 816 305 816 274.5 789.5 c 128,-1,26
 244 763 244 763 204.5 707 c 128,-1,27
 165 651 165 651 121 560 c 1,0,-1
578 -53 m 1,28,-1
 631 -7 l 1,29,30
 691 82 691 82 743 183.5 c 128,-1,31
 795 285 795 285 836 404.5 c 128,-1,32
 877 524 877 524 903 667.5 c 128,-1,33
 929 811 929 811 938 983 c 1,34,35
 977 994 977 994 1003 997 c 128,-1,36
 1029 1000 1029 1000 1057 1000 c 0,37,38
 1093 999 1093 999 1114 985.5 c 128,-1,39
 1135 972 1135 972 1131 944 c 0,40,41
 1116 854 1116 854 1094 767.5 c 128,-1,42
 1072 681 1072 681 1042.5 595 c 128,-1,43
 1013 509 1013 509 973.5 421.5 c 128,-1,44
 934 334 934 334 884 241.5 c 128,-1,45
 834 149 834 149 773 50 c 0,46,47
 670 -115 670 -115 556 -234 c 128,-1,48
 442 -353 442 -353 327.5 -417 c 128,-1,49
 213 -481 213 -481 108 -481 c 0,50,51
 26 -481 26 -481 -8.5 -440.5 c 128,-1,52
 -43 -400 -43 -400 -43 -344 c 0,53,54
 -43 -291 -43 -291 -10.5 -258.5 c 128,-1,55
 22 -226 22 -226 58 -226 c 0,56,57
 64 -226 64 -226 81.5 -240.5 c 128,-1,58
 99 -255 99 -255 124 -278 c 0,59,60
 149 -300 149 -300 172.5 -315.5 c 128,-1,61
 196 -331 196 -331 211 -331 c 0,62,63
 252 -331 252 -331 310.5 -301.5 c 128,-1,64
 369 -272 369 -272 438 -210.5 c 128,-1,65
 507 -149 507 -149 578 -53 c 1,28,-1
EndSplineSet
EndChar

StartChar: z
Encoding: 122 122 229
Width: 1036
GlyphClass: 2
Flags: W
AnchorPoint: "Anchor-4" 401 0 basechar 0
AnchorPoint: "Anchor-0" 629 981 basechar 0
LayerCount: 2
Fore
SplineSet
15 43 m 1,0,-1
 961 1011 l 1,1,-1
 1032 939 l 1,2,-1
 88 -25 l 1,3,-1
 15 43 l 1,0,-1
184 647 m 1,4,-1
 109 681 l 1,5,6
 177 805 177 805 235.5 874 c 128,-1,7
 294 943 294 943 347.5 971 c 128,-1,8
 401 999 401 999 451.5 997.5 c 128,-1,9
 502 996 502 996 555 977 c 2,10,-1
 884 858 l 1,11,-1
 760 709 l 1,12,-1
 514 797 l 2,13,14
 456 818 456 818 418 826.5 c 128,-1,15
 380 835 380 835 348.5 822.5 c 128,-1,16
 317 810 317 810 279.5 768.5 c 128,-1,17
 242 727 242 727 184 647 c 1,4,-1
502 10 m 2,18,-1
 225 147 l 1,19,-1
 362 286 l 1,20,-1
 558 185 l 2,21,22
 613 158 613 158 648.5 147.5 c 128,-1,23
 684 137 684 137 717 148 c 128,-1,24
 750 159 750 159 794.5 197 c 128,-1,25
 839 235 839 235 911 304 c 1,26,-1
 962 252 l 1,27,28
 871 143 871 143 805.5 81.5 c 128,-1,29
 740 20 740 20 689 -2.5 c 128,-1,30
 638 -25 638 -25 593.5 -19.5 c 128,-1,31
 549 -14 549 -14 502 10 c 2,18,-1
EndSplineSet
EndChar

StartChar: aogonek
Encoding: 261 261 238
Width: 1220
GlyphClass: 1
Flags: W
LayerCount: 2
Fore
SplineSet
1178 187 m 1,0,1
 1145 153 1145 153 1110 117.5 c 128,-1,2
 1075 82 1075 82 1035 44 c 2,3,-1
 878 -104 l 2,4,5
 823 -156 823 -156 796 -191.5 c 128,-1,6
 769 -227 769 -227 760 -254 c 128,-1,7
 751 -281 751 -281 751 -307 c 0,8,9
 751 -342 751 -342 773 -362.5 c 128,-1,10
 795 -383 795 -383 837 -383 c 0,11,12
 866 -383 866 -383 895.5 -374 c 128,-1,13
 925 -365 925 -365 971 -336 c 1,14,-1
 975 -391 l 1,15,16
 909 -442 909 -442 860.5 -461.5 c 128,-1,17
 812 -481 812 -481 759 -481 c 0,18,19
 692 -481 692 -481 658 -444.5 c 128,-1,20
 624 -408 624 -408 624 -354 c 0,21,22
 624 -317 624 -317 638.5 -280.5 c 128,-1,23
 653 -244 653 -244 692 -197.5 c 128,-1,24
 731 -151 731 -151 806 -85 c 2,25,-1
 963 51 l 1,26,-1
 970 37 l 1,27,28
 906 4 906 4 857.5 -8 c 128,-1,29
 809 -20 809 -20 776 -20 c 0,30,31
 716 -20 716 -20 695 5 c 128,-1,32
 674 30 674 30 693 80 c 2,33,-1
 836 465 l 1,34,-1
 824 465 l 1,35,36
 723 314 723 314 644.5 219 c 128,-1,37
 566 124 566 124 503 72 c 128,-1,38
 440 20 440 20 387 0.5 c 128,-1,39
 334 -19 334 -19 284 -19 c 0,40,41
 211 -19 211 -19 155.5 7.5 c 128,-1,42
 100 34 100 34 69 86 c 128,-1,43
 38 138 38 138 38 215 c 0,44,45
 38 307 38 307 71.5 413 c 128,-1,46
 105 519 105 519 165.5 622 c 128,-1,47
 226 725 226 725 308.5 810 c 128,-1,48
 391 895 391 895 490.5 946 c 128,-1,49
 590 997 590 997 700 997 c 0,50,51
 793 997 793 997 849 950.5 c 128,-1,52
 905 904 905 904 930 818 c 1,53,-1
 918 758 l 1,54,55
 884 829 884 829 833.5 859.5 c 128,-1,56
 783 890 783 890 722 890 c 0,57,58
 638 890 638 890 562 845.5 c 128,-1,59
 486 801 486 801 423 727.5 c 128,-1,60
 360 654 360 654 313.5 567.5 c 128,-1,61
 267 481 267 481 242 396 c 128,-1,62
 217 311 217 311 217 244 c 0,63,64
 217 179 217 179 254 146.5 c 128,-1,65
 291 114 291 114 352 114 c 0,66,67
 404 114 404 114 476.5 163.5 c 128,-1,68
 549 213 549 213 624.5 295.5 c 128,-1,69
 700 378 700 378 765.5 481 c 128,-1,70
 831 584 831 584 870 692 c 2,71,-1
 923 845 l 1,72,-1
 1044 981 l 1,73,-1
 1140 981 l 1,74,-1
 826 75 l 1,75,-1
 788 133 l 1,76,77
 832 128 832 128 887 137.5 c 128,-1,78
 942 147 942 147 1006.5 174.5 c 128,-1,79
 1071 202 1071 202 1139 249 c 1,80,-1
 1178 187 l 1,0,1
EndSplineSet
EndChar

StartChar: ae
Encoding: 230 230 254
Width: 1692
GlyphClass: 2
Flags: W
AnchorPoint: "Anchor-4" 705 0 basechar 0
AnchorPoint: "Anchor-0" 1006 981 basechar 0
LayerCount: 2
Fore
SplineSet
1094 847 m 1,0,-1
 1056 841 l 1,1,2
 1126 914 1126 914 1215 957.5 c 128,-1,3
 1304 1001 1304 1001 1408 1001 c 0,4,5
 1496 1001 1496 1001 1549.5 969.5 c 128,-1,6
 1603 938 1603 938 1627 885 c 128,-1,7
 1651 832 1651 832 1651 767 c 0,8,9
 1651 718 1651 718 1634.5 666.5 c 128,-1,10
 1618 615 1618 615 1591 578 c 1,11,12
 1511 553 1511 553 1428.5 531 c 128,-1,13
 1346 509 1346 509 1264 491.5 c 128,-1,14
 1182 474 1182 474 1103 459.5 c 128,-1,15
 1024 445 1024 445 950 434 c 1,16,-1
 956 526 l 1,17,18
 1106 553 1106 553 1203.5 575.5 c 128,-1,19
 1301 598 1301 598 1358.5 618.5 c 128,-1,20
 1416 639 1416 639 1443 660.5 c 128,-1,21
 1470 682 1470 682 1477.5 707 c 128,-1,22
 1485 732 1485 732 1485 762 c 0,23,24
 1485 803 1485 803 1469 832.5 c 128,-1,25
 1453 862 1453 862 1422.5 878.5 c 128,-1,26
 1392 895 1392 895 1346 895 c 0,27,28
 1283 895 1283 895 1226 867.5 c 128,-1,29
 1169 840 1169 840 1121.5 790 c 128,-1,30
 1074 740 1074 740 1039.5 671.5 c 128,-1,31
 1005 603 1005 603 985.5 521 c 128,-1,32
 966 439 966 439 966 349 c 0,33,34
 966 219 966 219 1013.5 169 c 128,-1,35
 1061 119 1061 119 1157 119 c 0,36,37
 1217 119 1217 119 1272.5 139.5 c 128,-1,38
 1328 160 1328 160 1378 204.5 c 128,-1,39
 1428 249 1428 249 1472 323 c 1,40,-1
 1563 323 l 1,41,42
 1501 194 1501 194 1430.5 119 c 128,-1,43
 1360 44 1360 44 1280.5 12 c 128,-1,44
 1201 -20 1201 -20 1113 -20 c 0,45,46
 982 -20 982 -20 904.5 34 c 128,-1,47
 827 88 827 88 809 197.5 c 128,-1,48
 791 307 791 307 839 472 c 1,49,-1
 824 465 l 1,50,51
 723 314 723 314 644.5 219 c 128,-1,52
 566 124 566 124 503 72 c 128,-1,53
 440 20 440 20 387 0.5 c 128,-1,54
 334 -19 334 -19 284 -19 c 0,55,56
 211 -19 211 -19 155.5 7.5 c 128,-1,57
 100 34 100 34 69 86 c 128,-1,58
 38 138 38 138 38 215 c 0,59,60
 38 307 38 307 71.5 413 c 128,-1,61
 105 519 105 519 165.5 622 c 128,-1,62
 226 725 226 725 308.5 810 c 128,-1,63
 391 895 391 895 490.5 946 c 128,-1,64
 590 997 590 997 700 997 c 0,65,66
 793 997 793 997 849 950.5 c 128,-1,67
 905 904 905 904 930 818 c 1,68,-1
 918 758 l 1,69,70
 884 829 884 829 833.5 859.5 c 128,-1,71
 783 890 783 890 722 890 c 0,72,73
 638 890 638 890 562 845.5 c 128,-1,74
 486 801 486 801 423 727.5 c 128,-1,75
 360 654 360 654 313.5 567.5 c 128,-1,76
 267 481 267 481 242 396 c 128,-1,77
 217 311 217 311 217 244 c 0,78,79
 217 179 217 179 254 146.5 c 128,-1,80
 291 114 291 114 352 114 c 0,81,82
 404 114 404 114 476.5 163.5 c 128,-1,83
 549 213 549 213 624.5 295.5 c 128,-1,84
 700 378 700 378 765.5 481 c 128,-1,85
 831 584 831 584 870 692 c 2,86,-1
 923 845 l 1,87,-1
 1021 981 l 1,88,-1
 1118 981 l 1,89,-1
 1094 847 l 1,0,-1
EndSplineSet
EndChar

StartChar: ccedilla
Encoding: 231 231 256
Width: 945
GlyphClass: 1
Flags: W
LayerCount: 2
Fore
SplineSet
203 -481 m 0,0,1
 131 -481 131 -481 102.5 -462.5 c 128,-1,2
 74 -444 74 -444 74 -415 c 0,3,4
 74 -391 74 -391 89 -374.5 c 128,-1,5
 104 -358 104 -358 128 -358 c 0,6,7
 140 -358 140 -358 154 -372 c 128,-1,8
 168 -386 168 -386 188.5 -400 c 128,-1,9
 209 -414 209 -414 243 -414 c 0,10,11
 302 -414 302 -414 335 -384.5 c 128,-1,12
 368 -355 368 -355 368 -308 c 0,13,14
 368 -274 368 -274 329.5 -250 c 128,-1,15
 291 -226 291 -226 188 -209 c 1,16,-1
 194 -190 l 1,17,-1
 396 27 l 1,18,-1
 485 27 l 1,19,-1
 290 -180 l 1,20,-1
 300 -112 l 1,21,22
 408 -134 408 -134 449 -173 c 128,-1,23
 490 -212 490 -212 490 -262 c 0,24,25
 490 -323 490 -323 457 -372.5 c 128,-1,26
 424 -422 424 -422 360 -451.5 c 128,-1,27
 296 -481 296 -481 203 -481 c 0,0,1
619 896 m 0,28,29
 539 896 539 896 472 853 c 128,-1,30
 405 810 405 810 355.5 734 c 128,-1,31
 306 658 306 658 279 559 c 128,-1,32
 252 460 252 460 252 349 c 0,33,34
 252 219 252 219 300.5 169 c 128,-1,35
 349 119 349 119 445 119 c 0,36,37
 504 119 504 119 557.5 139 c 128,-1,38
 611 159 611 159 660 203.5 c 128,-1,39
 709 248 709 248 752 323 c 1,40,-1
 843 323 l 1,41,42
 790 209 790 209 726.5 132.5 c 128,-1,43
 663 56 663 56 583 18 c 128,-1,44
 503 -20 503 -20 401 -20 c 0,45,46
 241 -20 241 -20 158.5 60 c 128,-1,47
 76 140 76 140 76 305 c 0,48,49
 76 451 76 451 121 577 c 128,-1,50
 166 703 166 703 246.5 798.5 c 128,-1,51
 327 894 327 894 436 947.5 c 128,-1,52
 545 1001 545 1001 673 1001 c 0,53,54
 800 1001 800 1001 868.5 955 c 128,-1,55
 937 909 937 909 937 842 c 0,56,57
 937 793 937 793 901 760 c 128,-1,58
 865 727 865 727 823 727 c 0,59,60
 805 727 805 727 781.5 749 c 128,-1,61
 758 771 758 771 727 811 c 0,62,63
 696 853 696 853 669 874.5 c 128,-1,64
 642 896 642 896 619 896 c 0,28,29
EndSplineSet
EndChar

StartChar: dcroat
Encoding: 273 273 262
Width: 1214
GlyphClass: 1
Flags: W
LayerCount: 2
Fore
SplineSet
921 761 m 1,0,1
 887 831 887 831 836.5 862 c 128,-1,2
 786 893 786 893 724 893 c 0,3,4
 640 893 640 893 564 848.5 c 128,-1,5
 488 804 488 804 424.5 730 c 128,-1,6
 361 656 361 656 314.5 569.5 c 128,-1,7
 268 483 268 483 242.5 397.5 c 128,-1,8
 217 312 217 312 217 245 c 0,9,10
 217 179 217 179 254 146.5 c 128,-1,11
 291 114 291 114 352 114 c 0,12,13
 396 114 396 114 454 148.5 c 128,-1,14
 512 183 512 183 576 243 c 128,-1,15
 640 303 640 303 701 383 c 128,-1,16
 762 463 762 463 812 556 c 128,-1,17
 862 649 862 649 892 746 c 2,18,-1
 1053 1267 l 1,19,20
 1044 1273 1044 1273 1031.5 1279 c 128,-1,21
 1019 1285 1019 1285 1003.5 1291.5 c 128,-1,22
 988 1298 988 1298 971.5 1305.5 c 128,-1,23
 955 1313 955 1313 937.5 1320 c 128,-1,24
 920 1327 920 1327 904 1333.5 c 128,-1,25
 888 1340 888 1340 874 1346 c 1,26,-1
 888 1404 l 1,27,-1
 1248 1468 l 1,28,-1
 1285 1468 l 1,29,-1
 828 75 l 1,30,-1
 791 133 l 1,31,32
 835 128 835 128 890 137.5 c 128,-1,33
 945 147 945 147 1009 174.5 c 128,-1,34
 1073 202 1073 202 1141 249 c 1,35,-1
 1181 187 l 1,36,37
 1036 62 1036 62 937 21 c 128,-1,38
 838 -20 838 -20 779 -20 c 0,39,40
 719 -20 719 -20 698 5 c 128,-1,41
 677 30 677 30 696 80 c 2,42,-1
 839 465 l 1,43,-1
 826 465 l 1,44,45
 726 314 726 314 647 218.5 c 128,-1,46
 568 123 568 123 505 71.5 c 128,-1,47
 442 20 442 20 388 0.5 c 128,-1,48
 334 -19 334 -19 284 -19 c 0,49,50
 211 -19 211 -19 156 7.5 c 128,-1,51
 101 34 101 34 70 86 c 128,-1,52
 39 138 39 138 39 216 c 0,53,54
 39 308 39 308 72 414 c 128,-1,55
 105 520 105 520 166 623.5 c 128,-1,56
 227 727 227 727 310 812 c 128,-1,57
 393 897 393 897 492.5 948.5 c 128,-1,58
 592 1000 592 1000 703 1000 c 0,59,60
 796 1000 796 1000 852 953.5 c 128,-1,61
 908 907 908 907 933 821 c 1,62,-1
 921 761 l 1,0,1
702 1118 m 1,63,-1
 736 1229 l 1,64,-1
 1399 1229 l 1,65,-1
 1365 1118 l 1,66,-1
 702 1118 l 1,63,-1
EndSplineSet
EndChar

StartChar: eogonek
Encoding: 281 281 270
Width: 978
GlyphClass: 1
Flags: W
LayerCount: 2
Fore
SplineSet
748 155 m 2,0,-1
 546 -96 l 2,1,2
 502 -151 502 -151 479.5 -191 c 128,-1,3
 457 -231 457 -231 449 -259.5 c 128,-1,4
 441 -288 441 -288 441 -311 c 0,5,6
 441 -345 441 -345 462.5 -364 c 128,-1,7
 484 -383 484 -383 524 -383 c 0,8,9
 553 -383 553 -383 582.5 -374 c 128,-1,10
 612 -365 612 -365 658 -336 c 1,11,-1
 663 -391 l 1,12,13
 596 -442 596 -442 547.5 -461.5 c 128,-1,14
 499 -481 499 -481 446 -481 c 0,15,16
 380 -481 380 -481 347.5 -446 c 128,-1,17
 315 -411 315 -411 315 -357 c 0,18,19
 315 -323 315 -323 326.5 -286.5 c 128,-1,20
 338 -250 338 -250 372 -200.5 c 128,-1,21
 406 -151 406 -151 471 -79 c 2,22,-1
 583 46 l 1,23,-1
 598 26 l 1,24,25
 552 2 552 2 502 -9 c 128,-1,26
 452 -20 452 -20 399 -20 c 0,27,28
 292 -20 292 -20 220.5 16 c 128,-1,29
 149 52 149 52 113 124 c 128,-1,30
 77 196 77 196 77 305 c 0,31,32
 77 426 77 426 107 532 c 128,-1,33
 137 638 137 638 192.5 724 c 128,-1,34
 248 810 248 810 322.5 872 c 128,-1,35
 397 934 397 934 486 967.5 c 128,-1,36
 575 1001 575 1001 673 1001 c 0,37,38
 768 1001 768 1001 826.5 969.5 c 128,-1,39
 885 938 885 938 911.5 885 c 128,-1,40
 938 832 938 832 938 767 c 0,41,42
 938 718 938 718 921 666.5 c 128,-1,43
 904 615 904 615 878 578 c 1,44,45
 797 553 797 553 714.5 531 c 128,-1,46
 632 509 632 509 550 491.5 c 128,-1,47
 468 474 468 474 389 459.5 c 128,-1,48
 310 445 310 445 236 434 c 1,49,-1
 242 526 l 1,50,51
 392 553 392 553 490 575.5 c 128,-1,52
 588 598 588 598 645 618.5 c 128,-1,53
 702 639 702 639 729 660.5 c 128,-1,54
 756 682 756 682 763.5 707 c 128,-1,55
 771 732 771 732 771 762 c 0,56,57
 771 803 771 803 755.5 832.5 c 128,-1,58
 740 862 740 862 709 878.5 c 128,-1,59
 678 895 678 895 632 895 c 0,60,61
 570 895 570 895 512.5 867.5 c 128,-1,62
 455 840 455 840 407.5 790 c 128,-1,63
 360 740 360 740 325.5 671.5 c 128,-1,64
 291 603 291 603 272 521 c 128,-1,65
 253 439 253 439 253 349 c 0,66,67
 253 219 253 219 300 169 c 128,-1,68
 347 119 347 119 443 119 c 0,69,70
 503 119 503 119 558.5 139.5 c 128,-1,71
 614 160 614 160 664 204.5 c 128,-1,72
 714 249 714 249 758 323 c 1,73,-1
 849 323 l 1,74,75
 825 273 825 273 800 231 c 128,-1,76
 775 189 775 189 748 155 c 2,0,-1
EndSplineSet
EndChar

StartChar: hbar
Encoding: 295 295 288
Width: 1214
GlyphClass: 1
Flags: W
LayerCount: 2
Fore
SplineSet
288 240 m 2,0,-1
 212 0 l 1,1,-1
 34 0 l 1,2,-1
 415 1267 l 1,3,4
 402 1274 402 1274 380.5 1284.5 c 128,-1,5
 359 1295 359 1295 334 1306 c 128,-1,6
 309 1317 309 1317 283 1327 c 128,-1,7
 257 1337 257 1337 236 1346 c 1,8,-1
 250 1404 l 1,9,-1
 610 1468 l 1,10,-1
 647 1468 l 1,11,-1
 290 469 l 1,12,-1
 314 470 l 1,13,14
 387 612 387 612 457.5 713 c 128,-1,15
 528 814 528 814 598.5 877.5 c 128,-1,16
 669 941 669 941 741.5 970.5 c 128,-1,17
 814 1000 814 1000 891 1000 c 0,18,19
 992 1000 992 1000 1037.5 953 c 128,-1,20
 1083 906 1083 906 1083 835 c 0,21,22
 1083 797 1083 797 1070 745.5 c 128,-1,23
 1057 694 1057 694 1023 613 c 2,24,-1
 801 82 l 1,25,-1
 786 137 l 1,26,27
 830 135 830 135 881.5 147 c 128,-1,28
 933 159 933 159 993 184.5 c 128,-1,29
 1053 210 1053 210 1120 250 c 1,30,-1
 1163 185 l 1,31,32
 1064 105 1064 105 982 60 c 128,-1,33
 900 15 900 15 835 -2.5 c 128,-1,34
 770 -20 770 -20 717 -20 c 0,35,36
 653 -20 653 -20 632.5 7 c 128,-1,37
 612 34 612 34 641 103 c 2,38,-1
 871 656 l 2,39,40
 891 702 891 702 898.5 730.5 c 128,-1,41
 906 759 906 759 906 779 c 0,42,43
 906 810 906 810 883 828 c 128,-1,44
 860 846 860 846 810 846 c 0,45,46
 739 846 739 846 664 799.5 c 128,-1,47
 589 753 589 753 518 670 c 128,-1,48
 447 587 447 587 387.5 477 c 128,-1,49
 328 367 328 367 288 240 c 2,0,-1
176 1118 m 1,50,-1
 209 1229 l 1,51,-1
 872 1229 l 1,52,-1
 838 1118 l 1,53,-1
 176 1118 l 1,50,-1
EndSplineSet
EndChar

StartChar: dotlessi
Encoding: 305 305 289
Width: 690
GlyphClass: 2
Flags: W
AnchorPoint: "Anchor-4" 225 0 basechar 0
AnchorPoint: "Anchor-3" 358 0 basechar 0
AnchorPoint: "Anchor-0" 499 986 basechar 0
LayerCount: 2
Fore
SplineSet
127 116 m 2,0,-1
 425 895 l 1,1,-1
 461 843 l 1,2,3
 419 845 419 845 365 833 c 128,-1,4
 311 821 311 821 246.5 791 c 128,-1,5
 182 761 182 761 107 710 c 1,6,-1
 62 774 l 1,7,8
 172 871 172 871 254.5 919.5 c 128,-1,9
 337 968 337 968 398 984.5 c 128,-1,10
 459 1001 459 1001 502 1001 c 0,11,12
 564 1001 564 1001 585.5 970.5 c 128,-1,13
 607 940 607 940 578 865 c 2,14,-1
 280 82 l 1,15,-1
 247 138 l 1,16,17
 291 134 291 134 344 144 c 128,-1,18
 397 154 397 154 457 179 c 128,-1,19
 517 204 517 204 580 247 c 1,20,-1
 621 182 l 1,21,22
 525 102 525 102 448 58 c 128,-1,23
 371 14 371 14 309.5 -3 c 128,-1,24
 248 -20 248 -20 200 -20 c 0,25,26
 132 -20 132 -20 113.5 7 c 128,-1,27
 95 34 95 34 127 116 c 2,0,-1
EndSplineSet
Substitution2: "'case' Case-Sensitive Forms in Latin lookup 8 subtable" I
EndChar

StartChar: iogonek
Encoding: 303 303 297
Width: 694
GlyphClass: 1
Flags: W
LayerCount: 2
Fore
SplineSet
464 1317 m 0,0,1
 464 1360 464 1360 483.5 1393.5 c 128,-1,2
 503 1427 503 1427 539.5 1446.5 c 128,-1,3
 576 1466 576 1466 628 1466 c 0,4,5
 695 1466 695 1466 729.5 1435.5 c 128,-1,6
 764 1405 764 1405 764 1356 c 0,7,8
 764 1312 764 1312 745 1278.5 c 128,-1,9
 726 1245 726 1245 689.5 1225.5 c 128,-1,10
 653 1206 653 1206 601 1206 c 0,11,12
 533 1206 533 1206 498.5 1236.5 c 128,-1,13
 464 1267 464 1267 464 1317 c 0,0,1
453 50 m 2,14,-1
 243 -104 l 2,15,16
 194 -141 194 -141 163 -176 c 128,-1,17
 132 -211 132 -211 117.5 -244 c 128,-1,18
 103 -277 103 -277 103 -311 c 256,19,20
 103 -345 103 -345 124.5 -364 c 128,-1,21
 146 -383 146 -383 186 -383 c 0,22,23
 215 -383 215 -383 244.5 -374 c 128,-1,24
 274 -365 274 -365 320 -336 c 1,25,-1
 324 -391 l 1,26,27
 258 -442 258 -442 209.5 -461.5 c 128,-1,28
 161 -481 161 -481 108 -481 c 0,29,30
 42 -481 42 -481 9 -445.5 c 128,-1,31
 -24 -410 -24 -410 -24 -356 c 0,32,33
 -24 -321 -24 -321 -9 -280 c 128,-1,34
 6 -239 6 -239 48 -191.5 c 128,-1,35
 90 -144 90 -144 171 -89 c 2,36,-1
 311 11 l 1,37,-1
 315 -2 l 1,38,39
 282 -11 282 -11 254 -15.5 c 128,-1,40
 226 -20 226 -20 200 -20 c 0,41,42
 132 -20 132 -20 113.5 7 c 128,-1,43
 95 34 95 34 127 116 c 2,44,-1
 425 895 l 1,45,-1
 461 843 l 1,46,47
 419 845 419 845 365 833 c 128,-1,48
 311 821 311 821 246.5 791 c 128,-1,49
 182 761 182 761 107 710 c 1,50,-1
 62 774 l 1,51,52
 172 871 172 871 254.5 919.5 c 128,-1,53
 337 968 337 968 398 984.5 c 128,-1,54
 459 1001 459 1001 502 1001 c 0,55,56
 564 1001 564 1001 585.5 970.5 c 128,-1,57
 607 940 607 940 578 865 c 2,58,-1
 280 82 l 1,59,-1
 247 138 l 1,60,61
 291 134 291 134 344 144 c 128,-1,62
 397 154 397 154 457 179 c 128,-1,63
 517 204 517 204 580 247 c 1,64,-1
 621 182 l 1,65,66
 585 151 585 151 542.5 117.5 c 128,-1,67
 500 84 500 84 453 50 c 2,14,-1
EndSplineSet
EndChar

StartChar: uni0237
Encoding: 567 567 302
Width: 618
GlyphClass: 2
Flags: W
AnchorPoint: "Anchor-4" -82 -461 basechar 0
AnchorPoint: "Anchor-0" 457 986 basechar 0
LayerCount: 2
Fore
SplineSet
336 146 m 2,0,1
 276 -55 276 -55 186 -195.5 c 128,-1,2
 96 -336 96 -336 -11 -408.5 c 128,-1,3
 -118 -481 -118 -481 -230 -481 c 0,4,5
 -310 -481 -310 -481 -345 -444 c 128,-1,6
 -380 -407 -380 -407 -380 -353 c 0,7,8
 -380 -301 -380 -301 -347 -268.5 c 128,-1,9
 -314 -236 -314 -236 -279 -236 c 0,10,11
 -273 -236 -273 -236 -253.5 -252.5 c 128,-1,12
 -234 -269 -234 -269 -205 -295 c 0,13,14
 -176 -320 -176 -320 -157.5 -330.5 c 128,-1,15
 -139 -341 -139 -341 -126 -341 c 0,16,17
 -93 -341 -93 -341 -61 -325.5 c 128,-1,18
 -29 -310 -29 -310 5.5 -265.5 c 128,-1,19
 40 -221 40 -221 78 -134 c 128,-1,20
 116 -47 116 -47 159 95 c 2,21,-1
 400 895 l 1,22,-1
 435 843 l 1,23,24
 400 845 400 845 349.5 832 c 128,-1,25
 299 819 299 819 234.5 787.5 c 128,-1,26
 170 756 170 756 90 701 c 1,27,-1
 45 765 l 1,28,29
 146 855 146 855 225 906.5 c 128,-1,30
 304 958 304 958 365.5 979.5 c 128,-1,31
 427 1001 427 1001 476 1001 c 0,32,33
 517 1001 517 1001 538.5 988 c 128,-1,34
 560 975 560 975 563 945.5 c 128,-1,35
 566 916 566 916 551 865 c 2,36,-1
 336 146 l 2,0,1
EndSplineSet
EndChar

StartChar: kgreenlandic
Encoding: 312 312 305
Width: 1216
GlyphClass: 1
Flags: W
LayerCount: 2
Fore
SplineSet
587 993 m 1,0,-1
 282 0 l 1,1,-1
 114 0 l 1,2,-1
 373 841 l 1,3,4
 371 841 371 841 368 841 c 128,-1,5
 365 841 365 841 362 841 c 0,6,7
 305 841 305 841 256 827 c 128,-1,8
 207 813 207 813 165 781 c 128,-1,9
 123 749 123 749 85 695 c 1,10,-1
 68 701 l 1,11,12
 96 790 96 790 133.5 848 c 128,-1,13
 171 906 171 906 220.5 939.5 c 128,-1,14
 270 973 270 973 332 987 c 128,-1,15
 394 1001 394 1001 470 1001 c 0,16,17
 498 1001 498 1001 527 999 c 128,-1,18
 556 997 556 997 587 993 c 1,0,-1
1082 728 m 0,19,20
 1074 728 1074 728 1061.5 746 c 128,-1,21
 1049 764 1049 764 1032 789 c 0,22,23
 1017 814 1017 814 1002.5 830 c 128,-1,24
 988 846 988 846 976 846 c 0,25,26
 957 846 957 846 928 831.5 c 128,-1,27
 899 817 899 817 851 780.5 c 128,-1,28
 803 744 803 744 727 676 c 128,-1,29
 651 608 651 608 537 502 c 1,30,-1
 574 573 l 1,31,32
 644 424 644 424 692.5 334 c 128,-1,33
 741 244 741 244 774.5 198 c 128,-1,34
 808 152 808 152 834 136.5 c 128,-1,35
 860 121 860 121 886 121 c 256,36,37
 912 121 912 121 942 138.5 c 128,-1,38
 972 156 972 156 1009 191.5 c 128,-1,39
 1046 227 1046 227 1094 279 c 1,40,-1
 1145 232 l 1,41,42
 1067 134 1067 134 1006.5 79 c 128,-1,43
 946 24 946 24 900 2 c 128,-1,44
 854 -20 854 -20 816 -20 c 0,45,46
 774 -20 774 -20 734.5 0.5 c 128,-1,47
 695 21 695 21 651.5 76 c 128,-1,48
 608 131 608 131 554.5 233.5 c 128,-1,49
 501 336 501 336 432 500 c 1,50,-1
 438 518 l 1,51,52
 597 672 597 672 703 767.5 c 128,-1,53
 809 863 809 863 879.5 913.5 c 128,-1,54
 950 964 950 964 999.5 982.5 c 128,-1,55
 1049 1001 1049 1001 1094 1001 c 0,56,57
 1165 1001 1165 1001 1199.5 967 c 128,-1,58
 1234 933 1234 933 1234 884 c 0,59,60
 1234 828 1234 828 1207.5 793.5 c 128,-1,61
 1181 759 1181 759 1145.5 743.5 c 128,-1,62
 1110 728 1110 728 1082 728 c 0,19,20
EndSplineSet
EndChar

StartChar: lslash
Encoding: 322 322 310
Width: 774
GlyphClass: 1
Flags: W
LayerCount: 2
Fore
SplineSet
104 581 m 1,0,-1
 373 743 l 1,1,-1
 430 744 l 1,2,-1
 770 950 l 1,3,-1
 726 804 l 1,4,-1
 391 601 l 1,5,-1
 334 601 l 1,6,-1
 60 434 l 1,7,-1
 104 581 l 1,0,-1
489 1267 m 1,8,9
 471 1277 471 1277 440 1291 c 128,-1,10
 409 1305 409 1305 374 1320 c 128,-1,11
 339 1335 339 1335 310 1346 c 1,12,-1
 324 1404 l 1,13,-1
 679 1468 l 1,14,-1
 716 1468 l 1,15,-1
 291 84 l 1,16,-1
 262 138 l 1,17,18
 306 134 306 134 359 144 c 128,-1,19
 412 154 412 154 472 179 c 128,-1,20
 532 204 532 204 595 247 c 1,21,-1
 636 182 l 1,22,23
 540 102 540 102 463 58 c 128,-1,24
 386 14 386 14 324.5 -3 c 128,-1,25
 263 -20 263 -20 215 -20 c 0,26,27
 149 -20 149 -20 130.5 6 c 128,-1,28
 112 32 112 32 137 116 c 2,29,-1
 489 1267 l 1,8,9
EndSplineSet
EndChar

StartChar: eng
Encoding: 331 331 315
Width: 1225
GlyphClass: 1
Flags: W
LayerCount: 2
Fore
SplineSet
439 -481 m 0,0,1
 360 -481 360 -481 326.5 -445.5 c 128,-1,2
 293 -410 293 -410 293 -359 c 256,3,4
 293 -308 293 -308 323.5 -277 c 128,-1,5
 354 -246 354 -246 386 -246 c 0,6,7
 392 -246 392 -246 410 -260.5 c 128,-1,8
 428 -275 428 -275 449 -295 c 0,9,10
 471 -316 471 -316 489 -328.5 c 128,-1,11
 507 -341 507 -341 517 -341 c 0,12,13
 545 -341 545 -341 571.5 -328 c 128,-1,14
 598 -315 598 -315 626.5 -276 c 128,-1,15
 655 -237 655 -237 688 -158.5 c 128,-1,16
 721 -80 721 -80 761 51 c 2,17,-1
 940 643 l 2,18,19
 951 677 951 677 956.5 700.5 c 128,-1,20
 962 724 962 724 964 742.5 c 128,-1,21
 966 761 966 761 966 776 c 0,22,23
 966 807 966 807 941.5 826.5 c 128,-1,24
 917 846 917 846 867 846 c 0,25,26
 798 846 798 846 727.5 799.5 c 128,-1,27
 657 753 657 753 591.5 669.5 c 128,-1,28
 526 586 526 586 470 476 c 128,-1,29
 414 366 414 366 374 240 c 2,30,-1
 298 0 l 1,31,-1
 119 0 l 1,32,-1
 373 841 l 1,33,34
 371 841 371 841 368 841 c 128,-1,35
 365 841 365 841 362 841 c 0,36,37
 305 841 305 841 256 827 c 128,-1,38
 207 813 207 813 165 781 c 128,-1,39
 123 749 123 749 85 695 c 1,40,-1
 68 701 l 1,41,42
 101 819 101 819 154 884.5 c 128,-1,43
 207 950 207 950 279.5 975.5 c 128,-1,44
 352 1001 352 1001 442 1001 c 0,45,46
 458 1001 458 1001 474.5 1000 c 128,-1,47
 491 999 491 999 507.5 997.5 c 128,-1,48
 524 996 524 996 541 993 c 1,49,-1
 370 463 l 1,50,-1
 397 463 l 1,51,52
 469 606 469 606 535 708 c 128,-1,53
 601 810 601 810 665.5 875 c 128,-1,54
 730 940 730 940 797.5 970 c 128,-1,55
 865 1000 865 1000 940 1000 c 0,56,57
 1041 1000 1041 1000 1092 955.5 c 128,-1,58
 1143 911 1143 911 1143 835 c 0,59,60
 1143 799 1143 799 1132.5 746.5 c 128,-1,61
 1122 694 1122 694 1094 605 c 2,62,-1
 937 112 l 2,63,64
 876 -78 876 -78 794 -210.5 c 128,-1,65
 712 -343 712 -343 620.5 -412 c 128,-1,66
 529 -481 529 -481 439 -481 c 0,0,1
EndSplineSet
EndChar

StartChar: ohorn
Encoding: 417 417 324
Width: 1123
GlyphClass: 2
Flags: W
AnchorPoint: "Anchor-4" 386 0 basechar 0
AnchorPoint: "Anchor-0" 689 981 basechar 0
LayerCount: 2
Fore
SplineSet
429 93 m 0,0,1
 501 93 501 93 563.5 125.5 c 128,-1,2
 626 158 626 158 675.5 215.5 c 128,-1,3
 725 273 725 273 760 349 c 128,-1,4
 795 425 795 425 814 512 c 128,-1,5
 833 599 833 599 833 689 c 0,6,7
 833 785 833 785 787.5 836.5 c 128,-1,8
 742 888 742 888 658 888 c 0,9,10
 586 888 586 888 524 855.5 c 128,-1,11
 462 823 462 823 412.5 765.5 c 128,-1,12
 363 708 363 708 327.5 632 c 128,-1,13
 292 556 292 556 273 469.5 c 128,-1,14
 254 383 254 383 254 292 c 0,15,16
 254 197 254 197 300 145 c 128,-1,17
 346 93 346 93 429 93 c 0,0,1
1012 666 m 0,18,19
 1012 528 1012 528 967 404.5 c 128,-1,20
 922 281 922 281 841.5 185.5 c 128,-1,21
 761 90 761 90 654.5 35 c 128,-1,22
 548 -20 548 -20 424 -20 c 0,23,24
 312 -20 312 -20 234 22.5 c 128,-1,25
 156 65 156 65 116 140.5 c 128,-1,26
 76 216 76 216 76 316 c 0,27,28
 76 453 76 453 120.5 576.5 c 128,-1,29
 165 700 165 700 245.5 796 c 128,-1,30
 326 892 326 892 432.5 946.5 c 128,-1,31
 539 1001 539 1001 663 1001 c 0,32,33
 715 1001 715 1001 752 995.5 c 128,-1,34
 789 990 789 990 825 984.5 c 128,-1,35
 861 979 861 979 908 979 c 0,36,37
 995 979 995 979 1027.5 1012 c 128,-1,38
 1060 1045 1060 1045 1060 1099 c 0,39,40
 1060 1129 1060 1129 1049.5 1152 c 128,-1,41
 1039 1175 1039 1175 1039 1186 c 0,42,43
 1039 1211 1039 1211 1067 1235 c 128,-1,44
 1095 1259 1095 1259 1135 1259 c 256,45,46
 1175 1259 1175 1259 1199.5 1236 c 128,-1,47
 1224 1213 1224 1213 1224 1167 c 0,48,49
 1224 1077 1224 1077 1188.5 1015.5 c 128,-1,50
 1153 954 1153 954 1080.5 926.5 c 128,-1,51
 1008 899 1008 899 897 910 c 1,52,-1
 903 925 l 1,53,54
 960 879 960 879 986 810.5 c 128,-1,55
 1012 742 1012 742 1012 666 c 0,18,19
EndSplineSet
EndChar

StartChar: uni01EB
Encoding: 491 491 325
Width: 1090
GlyphClass: 1
Flags: W
LayerCount: 2
Fore
SplineSet
663 1001 m 0,0,1
 776 1001 776 1001 853.5 958.5 c 128,-1,2
 931 916 931 916 971.5 841 c 128,-1,3
 1012 766 1012 766 1012 666 c 0,4,5
 1012 528 1012 528 967 404.5 c 128,-1,6
 922 281 922 281 841.5 185.5 c 128,-1,7
 761 90 761 90 654.5 35 c 128,-1,8
 548 -20 548 -20 424 -20 c 0,9,10
 312 -20 312 -20 234 22.5 c 128,-1,11
 156 65 156 65 116 140.5 c 128,-1,12
 76 216 76 216 76 316 c 0,13,14
 76 453 76 453 120.5 576.5 c 128,-1,15
 165 700 165 700 245.5 796 c 128,-1,16
 326 892 326 892 432.5 946.5 c 128,-1,17
 539 1001 539 1001 663 1001 c 0,0,1
429 93 m 0,18,19
 501 93 501 93 563.5 125.5 c 128,-1,20
 626 158 626 158 675.5 215.5 c 128,-1,21
 725 273 725 273 760 349 c 128,-1,22
 795 425 795 425 814 512 c 128,-1,23
 833 599 833 599 833 689 c 0,24,25
 833 785 833 785 787.5 836.5 c 128,-1,26
 742 888 742 888 658 888 c 0,27,28
 586 888 586 888 524 855.5 c 128,-1,29
 462 823 462 823 412.5 765.5 c 128,-1,30
 363 708 363 708 327.5 632 c 128,-1,31
 292 556 292 556 273 469.5 c 128,-1,32
 254 383 254 383 254 292 c 0,33,34
 254 197 254 197 300 145 c 128,-1,35
 346 93 346 93 429 93 c 0,18,19
339 -115 m 2,36,37
 294 -165 294 -165 270.5 -201 c 128,-1,38
 247 -237 247 -237 238.5 -262.5 c 128,-1,39
 230 -288 230 -288 230 -311 c 0,40,41
 230 -345 230 -345 251.5 -364 c 128,-1,42
 273 -383 273 -383 313 -383 c 0,43,44
 342 -383 342 -383 371.5 -374 c 128,-1,45
 401 -365 401 -365 447 -336 c 1,46,-1
 452 -391 l 1,47,48
 385 -442 385 -442 336.5 -461.5 c 128,-1,49
 288 -481 288 -481 235 -481 c 0,50,51
 169 -481 169 -481 136.5 -446 c 128,-1,52
 104 -411 104 -411 104 -357 c 0,53,54
 104 -323 104 -323 115.5 -288 c 128,-1,55
 127 -253 127 -253 162 -208 c 128,-1,56
 197 -163 197 -163 264 -99 c 2,57,-1
 394 28 l 1,58,-1
 463 28 l 1,59,-1
 339 -115 l 2,36,37
EndSplineSet
EndChar

StartChar: oslash
Encoding: 248 248 343
Width: 1135
GlyphClass: 2
Flags: W
AnchorPoint: "Anchor-4" 409 0 basechar 0
AnchorPoint: "Anchor-0" 712 981 basechar 0
LayerCount: 2
Fore
SplineSet
686 1001 m 0,0,1
 799 1001 799 1001 876.5 958.5 c 128,-1,2
 954 916 954 916 994 841 c 128,-1,3
 1034 766 1034 766 1034 666 c 0,4,5
 1034 528 1034 528 989.5 404.5 c 128,-1,6
 945 281 945 281 864.5 185.5 c 128,-1,7
 784 90 784 90 677.5 35 c 128,-1,8
 571 -20 571 -20 447 -20 c 0,9,10
 334 -20 334 -20 256.5 22.5 c 128,-1,11
 179 65 179 65 138.5 140.5 c 128,-1,12
 98 216 98 216 98 316 c 0,13,14
 98 453 98 453 143 576.5 c 128,-1,15
 188 700 188 700 268.5 796 c 128,-1,16
 349 892 349 892 455.5 946.5 c 128,-1,17
 562 1001 562 1001 686 1001 c 0,0,1
452 93 m 0,18,19
 524 93 524 93 586 125.5 c 128,-1,20
 648 158 648 158 697.5 215.5 c 128,-1,21
 747 273 747 273 782.5 349 c 128,-1,22
 818 425 818 425 837 512 c 128,-1,23
 856 599 856 599 856 689 c 0,24,25
 856 785 856 785 810.5 836.5 c 128,-1,26
 765 888 765 888 681 888 c 0,27,28
 609 888 609 888 546.5 855.5 c 128,-1,29
 484 823 484 823 434.5 765.5 c 128,-1,30
 385 708 385 708 350 632 c 128,-1,31
 315 556 315 556 296 469.5 c 128,-1,32
 277 383 277 383 277 292 c 0,33,34
 277 197 277 197 322.5 145 c 128,-1,35
 368 93 368 93 452 93 c 0,18,19
1021 981 m 1,36,-1
 1180 981 l 1,37,-1
 975 794 l 1,38,-1
 932 760 l 1,39,-1
 278 152 l 1,40,-1
 241 119 l 1,41,-1
 111 0 l 1,42,-1
 -48 0 l 1,43,-1
 157 186 l 1,44,-1
 199 220 l 1,45,-1
 854 829 l 1,46,-1
 891 862 l 1,47,-1
 1021 981 l 1,36,-1
EndSplineSet
EndChar

StartChar: oe
Encoding: 339 339 345
Width: 1699
GlyphClass: 2
Flags: W
AnchorPoint: "Anchor-4" 716 0 basechar 0
AnchorPoint: "Anchor-0" 1017 981 basechar 0
LayerCount: 2
Fore
SplineSet
663 1001 m 0,0,1
 764 1001 764 1001 832.5 963.5 c 128,-1,2
 901 926 901 926 939.5 861.5 c 128,-1,3
 978 797 978 797 989 716 c 1,4,-1
 906 717 l 1,5,6
 960 801 960 801 1038.5 865 c 128,-1,7
 1117 929 1117 929 1208.5 965 c 128,-1,8
 1300 1001 1300 1001 1394 1001 c 0,9,10
 1490 1001 1490 1001 1548 969.5 c 128,-1,11
 1606 938 1606 938 1632.5 885 c 128,-1,12
 1659 832 1659 832 1659 767 c 0,13,14
 1659 718 1659 718 1642.5 666.5 c 128,-1,15
 1626 615 1626 615 1599 578 c 1,16,17
 1519 553 1519 553 1436.5 531 c 128,-1,18
 1354 509 1354 509 1272 491.5 c 128,-1,19
 1190 474 1190 474 1110.5 459.5 c 128,-1,20
 1031 445 1031 445 957 434 c 1,21,-1
 963 526 l 1,22,23
 1113 553 1113 553 1211 575.5 c 128,-1,24
 1309 598 1309 598 1366 618.5 c 128,-1,25
 1423 639 1423 639 1450.5 660.5 c 128,-1,26
 1478 682 1478 682 1485.5 707 c 128,-1,27
 1493 732 1493 732 1493 762 c 0,28,29
 1493 803 1493 803 1477 832.5 c 128,-1,30
 1461 862 1461 862 1430.5 878.5 c 128,-1,31
 1400 895 1400 895 1354 895 c 0,32,33
 1291 895 1291 895 1234 867.5 c 128,-1,34
 1177 840 1177 840 1129.5 790 c 128,-1,35
 1082 740 1082 740 1047 671.5 c 128,-1,36
 1012 603 1012 603 993 521 c 128,-1,37
 974 439 974 439 974 349 c 0,38,39
 974 219 974 219 1021.5 169 c 128,-1,40
 1069 119 1069 119 1165 119 c 0,41,42
 1225 119 1225 119 1280 139.5 c 128,-1,43
 1335 160 1335 160 1385 204.5 c 128,-1,44
 1435 249 1435 249 1479 323 c 1,45,-1
 1571 323 l 1,46,47
 1509 194 1509 194 1438.5 119 c 128,-1,48
 1368 44 1368 44 1288.5 12 c 128,-1,49
 1209 -20 1209 -20 1120 -20 c 0,50,51
 1027 -20 1027 -20 961.5 14 c 128,-1,52
 896 48 896 48 859 111 c 128,-1,53
 822 174 822 174 812 262 c 1,54,-1
 889 261 l 1,55,56
 834 179 834 179 762 115.5 c 128,-1,57
 690 52 690 52 605 16 c 128,-1,58
 520 -20 520 -20 424 -20 c 0,59,60
 312 -20 312 -20 234 22.5 c 128,-1,61
 156 65 156 65 116 140.5 c 128,-1,62
 76 216 76 216 76 316 c 0,63,64
 76 453 76 453 120.5 576.5 c 128,-1,65
 165 700 165 700 245.5 796 c 128,-1,66
 326 892 326 892 432.5 946.5 c 128,-1,67
 539 1001 539 1001 663 1001 c 0,0,1
429 93 m 0,68,69
 501 93 501 93 563.5 125.5 c 128,-1,70
 626 158 626 158 675.5 215.5 c 128,-1,71
 725 273 725 273 760 349 c 128,-1,72
 795 425 795 425 814 512 c 128,-1,73
 833 599 833 599 833 689 c 0,74,75
 833 785 833 785 787.5 836.5 c 128,-1,76
 742 888 742 888 658 888 c 0,77,78
 586 888 586 888 524 855.5 c 128,-1,79
 462 823 462 823 412.5 765.5 c 128,-1,80
 363 708 363 708 327.5 632 c 128,-1,81
 292 556 292 556 273 469.5 c 128,-1,82
 254 383 254 383 254 292 c 0,83,84
 254 197 254 197 300 145 c 128,-1,85
 346 93 346 93 429 93 c 0,68,69
EndSplineSet
EndChar

StartChar: scedilla
Encoding: 351 351 353
Width: 879
GlyphClass: 1
Flags: W
LayerCount: 2
Fore
SplineSet
156 -481 m 0,0,1
 84 -481 84 -481 55.5 -462.5 c 128,-1,2
 27 -444 27 -444 27 -415 c 0,3,4
 27 -391 27 -391 42 -374.5 c 128,-1,5
 57 -358 57 -358 81 -358 c 0,6,7
 94 -358 94 -358 107.5 -372 c 128,-1,8
 121 -386 121 -386 142 -400 c 128,-1,9
 163 -414 163 -414 196 -414 c 0,10,11
 255 -414 255 -414 288 -384.5 c 128,-1,12
 321 -355 321 -355 321 -308 c 0,13,14
 321 -274 321 -274 283 -250 c 128,-1,15
 245 -226 245 -226 141 -209 c 1,16,-1
 147 -190 l 1,17,-1
 341 16 l 1,18,-1
 429 16 l 1,19,-1
 243 -180 l 1,20,-1
 254 -112 l 1,21,22
 362 -134 362 -134 402.5 -173 c 128,-1,23
 443 -212 443 -212 443 -262 c 0,24,25
 443 -323 443 -323 410 -372.5 c 128,-1,26
 377 -422 377 -422 313.5 -451.5 c 128,-1,27
 250 -481 250 -481 156 -481 c 0,0,1
194 277 m 1,28,29
 206 217 206 217 218 181 c 128,-1,30
 230 145 230 145 250 121 c 0,31,32
 270 96 270 96 292 88 c 128,-1,33
 314 80 314 80 346 80 c 0,34,35
 412 80 412 80 468 100.5 c 128,-1,36
 524 121 524 121 557.5 161 c 128,-1,37
 591 201 591 201 591 259 c 0,38,39
 591 297 591 297 575.5 328.5 c 128,-1,40
 560 360 560 360 518.5 391 c 128,-1,41
 477 422 477 422 398 457 c 0,42,43
 319 493 319 493 275 530 c 128,-1,44
 231 567 231 567 213.5 608.5 c 128,-1,45
 196 650 196 650 196 698 c 0,46,47
 196 789 196 789 244.5 857 c 128,-1,48
 293 925 293 925 381 963 c 128,-1,49
 469 1001 469 1001 588 1001 c 0,50,51
 669 1001 669 1001 726 983 c 128,-1,52
 783 965 783 965 813.5 931.5 c 128,-1,53
 844 898 844 898 844 848 c 0,54,55
 844 814 844 814 826 787.5 c 128,-1,56
 808 761 808 761 775 745.5 c 128,-1,57
 742 730 742 730 695 730 c 1,58,59
 682 779 682 779 668.5 809 c 128,-1,60
 655 839 655 839 636 861 c 0,61,62
 616 882 616 882 593 890 c 128,-1,63
 570 898 570 898 538 898 c 0,64,65
 452 898 452 898 394 860.5 c 128,-1,66
 336 823 336 823 336 760 c 0,67,68
 336 729 336 729 350 702 c 128,-1,69
 364 675 364 675 406 645 c 128,-1,70
 448 615 448 615 530 573 c 0,71,72
 614 533 614 533 657.5 489 c 128,-1,73
 701 445 701 445 717 398 c 128,-1,74
 733 351 733 351 733 299 c 0,75,76
 733 202 733 202 676 130 c 128,-1,77
 619 58 619 58 521.5 19 c 128,-1,78
 424 -20 424 -20 302 -20 c 0,79,80
 203 -20 203 -20 142.5 3 c 128,-1,81
 82 26 82 26 54 65 c 128,-1,82
 26 104 26 104 26 150 c 0,83,84
 26 189 26 189 41 217.5 c 128,-1,85
 56 246 56 246 93 261.5 c 128,-1,86
 130 277 130 277 194 277 c 1,28,29
EndSplineSet
Substitution2: "'locl' Localized Forms in Latin lookup 1 subtable" uni0219
Substitution2: "'locl' Localized Forms in Latin lookup 0 subtable" uni0219
EndChar

StartChar: germandbls
Encoding: 223 223 356
Width: 1369
GlyphClass: 1
Flags: W
LayerCount: 2
Fore
SplineSet
136 873 m 1,0,-1
 139 981 l 1,1,-1
 477 981 l 1,2,-1
 473 873 l 1,3,-1
 136 873 l 1,0,-1
413 210 m 2,4,5
 376 31 376 31 323 -99.5 c 128,-1,6
 270 -230 270 -230 201 -315 c 128,-1,7
 132 -400 132 -400 47 -440.5 c 128,-1,8
 -38 -481 -38 -481 -137 -481 c 0,9,10
 -234 -481 -234 -481 -282.5 -441.5 c 128,-1,11
 -331 -402 -331 -402 -331 -337 c 0,12,13
 -331 -281 -331 -281 -295.5 -250 c 128,-1,14
 -260 -219 -260 -219 -185 -219 c 1,15,16
 -175 -261 -175 -261 -165 -291 c 128,-1,17
 -155 -321 -155 -321 -140 -341 c 0,18,19
 -124 -361 -124 -361 -103 -368.5 c 128,-1,20
 -82 -376 -82 -376 -53 -376 c 0,21,22
 -10 -376 -10 -376 29.5 -355 c 128,-1,23
 69 -334 69 -334 104.5 -284 c 128,-1,24
 140 -234 140 -234 170 -148.5 c 128,-1,25
 200 -63 200 -63 225 65 c 2,26,-1
 399 972 l 2,27,28
 431 1138 431 1138 498 1248 c 128,-1,29
 565 1358 565 1358 671 1413 c 128,-1,30
 777 1468 777 1468 923 1468 c 0,31,32
 1048 1468 1048 1468 1126 1439 c 128,-1,33
 1204 1410 1204 1410 1240.5 1358 c 128,-1,34
 1277 1306 1277 1306 1277 1238 c 0,35,36
 1277 1155 1277 1155 1232 1090.5 c 128,-1,37
 1187 1026 1187 1026 1084 964 c 0,38,39
 1016 923 1016 923 979 890.5 c 128,-1,40
 942 858 942 858 928 829 c 128,-1,41
 914 800 914 800 914 768 c 0,42,43
 914 743 914 743 924.5 719 c 128,-1,44
 935 695 935 695 965.5 663 c 128,-1,45
 996 631 996 631 1057 584 c 0,46,47
 1149 514 1149 514 1184 448.5 c 128,-1,48
 1219 383 1219 383 1219 308 c 0,49,50
 1219 207 1219 207 1170 133 c 128,-1,51
 1121 59 1121 59 1034.5 19.5 c 128,-1,52
 948 -20 948 -20 835 -20 c 0,53,54
 688 -20 688 -20 625 29 c 128,-1,55
 562 78 562 78 562 147 c 0,56,57
 562 188 562 188 578.5 215.5 c 128,-1,58
 595 243 595 243 631.5 257.5 c 128,-1,59
 668 272 668 272 728 272 c 1,60,61
 739 211 739 211 751.5 177.5 c 128,-1,62
 764 144 764 144 781 120 c 256,63,64
 798 96 798 96 821 88 c 128,-1,65
 844 80 844 80 876 80 c 0,66,67
 935 80 935 80 980 101 c 128,-1,68
 1025 122 1025 122 1051 161 c 128,-1,69
 1077 200 1077 200 1077 257 c 0,70,71
 1077 308 1077 308 1048.5 353.5 c 128,-1,72
 1020 399 1020 399 925 468 c 256,73,74
 830 537 830 537 796 592.5 c 128,-1,75
 762 648 762 648 762 713 c 0,76,77
 762 760 762 760 778 802.5 c 128,-1,78
 794 845 794 845 833 887.5 c 128,-1,79
 872 930 872 930 940 977 c 0,80,81
 1009 1025 1009 1025 1046 1065.5 c 128,-1,82
 1083 1106 1083 1106 1097.5 1144.5 c 128,-1,83
 1112 1183 1112 1183 1112 1224 c 0,84,85
 1112 1298 1112 1298 1067.5 1339.5 c 128,-1,86
 1023 1381 1023 1381 919 1381 c 0,87,88
 822 1381 822 1381 755.5 1347 c 128,-1,89
 689 1313 689 1313 648 1241 c 128,-1,90
 607 1169 607 1169 584 1057 c 2,91,-1
 413 210 l 2,4,5
EndSplineSet
EndChar

StartChar: uni0163
Encoding: 355 355 357
Width: 773
GlyphClass: 1
Flags: W
LayerCount: 2
Fore
SplineSet
148 873 m 1,0,-1
 155 981 l 1,1,-1
 809 981 l 1,2,-1
 805 873 l 1,3,-1
 148 873 l 1,0,-1
357 281 m 2,4,5
 349 255 349 255 343.5 233.5 c 128,-1,6
 338 212 338 212 334.5 195.5 c 128,-1,7
 331 179 331 179 331 169 c 0,8,9
 331 146 331 146 339 138 c 128,-1,10
 347 130 347 130 364 130 c 0,11,12
 387 130 387 130 422.5 145 c 128,-1,13
 458 160 458 160 508.5 196.5 c 128,-1,14
 559 233 559 233 626 295 c 1,15,-1
 677 235 l 1,16,17
 612 168 612 168 554 119.5 c 128,-1,18
 496 71 496 71 445 40.5 c 128,-1,19
 394 10 394 10 350.5 -4.5 c 128,-1,20
 307 -19 307 -19 270 -19 c 0,21,22
 219 -19 219 -19 189.5 11.5 c 128,-1,23
 160 42 160 42 160 106 c 0,24,25
 160 134 160 134 168 175 c 128,-1,26
 176 216 176 216 196 282 c 2,27,-1
 467 1181 l 1,28,-1
 630 1181 l 1,29,-1
 357 281 l 2,4,5
121 -481 m 0,30,31
 49 -481 49 -481 20.5 -462.5 c 128,-1,32
 -8 -444 -8 -444 -8 -415 c 0,33,34
 -8 -391 -8 -391 7 -374.5 c 128,-1,35
 22 -358 22 -358 46 -358 c 0,36,37
 58 -358 58 -358 72 -372 c 128,-1,38
 86 -386 86 -386 106.5 -400 c 128,-1,39
 127 -414 127 -414 161 -414 c 0,40,41
 220 -414 220 -414 253 -384.5 c 128,-1,42
 286 -355 286 -355 286 -308 c 0,43,44
 286 -274 286 -274 247.5 -250 c 128,-1,45
 209 -226 209 -226 106 -209 c 1,46,-1
 112 -190 l 1,47,-1
 314 27 l 1,48,-1
 403 27 l 1,49,-1
 208 -180 l 1,50,-1
 218 -112 l 1,51,52
 326 -134 326 -134 367 -173 c 128,-1,53
 408 -212 408 -212 408 -262 c 0,54,55
 408 -323 408 -323 375 -372.5 c 128,-1,56
 342 -422 342 -422 278 -451.5 c 128,-1,57
 214 -481 214 -481 121 -481 c 0,30,31
EndSplineSet
EndChar

StartChar: tbar
Encoding: 359 359 359
Width: 807
GlyphClass: 1
Flags: W
LayerCount: 2
Fore
SplineSet
109 511 m 1,0,-1
 142 621 l 1,1,-1
 716 621 l 1,2,-1
 683 511 l 1,3,-1
 109 511 l 1,0,-1
177 873 m 1,4,-1
 184 981 l 1,5,-1
 837 981 l 1,6,-1
 833 873 l 1,7,-1
 177 873 l 1,4,-1
360 169 m 0,8,9
 360 146 360 146 368 138 c 128,-1,10
 376 130 376 130 393 130 c 0,11,12
 415 130 415 130 450.5 145 c 128,-1,13
 486 160 486 160 537 196.5 c 128,-1,14
 588 233 588 233 655 295 c 1,15,-1
 706 235 l 1,16,17
 641 168 641 168 583 119.5 c 128,-1,18
 525 71 525 71 474 40.5 c 128,-1,19
 423 10 423 10 379 -4.5 c 128,-1,20
 335 -19 335 -19 298 -19 c 0,21,22
 248 -19 248 -19 218 11.5 c 128,-1,23
 188 42 188 42 188 106 c 0,24,25
 188 134 188 134 196.5 175 c 128,-1,26
 205 216 205 216 224 282 c 2,27,-1
 496 1181 l 1,28,-1
 659 1181 l 1,29,-1
 385 281 l 2,30,31
 378 255 378 255 372 233.5 c 128,-1,32
 366 212 366 212 363 195.5 c 128,-1,33
 360 179 360 179 360 169 c 0,8,9
EndSplineSet
EndChar

StartChar: uogonek
Encoding: 371 371 370
Width: 1267
GlyphClass: 1
Flags: W
LayerCount: 2
Fore
SplineSet
1233 187 m 1,0,1
 1191 148 1191 148 1147 108 c 128,-1,2
 1103 68 1103 68 1054 27 c 2,3,-1
 949 -64 l 2,4,5
 878 -123 878 -123 841 -167.5 c 128,-1,6
 804 -212 804 -212 790.5 -245 c 128,-1,7
 777 -278 777 -278 777 -307 c 0,8,9
 777 -342 777 -342 799 -362.5 c 128,-1,10
 821 -383 821 -383 862 -383 c 0,11,12
 892 -383 892 -383 921 -374 c 128,-1,13
 950 -365 950 -365 996 -336 c 1,14,-1
 1001 -391 l 1,15,16
 934 -442 934 -442 886 -461.5 c 128,-1,17
 838 -481 838 -481 784 -481 c 0,18,19
 718 -481 718 -481 684 -444.5 c 128,-1,20
 650 -408 650 -408 650 -354 c 0,21,22
 650 -317 650 -317 664.5 -280.5 c 128,-1,23
 679 -244 679 -244 719.5 -197.5 c 128,-1,24
 760 -151 760 -151 838 -88 c 2,25,-1
 1006 49 l 1,26,-1
 1018 33 l 1,27,28
 957 2 957 2 911 -9 c 128,-1,29
 865 -20 865 -20 832 -20 c 0,30,31
 774 -20 774 -20 755 3.5 c 128,-1,32
 736 27 736 27 753 76 c 2,33,-1
 877 448 l 1,34,-1
 856 448 l 1,35,36
 770 295 770 295 699.5 202 c 128,-1,37
 629 109 629 109 569 61 c 128,-1,38
 509 13 509 13 453.5 -3.5 c 128,-1,39
 398 -20 398 -20 342 -20 c 0,40,41
 238 -20 238 -20 190.5 25.5 c 128,-1,42
 143 71 143 71 143 141 c 0,43,44
 143 177 143 177 155.5 230.5 c 128,-1,45
 168 284 168 284 206 382 c 2,46,-1
 409 900 l 1,47,-1
 438 843 l 1,48,49
 396 846 396 846 342 831 c 128,-1,50
 288 816 288 816 226.5 784.5 c 128,-1,51
 165 753 165 753 97 702 c 1,52,-1
 51 767 l 1,53,54
 158 864 158 864 240 914.5 c 128,-1,55
 322 965 322 965 384.5 983 c 128,-1,56
 447 1001 447 1001 493 1001 c 0,57,58
 553 1001 553 1001 574 969.5 c 128,-1,59
 595 938 595 938 565 863 c 2,60,-1
 342 294 l 2,61,62
 329 262 329 262 321.5 235.5 c 128,-1,63
 314 209 314 209 314 190 c 0,64,65
 314 157 314 157 339 140 c 128,-1,66
 364 123 364 123 406 123 c 0,67,68
 446 123 446 123 499.5 145 c 128,-1,69
 553 167 553 167 613 219.5 c 128,-1,70
 673 272 673 272 732 362 c 128,-1,71
 791 452 791 452 842 588 c 2,72,-1
 989 981 l 1,73,-1
 1168 981 l 1,74,-1
 877 77 l 1,75,-1
 844 133 l 1,76,77
 887 128 887 128 942.5 138 c 128,-1,78
 998 148 998 148 1062 175 c 128,-1,79
 1126 202 1126 202 1194 249 c 1,80,-1
 1233 187 l 1,0,1
EndSplineSet
EndChar

StartChar: uhorn
Encoding: 432 432 371
Width: 1341
GlyphClass: 2
Flags: W
AnchorPoint: "Anchor-4" 510 0 basechar 0
AnchorPoint: "Anchor-0" 742 981 basechar 0
LayerCount: 2
Fore
SplineSet
753 76 m 2,0,-1
 877 448 l 1,1,-1
 856 448 l 1,2,3
 770 295 770 295 699.5 202 c 128,-1,4
 629 109 629 109 569 61 c 128,-1,5
 509 13 509 13 453.5 -3.5 c 128,-1,6
 398 -20 398 -20 342 -20 c 0,7,8
 238 -20 238 -20 190.5 25.5 c 128,-1,9
 143 71 143 71 143 141 c 0,10,11
 143 177 143 177 155.5 230.5 c 128,-1,12
 168 284 168 284 206 382 c 2,13,-1
 409 900 l 1,14,-1
 438 843 l 1,15,16
 396 846 396 846 342 831 c 128,-1,17
 288 816 288 816 226.5 784.5 c 128,-1,18
 165 753 165 753 97 702 c 1,19,-1
 51 767 l 1,20,21
 158 864 158 864 240 914.5 c 128,-1,22
 322 965 322 965 384.5 983 c 128,-1,23
 447 1001 447 1001 493 1001 c 0,24,25
 553 1001 553 1001 574 969.5 c 128,-1,26
 595 938 595 938 565 863 c 2,27,-1
 342 294 l 2,28,29
 329 262 329 262 321.5 235.5 c 128,-1,30
 314 209 314 209 314 190 c 0,31,32
 314 157 314 157 339 140 c 128,-1,33
 364 123 364 123 406 123 c 0,34,35
 446 123 446 123 499.5 145 c 128,-1,36
 553 167 553 167 613 219.5 c 128,-1,37
 673 272 673 272 732 362 c 128,-1,38
 791 452 791 452 842 588 c 2,39,-1
 989 981 l 1,40,-1
 1168 981 l 1,41,-1
 877 77 l 1,42,-1
 844 133 l 1,43,44
 887 128 887 128 942.5 138 c 128,-1,45
 998 148 998 148 1062 175 c 128,-1,46
 1126 202 1126 202 1194 249 c 1,47,-1
 1233 187 l 1,48,49
 1089 61 1089 61 990 20.5 c 128,-1,50
 891 -20 891 -20 832 -20 c 0,51,52
 774 -20 774 -20 755 3.5 c 128,-1,53
 736 27 736 27 753 76 c 2,0,-1
1464 1167 m 0,54,55
 1464 1096 1464 1096 1425.5 1036.5 c 128,-1,56
 1387 977 1387 977 1315 941.5 c 128,-1,57
 1243 906 1243 906 1143 906 c 2,58,-1
 1018 906 l 1,59,-1
 1042 981 l 1,60,-1
 1138 981 l 2,61,62
 1225 981 1225 981 1263 1013 c 128,-1,63
 1301 1045 1301 1045 1301 1099 c 0,64,65
 1301 1129 1301 1129 1290 1152 c 128,-1,66
 1279 1175 1279 1175 1279 1186 c 0,67,68
 1279 1211 1279 1211 1307 1235 c 128,-1,69
 1335 1259 1335 1259 1376 1259 c 0,70,71
 1416 1259 1416 1259 1440 1236 c 128,-1,72
 1464 1213 1464 1213 1464 1167 c 0,54,55
EndSplineSet
EndChar

StartChar: thorn
Encoding: 254 254 396
Width: 1134
GlyphClass: 1
Flags: W
LayerCount: 2
Fore
SplineSet
280 287 m 2,0,1
 274 266 274 266 272 250.5 c 128,-1,2
 270 235 270 235 270 222 c 0,3,4
 270 162 270 162 317 120.5 c 128,-1,5
 364 79 364 79 462 79 c 0,6,7
 532 79 532 79 594.5 113.5 c 128,-1,8
 657 148 657 148 710 207.5 c 128,-1,9
 763 267 763 267 801.5 343 c 128,-1,10
 840 419 840 419 861.5 502.5 c 128,-1,11
 883 586 883 586 883 668 c 0,12,13
 883 770 883 770 845 813.5 c 128,-1,14
 807 857 807 857 735 857 c 0,15,16
 686 857 686 857 634.5 830.5 c 128,-1,17
 583 804 583 804 533 758 c 128,-1,18
 483 712 483 712 439.5 655.5 c 128,-1,19
 396 599 396 599 364.5 539.5 c 128,-1,20
 333 480 333 480 318 425 c 2,21,-1
 280 287 l 2,0,1
339 624 m 1,22,-1
 354 632 l 1,23,24
 435 764 435 764 512 845 c 128,-1,25
 589 926 589 926 663 963.5 c 128,-1,26
 737 1001 737 1001 807 1001 c 0,27,28
 936 1001 936 1001 1002 920 c 128,-1,29
 1068 839 1068 839 1068 714 c 0,30,31
 1068 603 1068 603 1037.5 495.5 c 128,-1,32
 1007 388 1007 388 951 295 c 128,-1,33
 895 202 895 202 819 131 c 128,-1,34
 743 60 743 60 650.5 20 c 128,-1,35
 558 -20 558 -20 455 -20 c 0,36,37
 354 -20 354 -20 281 19 c 128,-1,38
 208 58 208 58 191 132 c 1,39,-1
 244 132 l 1,40,-1
 103 -345 l 1,41,-1
 291 -387 l 1,42,-1
 267 -461 l 1,43,-1
 -244 -461 l 1,44,-1
 -221 -387 l 1,45,-1
 -66 -345 l 1,46,-1
 412 1267 l 1,47,48
 394 1277 394 1277 362.5 1291 c 128,-1,49
 331 1305 331 1305 296.5 1320 c 128,-1,50
 262 1335 262 1335 233 1346 c 1,51,-1
 247 1404 l 1,52,-1
 601 1468 l 1,53,-1
 638 1468 l 1,54,-1
 339 624 l 1,22,-1
EndSplineSet
EndChar

StartChar: eth
Encoding: 240 240 397
Width: 1092
GlyphClass: 1
Flags: W
LayerCount: 2
Fore
SplineSet
869 686 m 1,0,-1
 848 696 l 1,1,2
 869 854 869 854 848.5 967 c 128,-1,3
 828 1080 828 1080 767.5 1158.5 c 128,-1,4
 707 1237 707 1237 607.5 1289.5 c 128,-1,5
 508 1342 508 1342 371 1379 c 1,6,-1
 400 1468 l 1,7,8
 578 1432 578 1432 698 1369.5 c 128,-1,9
 818 1307 818 1307 889 1219 c 128,-1,10
 960 1131 960 1131 990.5 1021 c 128,-1,11
 1021 911 1021 911 1021 780 c 0,12,13
 1021 605 1021 605 975 458.5 c 128,-1,14
 929 312 929 312 847.5 205 c 128,-1,15
 766 98 766 98 657.5 39 c 128,-1,16
 549 -20 549 -20 424 -20 c 0,17,18
 311 -20 311 -20 233 21.5 c 128,-1,19
 155 63 155 63 115 136.5 c 128,-1,20
 75 210 75 210 75 307 c 0,21,22
 75 442 75 442 117 563 c 128,-1,23
 159 684 159 684 233 777 c 128,-1,24
 307 870 307 870 404.5 923.5 c 128,-1,25
 502 977 502 977 613 977 c 0,26,27
 699 977 699 977 756.5 939.5 c 128,-1,28
 814 902 814 902 842.5 837 c 128,-1,29
 871 772 871 772 869 686 c 1,0,-1
429 93 m 0,30,31
 501 93 501 93 563 124.5 c 128,-1,32
 625 156 625 156 674.5 212 c 128,-1,33
 724 268 724 268 759.5 341.5 c 128,-1,34
 795 415 795 415 813.5 500 c 128,-1,35
 832 585 832 585 832 673 c 0,36,37
 832 765 832 765 787 814.5 c 128,-1,38
 742 864 742 864 657 864 c 0,39,40
 585 864 585 864 523 832.5 c 128,-1,41
 461 801 461 801 411.5 745 c 128,-1,42
 362 689 362 689 326.5 615.5 c 128,-1,43
 291 542 291 542 272 457 c 128,-1,44
 253 372 253 372 253 285 c 0,45,46
 253 193 253 193 299 143 c 128,-1,47
 345 93 345 93 429 93 c 0,30,31
482 1038 m 1,48,-1
 432 1128 l 1,49,-1
 1013 1453 l 1,50,-1
 1063 1363 l 1,51,-1
 482 1038 l 1,48,-1
EndSplineSet
EndChar

StartChar: uni0259
Encoding: 601 601 398
Width: 982
GlyphClass: 1
Flags: W
LayerCount: 2
Fore
SplineSet
348 86 m 0,0,1
 412 86 412 86 468.5 113.5 c 128,-1,2
 525 141 525 141 572.5 191 c 128,-1,3
 620 241 620 241 655 309.5 c 128,-1,4
 690 378 690 378 709 460 c 128,-1,5
 728 542 728 542 728 632 c 0,6,7
 728 763 728 763 681 812.5 c 128,-1,8
 634 862 634 862 537 862 c 0,9,10
 477 862 477 862 422 842 c 128,-1,11
 367 822 367 822 317 777.5 c 128,-1,12
 267 733 267 733 223 658 c 1,13,-1
 131 658 l 1,14,15
 193 788 193 788 263.5 863 c 128,-1,16
 334 938 334 938 414 969.5 c 128,-1,17
 494 1001 494 1001 582 1001 c 0,18,19
 689 1001 689 1001 760 965 c 128,-1,20
 831 929 831 929 867.5 857.5 c 128,-1,21
 904 786 904 786 904 676 c 0,22,23
 904 555 904 555 873.5 449 c 128,-1,24
 843 343 843 343 788 257 c 128,-1,25
 733 171 733 171 658 109 c 128,-1,26
 583 47 583 47 494.5 13.5 c 128,-1,27
 406 -20 406 -20 308 -20 c 0,28,29
 212 -20 212 -20 154 11.5 c 128,-1,30
 96 43 96 43 69.5 96.5 c 128,-1,31
 43 150 43 150 43 214 c 0,32,33
 43 264 43 264 59.5 315.5 c 128,-1,34
 76 367 76 367 103 403 c 1,35,36
 183 429 183 429 265.5 450.5 c 128,-1,37
 348 472 348 472 430 489.5 c 128,-1,38
 512 507 512 507 591.5 521.5 c 128,-1,39
 671 536 671 536 745 547 c 1,40,-1
 739 455 l 1,41,42
 589 429 589 429 491 406.5 c 128,-1,43
 393 384 393 384 336 363 c 128,-1,44
 279 342 279 342 251.5 320.5 c 128,-1,45
 224 299 224 299 216.5 274.5 c 128,-1,46
 209 250 209 250 209 219 c 0,47,48
 209 179 209 179 225 149 c 128,-1,49
 241 119 241 119 272 102.5 c 128,-1,50
 303 86 303 86 348 86 c 0,0,1
EndSplineSet
EndChar

StartChar: gravecomb
Encoding: 768 768 416
Width: 0
GlyphClass: 4
Flags: W
AnchorPoint: "Anchor-6" 294 1453 basemark 0
AnchorPoint: "Anchor-6" 151 987 mark 0
AnchorPoint: "Anchor-0" 151 987 mark 0
LayerCount: 2
Fore
SplineSet
247 1106 m 1,0,-1
 159 1106 l 1,1,-1
 -50 1400 l 1,2,-1
 -43 1433 l 1,3,-1
 152 1433 l 1,4,-1
 247 1106 l 1,0,-1
EndSplineSet
EndChar

StartChar: acutecomb
Encoding: 769 769 417
Width: 0
GlyphClass: 4
Flags: W
AnchorPoint: "Anchor-6" 293 1453 basemark 0
AnchorPoint: "Anchor-6" 151 987 mark 0
AnchorPoint: "Anchor-0" 151 987 mark 0
LayerCount: 2
Fore
SplineSet
127 1106 m 1,0,-1
 391 1433 l 1,1,-1
 615 1433 l 1,2,-1
 607 1400 l 1,3,-1
 227 1106 l 1,4,-1
 127 1106 l 1,0,-1
EndSplineSet
EndChar

StartChar: uni0302
Encoding: 770 770 418
Width: 0
GlyphClass: 4
Flags: W
AnchorPoint: "Anchor-6" 287 1433 basemark 0
AnchorPoint: "Anchor-6" 151 987 mark 0
AnchorPoint: "Anchor-0" 151 987 mark 0
LayerCount: 2
Fore
SplineSet
-124 1106 m 1,0,-1
 207 1433 l 1,1,-1
 367 1433 l 1,2,-1
 499 1106 l 1,3,-1
 390 1106 l 1,4,-1
 245 1328 l 1,5,-1
 287 1328 l 1,6,-1
 6 1106 l 1,7,-1
 -124 1106 l 1,0,-1
EndSplineSet
EndChar

StartChar: tildecomb
Encoding: 771 771 419
Width: 0
GlyphClass: 4
Flags: W
AnchorPoint: "Anchor-6" 263 1354 basemark 0
AnchorPoint: "Anchor-6" 151 987 mark 0
AnchorPoint: "Anchor-0" 151 987 mark 0
LayerCount: 2
Fore
SplineSet
577 1418 m 1,0,1
 529 1298 529 1298 490 1232 c 128,-1,2
 451 1166 451 1166 412 1140 c 128,-1,3
 373 1114 373 1114 328 1114 c 0,4,5
 287 1114 287 1114 259.5 1140 c 128,-1,6
 232 1166 232 1166 210 1200 c 128,-1,7
 188 1234 188 1234 167 1260.5 c 128,-1,8
 146 1287 146 1287 120 1287 c 0,9,10
 99 1287 99 1287 81 1275 c 128,-1,11
 63 1263 63 1263 41.5 1227.5 c 128,-1,12
 20 1192 20 1192 -11 1121 c 1,13,-1
 -112 1121 l 1,14,15
 -64 1241 -64 1241 -25 1307 c 128,-1,16
 14 1373 14 1373 53 1399 c 128,-1,17
 92 1425 92 1425 137 1425 c 0,18,19
 178 1425 178 1425 205.5 1399 c 128,-1,20
 233 1373 233 1373 255 1339 c 128,-1,21
 277 1305 277 1305 298 1278.5 c 128,-1,22
 319 1252 319 1252 345 1252 c 0,23,24
 366 1252 366 1252 384 1264 c 128,-1,25
 402 1276 402 1276 423.5 1312 c 128,-1,26
 445 1348 445 1348 476 1418 c 1,27,-1
 577 1418 l 1,0,1
EndSplineSet
EndChar

StartChar: uni0304
Encoding: 772 772 420
Width: 0
GlyphClass: 4
Flags: W
AnchorPoint: "Anchor-6" 287 1433 basemark 0
AnchorPoint: "Anchor-6" 151 987 mark 0
AnchorPoint: "Anchor-0" 151 987 mark 0
LayerCount: 2
Fore
SplineSet
-55 1212 m 1,0,-1
 -19 1328 l 1,1,-1
 529 1328 l 1,2,-1
 495 1212 l 1,3,-1
 -55 1212 l 1,0,-1
EndSplineSet
EndChar

StartChar: uni0306
Encoding: 774 774 421
Width: 0
GlyphClass: 4
Flags: W
AnchorPoint: "Anchor-6" 287 1433 basemark 0
AnchorPoint: "Anchor-6" 151 987 mark 0
AnchorPoint: "Anchor-0" 151 987 mark 0
LayerCount: 2
Fore
SplineSet
218 1232 m 0,0,1
 277 1232 277 1232 322.5 1250 c 128,-1,2
 368 1268 368 1268 407 1312.5 c 128,-1,3
 446 1357 446 1357 484 1433 c 1,4,-1
 578 1433 l 1,5,6
 519 1305 519 1305 462.5 1232 c 128,-1,7
 406 1159 406 1159 342 1129 c 128,-1,8
 278 1099 278 1099 193 1099 c 0,9,10
 105 1099 105 1099 56 1132 c 128,-1,11
 7 1165 7 1165 -7 1238.5 c 128,-1,12
 -21 1312 -21 1312 -4 1433 c 1,13,-1
 76 1433 l 1,14,15
 70 1355 70 1355 81.5 1311 c 128,-1,16
 93 1267 93 1267 127 1249.5 c 128,-1,17
 161 1232 161 1232 218 1232 c 0,0,1
EndSplineSet
EndChar

StartChar: uni0307
Encoding: 775 775 422
Width: 0
GlyphClass: 4
Flags: W
AnchorPoint: "Anchor-6" 263 1354 basemark 0
AnchorPoint: "Anchor-6" 151 987 mark 0
AnchorPoint: "Anchor-0" 151 987 mark 0
LayerCount: 2
Fore
SplineSet
225 1156 m 0,0,1
 169 1156 169 1156 137 1183.5 c 128,-1,2
 105 1211 105 1211 105 1258 c 0,3,4
 105 1314 105 1314 141 1349 c 128,-1,5
 177 1384 177 1384 249 1384 c 0,6,7
 307 1384 307 1384 338 1357.5 c 128,-1,8
 369 1331 369 1331 369 1283 c 0,9,10
 369 1227 369 1227 333.5 1191.5 c 128,-1,11
 298 1156 298 1156 225 1156 c 0,0,1
EndSplineSet
EndChar

StartChar: uni0308
Encoding: 776 776 423
Width: 0
GlyphClass: 4
Flags: W
AnchorPoint: "Anchor-6" 263 1354 basemark 0
AnchorPoint: "Anchor-6" 151 987 mark 0
AnchorPoint: "Anchor-0" 151 987 mark 0
LayerCount: 2
Fore
SplineSet
19 1161 m 0,0,1
 -30 1161 -30 1161 -58 1187 c 128,-1,2
 -86 1213 -86 1213 -86 1258 c 0,3,4
 -86 1292 -86 1292 -72 1319 c 128,-1,5
 -58 1346 -58 1346 -28.5 1362.5 c 128,-1,6
 1 1379 1 1379 44 1379 c 0,7,8
 94 1379 94 1379 121.5 1354 c 128,-1,9
 149 1329 149 1329 149 1283 c 0,10,11
 149 1249 149 1249 135 1221.5 c 128,-1,12
 121 1194 121 1194 92 1177.5 c 128,-1,13
 63 1161 63 1161 19 1161 c 0,0,1
430 1161 m 0,14,15
 381 1161 381 1161 353 1187 c 128,-1,16
 325 1213 325 1213 325 1258 c 0,17,18
 325 1292 325 1292 339 1319 c 128,-1,19
 353 1346 353 1346 382 1362.5 c 128,-1,20
 411 1379 411 1379 454 1379 c 0,21,22
 504 1379 504 1379 532 1354 c 128,-1,23
 560 1329 560 1329 560 1283 c 0,24,25
 560 1249 560 1249 545.5 1221.5 c 128,-1,26
 531 1194 531 1194 502.5 1177.5 c 128,-1,27
 474 1161 474 1161 430 1161 c 0,14,15
EndSplineSet
EndChar

StartChar: hookabovecomb
Encoding: 777 777 424
Width: 0
GlyphClass: 4
Flags: W
AnchorPoint: "Anchor-6" 287 1433 basemark 0
AnchorPoint: "Anchor-6" 151 987 mark 0
AnchorPoint: "Anchor-0" 151 987 mark 0
LayerCount: 2
Fore
SplineSet
79 1345 m 1,0,-1
 123 1473 l 1,1,2
 251 1468 251 1468 318 1447.5 c 128,-1,3
 385 1427 385 1427 410 1394.5 c 128,-1,4
 435 1362 435 1362 435 1322 c 0,5,6
 435 1268 435 1268 408.5 1224 c 128,-1,7
 382 1180 382 1180 312.5 1147.5 c 128,-1,8
 243 1115 243 1115 112 1092 c 1,9,-1
 113 1154 l 1,10,11
 194 1171 194 1171 233.5 1189 c 128,-1,12
 273 1207 273 1207 286 1227.5 c 128,-1,13
 299 1248 299 1248 299 1271 c 0,14,15
 299 1293 299 1293 282 1309 c 128,-1,16
 265 1325 265 1325 218 1334 c 128,-1,17
 171 1343 171 1343 79 1345 c 1,0,-1
EndSplineSet
EndChar

StartChar: uni030A
Encoding: 778 778 425
Width: 0
GlyphClass: 4
Flags: W
AnchorPoint: "Anchor-6" 288 1436 basemark 0
AnchorPoint: "Anchor-6" 151 987 mark 0
AnchorPoint: "Anchor-0" 151 987 mark 0
LayerCount: 2
Fore
SplineSet
266 1453 m 0,0,1
 339 1453 339 1453 381.5 1412 c 128,-1,2
 424 1371 424 1371 424 1305 c 0,3,4
 424 1217 424 1217 367 1153.5 c 128,-1,5
 310 1090 310 1090 207 1090 c 0,6,7
 135 1090 135 1090 92 1131 c 128,-1,8
 49 1172 49 1172 49 1238 c 0,9,10
 49 1326 49 1326 106.5 1389.5 c 128,-1,11
 164 1453 164 1453 266 1453 c 0,0,1
216 1153 m 0,12,13
 285 1153 285 1153 320 1197.5 c 128,-1,14
 355 1242 355 1242 355 1297 c 0,15,16
 355 1342 355 1342 330 1366.5 c 128,-1,17
 305 1391 305 1391 257 1391 c 0,18,19
 188 1391 188 1391 153 1347 c 128,-1,20
 118 1303 118 1303 118 1246 c 0,21,22
 118 1202 118 1202 143.5 1177.5 c 128,-1,23
 169 1153 169 1153 216 1153 c 0,12,13
EndSplineSet
EndChar

StartChar: uni030B
Encoding: 779 779 426
Width: 0
GlyphClass: 4
Flags: W
AnchorPoint: "Anchor-6" 287 1433 basemark 0
AnchorPoint: "Anchor-6" 151 987 mark 0
AnchorPoint: "Anchor-0" 151 987 mark 0
LayerCount: 2
Fore
SplineSet
263 1106 m 1,0,-1
 540 1433 l 1,1,-1
 753 1433 l 1,2,-1
 744 1400 l 1,3,-1
 358 1106 l 1,4,-1
 263 1106 l 1,0,-1
-3 1106 m 1,5,-1
 185 1433 l 1,6,-1
 381 1433 l 1,7,-1
 373 1403 l 1,8,-1
 79 1106 l 1,9,-1
 -3 1106 l 1,5,-1
EndSplineSet
EndChar

StartChar: uni030C
Encoding: 780 780 427
Width: 0
GlyphClass: 4
Flags: W
AnchorPoint: "Anchor-6" 287 1433 basemark 0
AnchorPoint: "Anchor-6" 151 987 mark 0
AnchorPoint: "Anchor-0" 151 987 mark 0
LayerCount: 2
Fore
SplineSet
599 1433 m 1,0,-1
 267 1106 l 1,1,-1
 108 1106 l 1,2,-1
 -23 1433 l 1,3,-1
 84 1433 l 1,4,-1
 230 1211 l 1,5,-1
 188 1211 l 1,6,-1
 469 1433 l 1,7,-1
 599 1433 l 1,0,-1
EndSplineSet
EndChar

StartChar: uni030F
Encoding: 783 783 428
Width: 0
GlyphClass: 4
Flags: W
AnchorPoint: "Anchor-6" 287 1433 basemark 0
AnchorPoint: "Anchor-6" 151 987 mark 0
AnchorPoint: "Anchor-0" 151 987 mark 0
LayerCount: 2
Fore
SplineSet
113 1106 m 1,0,-1
 21 1106 l 1,1,-1
 -187 1400 l 1,2,-1
 -181 1433 l 1,3,-1
 2 1433 l 1,4,-1
 113 1106 l 1,0,-1
381 1106 m 1,5,-1
 297 1106 l 1,6,-1
 182 1403 l 1,7,-1
 188 1433 l 1,8,-1
 362 1433 l 1,9,-1
 381 1106 l 1,5,-1
EndSplineSet
EndChar

StartChar: uni0311
Encoding: 785 785 429
Width: 0
GlyphClass: 4
Flags: W
AnchorPoint: "Anchor-6" 287 1433 basemark 0
AnchorPoint: "Anchor-6" 151 987 mark 0
AnchorPoint: "Anchor-0" 151 987 mark 0
LayerCount: 2
Fore
SplineSet
256 1307 m 0,0,1
 199 1307 199 1307 153.5 1289 c 128,-1,2
 108 1271 108 1271 68.5 1227 c 128,-1,3
 29 1183 29 1183 -9 1106 c 1,4,-1
 -104 1106 l 1,5,6
 -44 1234 -44 1234 12 1307 c 128,-1,7
 68 1380 68 1380 133 1410 c 128,-1,8
 198 1440 198 1440 281 1440 c 0,9,10
 370 1440 370 1440 419 1407 c 128,-1,11
 468 1374 468 1374 482 1301 c 128,-1,12
 496 1228 496 1228 479 1106 c 1,13,-1
 399 1106 l 1,14,15
 410 1223 410 1223 377 1265 c 128,-1,16
 344 1307 344 1307 256 1307 c 0,0,1
EndSplineSet
EndChar

StartChar: uni0312
Encoding: 786 786 430
Width: 0
GlyphClass: 4
Flags: W
AnchorPoint: "Anchor-6" 289 1438 basemark 0
AnchorPoint: "Anchor-6" 151 987 mark 0
AnchorPoint: "Anchor-0" 151 987 mark 0
LayerCount: 2
Fore
SplineSet
334 1201 m 0,0,1
 334 1163 334 1163 299.5 1129 c 128,-1,2
 265 1095 265 1095 208 1095 c 0,3,4
 161 1095 161 1095 132.5 1121.5 c 128,-1,5
 104 1148 104 1148 104 1200 c 256,6,7
 104 1252 104 1252 131 1303.5 c 128,-1,8
 158 1355 158 1355 226 1397 c 128,-1,9
 294 1439 294 1439 418 1461 c 1,10,-1
 412 1397 l 1,11,12
 340 1382 340 1382 303.5 1361.5 c 128,-1,13
 267 1341 267 1341 254 1319.5 c 128,-1,14
 241 1298 241 1298 241 1281 c 0,15,16
 241 1256 241 1256 264.5 1243.5 c 128,-1,17
 288 1231 288 1231 311 1222.5 c 128,-1,18
 334 1214 334 1214 334 1201 c 0,0,1
EndSplineSet
EndChar

StartChar: uni0335
Encoding: 821 821 431
Width: 0
GlyphClass: 4
Flags: W
AnchorPoint: "Anchor-1" 208 1175 mark 0
LayerCount: 2
Fore
SplineSet
-140 1119 m 1,0,-1
 -106 1231 l 1,1,-1
 557 1231 l 1,2,-1
 523 1119 l 1,3,-1
 -140 1119 l 1,0,-1
EndSplineSet
EndChar

StartChar: uni031B
Encoding: 795 795 432
Width: 0
GlyphClass: 4
Flags: W
AnchorPoint: "Anchor-2" 151 987 mark 0
LayerCount: 2
Fore
SplineSet
510 1173 m 0,0,1
 510 1102 510 1102 471 1042.5 c 128,-1,2
 432 983 432 983 360 947.5 c 128,-1,3
 288 912 288 912 188 912 c 2,4,-1
 59 912 l 1,5,-1
 83 987 l 1,6,-1
 180 987 l 2,7,8
 270 987 270 987 307.5 1020 c 128,-1,9
 345 1053 345 1053 345 1105 c 0,10,11
 345 1135 345 1135 334 1157.5 c 128,-1,12
 323 1180 323 1180 323 1191 c 0,13,14
 323 1215 323 1215 350.5 1240 c 128,-1,15
 378 1265 378 1265 421 1265 c 0,16,17
 461 1265 461 1265 485.5 1242 c 128,-1,18
 510 1219 510 1219 510 1173 c 0,0,1
EndSplineSet
EndChar

StartChar: uni0302_acutecomb
Encoding: 65539 -1 433
Width: 0
GlyphClass: 1
Flags: W
LayerCount: 2
Fore
SplineSet
500 1304 m 1,0,-1
 697 1572 l 1,1,-1
 920 1572 l 1,2,-1
 912 1541 l 1,3,-1
 595 1304 l 1,4,-1
 500 1304 l 1,0,-1
-124 1106 m 1,5,-1
 207 1433 l 1,6,-1
 367 1433 l 1,7,-1
 499 1106 l 1,8,-1
 390 1106 l 1,9,-1
 245 1328 l 1,10,-1
 287 1328 l 1,11,-1
 6 1106 l 1,12,-1
 -124 1106 l 1,5,-1
EndSplineSet
EndChar

StartChar: uni0302_gravecomb
Encoding: 65540 -1 434
Width: 0
GlyphClass: 1
Flags: W
LayerCount: 2
Fore
SplineSet
-12 1304 m 1,0,-1
 -93 1304 l 1,1,-1
 -279 1541 l 1,2,-1
 -274 1572 l 1,3,-1
 -87 1572 l 1,4,-1
 -12 1304 l 1,0,-1
-124 1106 m 1,5,-1
 207 1433 l 1,6,-1
 367 1433 l 1,7,-1
 499 1106 l 1,8,-1
 390 1106 l 1,9,-1
 245 1328 l 1,10,-1
 287 1328 l 1,11,-1
 6 1106 l 1,12,-1
 -124 1106 l 1,5,-1
EndSplineSet
EndChar

StartChar: uni0302_hookabovecomb
Encoding: 65541 -1 435
Width: 0
GlyphClass: 1
Flags: W
LayerCount: 2
Fore
SplineSet
520 1365 m 1,0,1
 587 1381 587 1381 621.5 1399.5 c 128,-1,2
 656 1418 656 1418 668.5 1439 c 128,-1,3
 681 1460 681 1460 681 1484 c 0,4,5
 681 1506 681 1506 666.5 1522.5 c 128,-1,6
 652 1539 652 1539 607.5 1549.5 c 128,-1,7
 563 1560 563 1560 474 1561 c 1,8,-1
 518 1688 l 1,9,10
 639 1683 639 1683 704 1662.5 c 128,-1,11
 769 1642 769 1642 794.5 1609.5 c 128,-1,12
 820 1577 820 1577 820 1536 c 0,13,14
 820 1483 820 1483 794 1438 c 128,-1,15
 768 1393 768 1393 703 1358 c 128,-1,16
 638 1323 638 1323 520 1300 c 1,17,-1
 520 1365 l 1,0,1
-124 1106 m 1,18,-1
 207 1433 l 1,19,-1
 367 1433 l 1,20,-1
 499 1106 l 1,21,-1
 390 1106 l 1,22,-1
 245 1328 l 1,23,-1
 287 1328 l 1,24,-1
 6 1106 l 1,25,-1
 -124 1106 l 1,18,-1
EndSplineSet
EndChar

StartChar: uni0302_tildecomb
Encoding: 65542 -1 436
Width: 0
GlyphClass: 1
Flags: W
LayerCount: 2
Fore
SplineSet
258 1226 m 1,0,-1
 6 1068 l 1,1,-1
 -114 1068 l 1,2,-1
 162 1308 l 1,3,-1
 337 1308 l 1,4,-1
 466 1068 l 1,5,-1
 367 1068 l 1,6,-1
 210 1226 l 1,7,-1
 258 1226 l 1,0,-1
593 1568 m 1,8,9
 558 1486 558 1486 528 1440 c 128,-1,10
 498 1394 498 1394 465 1376 c 128,-1,11
 432 1358 432 1358 388 1358 c 0,12,13
 356 1358 356 1358 326.5 1373 c 128,-1,14
 297 1388 297 1388 269.5 1408.5 c 128,-1,15
 242 1429 242 1429 217 1444.5 c 128,-1,16
 192 1460 192 1460 169 1460 c 0,17,18
 140 1460 140 1460 119 1441.5 c 128,-1,19
 98 1423 98 1423 68 1361 c 1,20,-1
 -18 1361 l 1,21,22
 19 1444 19 1444 48.5 1489.5 c 128,-1,23
 78 1535 78 1535 110.5 1553.5 c 128,-1,24
 143 1572 143 1572 187 1572 c 0,25,26
 220 1572 220 1572 249 1556.5 c 128,-1,27
 278 1541 278 1541 305.5 1520.5 c 128,-1,28
 333 1500 333 1500 358 1484.5 c 128,-1,29
 383 1469 383 1469 407 1469 c 0,30,31
 435 1469 435 1469 456.5 1488 c 128,-1,32
 478 1507 478 1507 507 1568 c 1,33,-1
 593 1568 l 1,8,9
EndSplineSet
EndChar

StartChar: uni0306_acutecomb
Encoding: 65543 -1 437
Width: 0
GlyphClass: 1
Flags: W
LayerCount: 2
Fore
SplineSet
185 1284 m 1,0,-1
 392 1568 l 1,1,-1
 585 1568 l 1,2,-1
 579 1545 l 1,3,-1
 263 1284 l 1,4,-1
 185 1284 l 1,0,-1
200 1172 m 0,5,6
 287 1172 287 1172 338.5 1203 c 128,-1,7
 390 1234 390 1234 430 1304 c 1,8,-1
 521 1304 l 1,9,10
 472 1204 472 1204 423.5 1152 c 128,-1,11
 375 1100 375 1100 317.5 1081 c 128,-1,12
 260 1062 260 1062 181 1062 c 0,13,14
 101 1062 101 1062 51.5 1082.5 c 128,-1,15
 2 1103 2 1103 -17.5 1155.5 c 128,-1,16
 -37 1208 -37 1208 -26 1304 c 1,17,-1
 50 1304 l 1,18,19
 48 1234 48 1234 78.5 1203 c 128,-1,20
 109 1172 109 1172 200 1172 c 0,5,6
EndSplineSet
EndChar

StartChar: uni0306_gravecomb
Encoding: 65544 -1 438
Width: 0
GlyphClass: 1
Flags: W
LayerCount: 2
Fore
SplineSet
266 1284 m 1,0,-1
 199 1284 l 1,1,-1
 32 1545 l 1,2,-1
 36 1568 l 1,3,-1
 205 1568 l 1,4,-1
 266 1284 l 1,0,-1
200 1172 m 0,5,6
 287 1172 287 1172 338.5 1203 c 128,-1,7
 390 1234 390 1234 430 1304 c 1,8,-1
 521 1304 l 1,9,10
 472 1204 472 1204 423.5 1152 c 128,-1,11
 375 1100 375 1100 317.5 1081 c 128,-1,12
 260 1062 260 1062 181 1062 c 0,13,14
 101 1062 101 1062 51.5 1082.5 c 128,-1,15
 2 1103 2 1103 -17.5 1155.5 c 128,-1,16
 -37 1208 -37 1208 -26 1304 c 1,17,-1
 50 1304 l 1,18,19
 48 1234 48 1234 78.5 1203 c 128,-1,20
 109 1172 109 1172 200 1172 c 0,5,6
EndSplineSet
EndChar

StartChar: uni0306_hookabovecomb
Encoding: 65545 -1 439
Width: 0
GlyphClass: 1
Flags: W
LayerCount: 2
Fore
SplineSet
200 1172 m 0,0,1
 287 1172 287 1172 338.5 1203 c 128,-1,2
 390 1234 390 1234 430 1304 c 1,3,-1
 521 1304 l 1,4,5
 472 1204 472 1204 423.5 1152 c 128,-1,6
 375 1100 375 1100 317.5 1081 c 128,-1,7
 260 1062 260 1062 181 1062 c 0,8,9
 101 1062 101 1062 51.5 1082.5 c 128,-1,10
 2 1103 2 1103 -17.5 1155.5 c 128,-1,11
 -37 1208 -37 1208 -26 1304 c 1,12,-1
 50 1304 l 1,13,14
 48 1234 48 1234 78.5 1203 c 128,-1,15
 109 1172 109 1172 200 1172 c 0,0,1
202 1282 m 1,16,-1
 202 1345 l 1,17,18
 300 1366 300 1366 330 1391 c 128,-1,19
 360 1416 360 1416 360 1447 c 0,20,21
 360 1472 360 1472 326 1487.5 c 128,-1,22
 292 1503 292 1503 182 1507 c 1,23,-1
 218 1621 l 1,24,25
 318 1616 318 1616 373.5 1597.5 c 128,-1,26
 429 1579 429 1579 450.5 1551 c 128,-1,27
 472 1523 472 1523 472 1486 c 0,28,29
 472 1411 472 1411 413.5 1360.5 c 128,-1,30
 355 1310 355 1310 202 1282 c 1,16,-1
EndSplineSet
EndChar

StartChar: uni0306_tildecomb
Encoding: 65546 -1 440
Width: 0
GlyphClass: 1
Flags: W
LayerCount: 2
Fore
SplineSet
200 1172 m 0,0,1
 287 1172 287 1172 338.5 1203 c 128,-1,2
 390 1234 390 1234 430 1304 c 1,3,-1
 521 1304 l 1,4,5
 472 1204 472 1204 423.5 1152 c 128,-1,6
 375 1100 375 1100 317.5 1081 c 128,-1,7
 260 1062 260 1062 181 1062 c 0,8,9
 101 1062 101 1062 51.5 1082.5 c 128,-1,10
 2 1103 2 1103 -17.5 1155.5 c 128,-1,11
 -37 1208 -37 1208 -26 1304 c 1,12,-1
 50 1304 l 1,13,14
 48 1234 48 1234 78.5 1203 c 128,-1,15
 109 1172 109 1172 200 1172 c 0,0,1
594 1568 m 1,16,17
 558 1486 558 1486 528 1440 c 128,-1,18
 498 1394 498 1394 465.5 1376 c 128,-1,19
 433 1358 433 1358 389 1358 c 0,20,21
 357 1358 357 1358 327.5 1373 c 128,-1,22
 298 1388 298 1388 270.5 1408.5 c 128,-1,23
 243 1429 243 1429 217.5 1444.5 c 128,-1,24
 192 1460 192 1460 169 1460 c 0,25,26
 141 1460 141 1460 119.5 1441.5 c 128,-1,27
 98 1423 98 1423 69 1361 c 1,28,-1
 -17 1361 l 1,29,30
 19 1444 19 1444 49 1489.5 c 128,-1,31
 79 1535 79 1535 111.5 1553.5 c 128,-1,32
 144 1572 144 1572 188 1572 c 0,33,34
 220 1572 220 1572 249.5 1556.5 c 128,-1,35
 279 1541 279 1541 306 1520.5 c 128,-1,36
 333 1500 333 1500 358.5 1484.5 c 128,-1,37
 384 1469 384 1469 407 1469 c 0,38,39
 436 1469 436 1469 457.5 1488 c 128,-1,40
 479 1507 479 1507 508 1568 c 1,41,-1
 594 1568 l 1,16,17
EndSplineSet
EndChar

StartChar: caroncomb.alt
Encoding: 65547 -1 441
Width: 0
GlyphClass: 1
Flags: W
LayerCount: 2
Fore
SplineSet
312 1059 m 1,0,-1
 484 1448 l 1,1,-1
 676 1448 l 1,2,-1
 667 1417 l 1,3,-1
 396 1059 l 1,4,-1
 312 1059 l 1,0,-1
EndSplineSet
EndChar

StartChar: dotbelowcomb
Encoding: 803 803 442
Width: 0
GlyphClass: 4
Flags: W
AnchorPoint: "Anchor-5" -298 -481 basemark 0
AnchorPoint: "Anchor-5" -151 0 mark 0
AnchorPoint: "Anchor-4" -151 0 mark 0
LayerCount: 2
Fore
SplineSet
-233 -342 m 0,0,1
 -289 -342 -289 -342 -320.5 -314.5 c 128,-1,2
 -352 -287 -352 -287 -352 -239 c 0,3,4
 -352 -184 -352 -184 -316 -149 c 128,-1,5
 -280 -114 -280 -114 -208 -114 c 0,6,7
 -150 -114 -150 -114 -119 -140.5 c 128,-1,8
 -88 -167 -88 -167 -88 -214 c 0,9,10
 -88 -270 -88 -270 -124 -306 c 128,-1,11
 -160 -342 -160 -342 -233 -342 c 0,0,1
EndSplineSet
EndChar

StartChar: uni0324
Encoding: 804 804 443
Width: 0
GlyphClass: 4
Flags: W
AnchorPoint: "Anchor-5" -297 -481 basemark 0
AnchorPoint: "Anchor-5" -151 0 mark 0
AnchorPoint: "Anchor-4" -151 0 mark 0
LayerCount: 2
Fore
SplineSet
-438 -336 m 0,0,1
 -487 -336 -487 -336 -515 -310 c 128,-1,2
 -543 -284 -543 -284 -543 -238 c 0,3,4
 -543 -205 -543 -205 -529 -177.5 c 128,-1,5
 -515 -150 -515 -150 -486 -134 c 128,-1,6
 -457 -118 -457 -118 -413 -118 c 0,7,8
 -364 -118 -364 -118 -336 -143 c 128,-1,9
 -308 -168 -308 -168 -308 -214 c 0,10,11
 -308 -247 -308 -247 -322 -275 c 128,-1,12
 -336 -303 -336 -303 -365 -319.5 c 128,-1,13
 -394 -336 -394 -336 -438 -336 c 0,0,1
-27 -336 m 0,14,15
 -76 -336 -76 -336 -104.5 -310 c 128,-1,16
 -133 -284 -133 -284 -133 -238 c 0,17,18
 -133 -205 -133 -205 -118.5 -177.5 c 128,-1,19
 -104 -150 -104 -150 -75 -134 c 128,-1,20
 -46 -118 -46 -118 -3 -118 c 0,21,22
 47 -118 47 -118 75 -143 c 128,-1,23
 103 -168 103 -168 103 -214 c 0,24,25
 103 -247 103 -247 89 -275 c 128,-1,26
 75 -303 75 -303 46 -319.5 c 128,-1,27
 17 -336 17 -336 -27 -336 c 0,14,15
EndSplineSet
EndChar

StartChar: uni0326
Encoding: 806 806 444
Width: 0
GlyphClass: 4
Flags: W
AnchorPoint: "Anchor-5" -297 -481 basemark 0
AnchorPoint: "Anchor-5" -151 0 mark 0
AnchorPoint: "Anchor-4" -151 0 mark 0
LayerCount: 2
Fore
SplineSet
-311 -193 m 0,0,1
 -311 -157 -311 -157 -280 -122.5 c 128,-1,2
 -249 -88 -249 -88 -184 -88 c 0,3,4
 -138 -88 -138 -88 -110.5 -113 c 128,-1,5
 -83 -138 -83 -138 -83 -193 c 0,6,7
 -83 -249 -83 -249 -111 -303.5 c 128,-1,8
 -139 -358 -139 -358 -207.5 -401 c 128,-1,9
 -276 -444 -276 -444 -398 -466 c 1,10,-1
 -392 -402 l 1,11,12
 -320 -387 -320 -387 -283 -366 c 128,-1,13
 -246 -345 -246 -345 -232 -322.5 c 128,-1,14
 -218 -300 -218 -300 -218 -280 c 0,15,16
 -218 -254 -218 -254 -241.5 -240 c 128,-1,17
 -265 -226 -265 -226 -288 -216 c 128,-1,18
 -311 -206 -311 -206 -311 -193 c 0,0,1
EndSplineSet
EndChar

StartChar: uni0327
Encoding: 807 807 445
Width: 0
GlyphClass: 4
Flags: W
AnchorPoint: "Anchor-5" -297 -481 basemark 0
AnchorPoint: "Anchor-5" -151 0 mark 0
AnchorPoint: "Anchor-4" -151 0 mark 0
LayerCount: 2
Fore
SplineSet
-344 -481 m 0,0,1
 -416 -481 -416 -481 -444.5 -462.5 c 128,-1,2
 -473 -444 -473 -444 -473 -415 c 0,3,4
 -473 -391 -473 -391 -458 -374.5 c 128,-1,5
 -443 -358 -443 -358 -419 -358 c 0,6,7
 -407 -358 -407 -358 -393 -372 c 128,-1,8
 -379 -386 -379 -386 -358.5 -400 c 128,-1,9
 -338 -414 -338 -414 -304 -414 c 0,10,11
 -245 -414 -245 -414 -212 -384.5 c 128,-1,12
 -179 -355 -179 -355 -179 -308 c 0,13,14
 -179 -274 -179 -274 -217.5 -250 c 128,-1,15
 -256 -226 -256 -226 -359 -209 c 1,16,-1
 -353 -190 l 1,17,-1
 -151 27 l 1,18,-1
 -62 27 l 1,19,-1
 -257 -180 l 1,20,-1
 -247 -112 l 1,21,22
 -139 -134 -139 -134 -98 -173 c 128,-1,23
 -57 -212 -57 -212 -57 -262 c 0,24,25
 -57 -323 -57 -323 -90 -372.5 c 128,-1,26
 -123 -422 -123 -422 -187 -451.5 c 128,-1,27
 -251 -481 -251 -481 -344 -481 c 0,0,1
EndSplineSet
EndChar

StartChar: uni0328
Encoding: 808 808 446
Width: 0
GlyphClass: 4
Flags: W
AnchorPoint: "Anchor-3" -205 0 mark 0
LayerCount: 2
Fore
SplineSet
-337 -117 m 2,0,1
 -387 -167 -387 -167 -412.5 -202 c 128,-1,2
 -438 -237 -438 -237 -447 -262.5 c 128,-1,3
 -456 -288 -456 -288 -456 -311 c 0,4,5
 -456 -345 -456 -345 -434.5 -364 c 128,-1,6
 -413 -383 -413 -383 -373 -383 c 0,7,8
 -344 -383 -344 -383 -314.5 -374 c 128,-1,9
 -285 -365 -285 -365 -239 -336 c 1,10,-1
 -235 -391 l 1,11,12
 -301 -442 -301 -442 -349.5 -461.5 c 128,-1,13
 -398 -481 -398 -481 -451 -481 c 0,14,15
 -517 -481 -517 -481 -550 -446 c 128,-1,16
 -583 -411 -583 -411 -583 -357 c 0,17,18
 -583 -323 -583 -323 -570.5 -288 c 128,-1,19
 -558 -253 -558 -253 -520.5 -208.5 c 128,-1,20
 -483 -164 -483 -164 -409 -101 c 2,21,-1
 -251 39 l 1,22,-1
 -184 39 l 1,23,-1
 -337 -117 l 2,0,1
EndSplineSet
EndChar

StartChar: uni032E
Encoding: 814 814 447
Width: 0
GlyphClass: 4
Flags: W
AnchorPoint: "Anchor-5" -298 -481 basemark 0
AnchorPoint: "Anchor-5" -151 0 mark 0
AnchorPoint: "Anchor-4" -151 0 mark 0
LayerCount: 2
Fore
SplineSet
-228 -261 m 0,0,1
 -170 -261 -170 -261 -124.5 -243 c 128,-1,2
 -79 -225 -79 -225 -39.5 -180.5 c 128,-1,3
 0 -136 0 -136 37 -60 c 1,4,-1
 132 -60 l 1,5,6
 73 -188 73 -188 16.5 -261 c 128,-1,7
 -40 -334 -40 -334 -104.5 -364 c 128,-1,8
 -169 -394 -169 -394 -253 -394 c 0,9,10
 -342 -394 -342 -394 -391 -361 c 128,-1,11
 -440 -328 -440 -328 -453.5 -254.5 c 128,-1,12
 -467 -181 -467 -181 -450 -60 c 1,13,-1
 -371 -60 l 1,14,15
 -380 -177 -380 -177 -347.5 -219 c 128,-1,16
 -315 -261 -315 -261 -228 -261 c 0,0,1
EndSplineSet
EndChar

StartChar: uni0331
Encoding: 817 817 448
Width: 0
GlyphClass: 4
Flags: W
AnchorPoint: "Anchor-5" -298 -481 basemark 0
AnchorPoint: "Anchor-5" -151 0 mark 0
AnchorPoint: "Anchor-4" -151 0 mark 0
LayerCount: 2
Fore
SplineSet
-513 -288 m 1,0,-1
 -477 -173 l 1,1,-1
 71 -173 l 1,2,-1
 35 -288 l 1,3,-1
 -513 -288 l 1,0,-1
EndSplineSet
EndChar

StartChar: uni02B9
Encoding: 697 697 449
Width: 413
GlyphClass: 1
Flags: W
LayerCount: 2
Fore
SplineSet
224 917 m 1,0,-1
 421 1396 l 1,1,-1
 599 1396 l 1,2,-1
 589 1358 l 1,3,-1
 318 917 l 1,4,-1
 224 917 l 1,0,-1
EndSplineSet
EndChar

StartChar: gravecomb.case
Encoding: 65548 -1 451
Width: 0
GlyphClass: 1
Flags: W
LayerCount: 2
Fore
SplineSet
367 1527 m 1,0,-1
 283 1527 l 1,1,-1
 76 1799 l 1,2,-1
 82 1832 l 1,3,-1
 276 1832 l 1,4,-1
 367 1527 l 1,0,-1
EndSplineSet
EndChar

StartChar: acutecomb.case
Encoding: 65549 -1 452
Width: 0
GlyphClass: 1
Flags: W
LayerCount: 2
Fore
SplineSet
261 1527 m 1,0,-1
 506 1832 l 1,1,-1
 731 1832 l 1,2,-1
 723 1799 l 1,3,-1
 359 1527 l 1,4,-1
 261 1527 l 1,0,-1
EndSplineSet
EndChar

StartChar: uni0302.case
Encoding: 65550 -1 453
Width: 0
GlyphClass: 1
Flags: W
LayerCount: 2
Fore
SplineSet
3 1527 m 1,0,-1
 330 1832 l 1,1,-1
 487 1832 l 1,2,-1
 630 1527 l 1,3,-1
 518 1527 l 1,4,-1
 367 1731 l 1,5,-1
 409 1731 l 1,6,-1
 134 1527 l 1,7,-1
 3 1527 l 1,0,-1
EndSplineSet
EndChar

StartChar: tildecomb.case
Encoding: 65551 -1 454
Width: 0
GlyphClass: 1
Flags: W
LayerCount: 2
Fore
SplineSet
706 1820 m 1,0,1
 658 1703 658 1703 619 1641 c 128,-1,2
 580 1579 580 1579 541.5 1555.5 c 128,-1,3
 503 1532 503 1532 458 1532 c 0,4,5
 418 1532 418 1532 388.5 1556 c 128,-1,6
 359 1580 359 1580 335 1611 c 128,-1,7
 311 1642 311 1642 288 1666 c 128,-1,8
 265 1690 265 1690 238 1690 c 0,9,10
 217 1690 217 1690 199 1679.5 c 128,-1,11
 181 1669 181 1669 160.5 1636.5 c 128,-1,12
 140 1604 140 1604 110 1538 c 1,13,-1
 10 1538 l 1,14,15
 58 1656 58 1656 96.5 1718 c 128,-1,16
 135 1780 135 1780 173.5 1803.5 c 128,-1,17
 212 1827 212 1827 258 1827 c 0,18,19
 297 1827 297 1827 326.5 1803 c 128,-1,20
 356 1779 356 1779 380.5 1748 c 128,-1,21
 405 1717 405 1717 428 1693 c 128,-1,22
 451 1669 451 1669 477 1669 c 0,23,24
 498 1669 498 1669 516 1679.5 c 128,-1,25
 534 1690 534 1690 555 1722.5 c 128,-1,26
 576 1755 576 1755 605 1820 c 1,27,-1
 706 1820 l 1,0,1
EndSplineSet
EndChar

StartChar: uni0304.case
Encoding: 65552 -1 455
Width: 0
GlyphClass: 1
Flags: W
LayerCount: 2
Fore
SplineSet
70 1622 m 1,0,-1
 106 1738 l 1,1,-1
 654 1738 l 1,2,-1
 620 1622 l 1,3,-1
 70 1622 l 1,0,-1
EndSplineSet
EndChar

StartChar: uni0306.case
Encoding: 65553 -1 456
Width: 0
GlyphClass: 1
Flags: W
LayerCount: 2
Fore
SplineSet
347 1651 m 0,0,1
 406 1651 406 1651 450.5 1667.5 c 128,-1,2
 495 1684 495 1684 532 1724 c 128,-1,3
 569 1764 569 1764 604 1832 c 1,4,-1
 699 1832 l 1,5,6
 643 1712 643 1712 588 1644 c 128,-1,7
 533 1576 533 1576 469.5 1548.5 c 128,-1,8
 406 1521 406 1521 322 1521 c 0,9,10
 234 1521 234 1521 185 1552 c 128,-1,11
 136 1583 136 1583 120.5 1651.5 c 128,-1,12
 105 1720 105 1720 119 1832 c 1,13,-1
 201 1832 l 1,14,15
 195 1764 195 1764 207 1724.5 c 128,-1,16
 219 1685 219 1685 253 1668 c 128,-1,17
 287 1651 287 1651 347 1651 c 0,0,1
EndSplineSet
EndChar

StartChar: uni0307.case
Encoding: 65554 -1 457
Width: 0
GlyphClass: 1
Flags: W
LayerCount: 2
Fore
SplineSet
350 1565 m 0,0,1
 294 1565 294 1565 262 1593 c 128,-1,2
 230 1621 230 1621 230 1668 c 0,3,4
 230 1723 230 1723 266 1758 c 128,-1,5
 302 1793 302 1793 374 1793 c 0,6,7
 432 1793 432 1793 463 1767 c 128,-1,8
 494 1741 494 1741 494 1693 c 0,9,10
 494 1637 494 1637 458.5 1601 c 128,-1,11
 423 1565 423 1565 350 1565 c 0,0,1
EndSplineSet
EndChar

StartChar: uni0308.case
Encoding: 65555 -1 458
Width: 0
GlyphClass: 1
Flags: W
LayerCount: 2
Fore
SplineSet
145 1570 m 0,0,1
 96 1570 96 1570 67.5 1596 c 128,-1,2
 39 1622 39 1622 39 1668 c 0,3,4
 39 1702 39 1702 53.5 1729 c 128,-1,5
 68 1756 68 1756 97 1772 c 128,-1,6
 126 1788 126 1788 170 1788 c 0,7,8
 219 1788 219 1788 247 1763.5 c 128,-1,9
 275 1739 275 1739 275 1693 c 0,10,11
 275 1659 275 1659 260.5 1631 c 128,-1,12
 246 1603 246 1603 217.5 1586.5 c 128,-1,13
 189 1570 189 1570 145 1570 c 0,0,1
555 1570 m 0,14,15
 506 1570 506 1570 478 1596 c 128,-1,16
 450 1622 450 1622 450 1668 c 0,17,18
 450 1702 450 1702 464 1729 c 128,-1,19
 478 1756 478 1756 507 1772 c 128,-1,20
 536 1788 536 1788 580 1788 c 0,21,22
 629 1788 629 1788 657.5 1763.5 c 128,-1,23
 686 1739 686 1739 686 1693 c 0,24,25
 686 1659 686 1659 671.5 1631 c 128,-1,26
 657 1603 657 1603 628.5 1586.5 c 128,-1,27
 600 1570 600 1570 555 1570 c 0,14,15
EndSplineSet
EndChar

StartChar: hookabovecomb.case
Encoding: 65556 -1 459
Width: 0
GlyphClass: 1
Flags: W
LayerCount: 2
Fore
SplineSet
202 1753 m 1,0,-1
 246 1881 l 1,1,2
 372 1877 372 1877 439 1856.5 c 128,-1,3
 506 1836 506 1836 530.5 1804 c 128,-1,4
 555 1772 555 1772 555 1732 c 0,5,6
 555 1680 555 1680 531 1637.5 c 128,-1,7
 507 1595 507 1595 438.5 1563.5 c 128,-1,8
 370 1532 370 1532 238 1510 c 1,9,-1
 240 1572 l 1,10,11
 319 1588 319 1588 357.5 1605 c 128,-1,12
 396 1622 396 1622 408.5 1641 c 128,-1,13
 421 1660 421 1660 421 1682 c 256,14,15
 421 1704 421 1704 404.5 1719 c 128,-1,16
 388 1734 388 1734 341 1743 c 128,-1,17
 294 1752 294 1752 202 1753 c 1,0,-1
EndSplineSet
EndChar

StartChar: uni030A.case
Encoding: 65557 -1 460
Width: 0
GlyphClass: 1
Flags: W
LayerCount: 2
Fore
SplineSet
392 1863 m 0,0,1
 465 1863 465 1863 508 1822 c 128,-1,2
 551 1781 551 1781 551 1714 c 0,3,4
 551 1627 551 1627 493.5 1563.5 c 128,-1,5
 436 1500 436 1500 334 1500 c 0,6,7
 261 1500 261 1500 218 1540.5 c 128,-1,8
 175 1581 175 1581 175 1648 c 0,9,10
 175 1736 175 1736 232.5 1799.5 c 128,-1,11
 290 1863 290 1863 392 1863 c 0,0,1
342 1563 m 0,12,13
 411 1563 411 1563 446.5 1607.5 c 128,-1,14
 482 1652 482 1652 482 1706 c 0,15,16
 482 1751 482 1751 456.5 1776 c 128,-1,17
 431 1801 431 1801 384 1801 c 0,18,19
 315 1801 315 1801 279.5 1756.5 c 128,-1,20
 244 1712 244 1712 244 1655 c 0,21,22
 244 1612 244 1612 269.5 1587.5 c 128,-1,23
 295 1563 295 1563 342 1563 c 0,12,13
EndSplineSet
EndChar

StartChar: uni030B.case
Encoding: 65558 -1 461
Width: 0
GlyphClass: 1
Flags: W
LayerCount: 2
Fore
SplineSet
395 1527 m 1,0,-1
 667 1832 l 1,1,-1
 885 1832 l 1,2,-1
 876 1799 l 1,3,-1
 490 1527 l 1,4,-1
 395 1527 l 1,0,-1
129 1527 m 1,5,-1
 310 1832 l 1,6,-1
 508 1832 l 1,7,-1
 501 1802 l 1,8,-1
 212 1527 l 1,9,-1
 129 1527 l 1,5,-1
EndSplineSet
EndChar

StartChar: uni030C.case
Encoding: 65559 -1 462
Width: 0
GlyphClass: 1
Flags: W
LayerCount: 2
Fore
SplineSet
723 1832 m 1,0,-1
 395 1527 l 1,1,-1
 238 1527 l 1,2,-1
 96 1832 l 1,3,-1
 207 1832 l 1,4,-1
 358 1628 l 1,5,-1
 316 1628 l 1,6,-1
 591 1832 l 1,7,-1
 723 1832 l 1,0,-1
EndSplineSet
EndChar

StartChar: uni030F.case
Encoding: 65560 -1 463
Width: 0
GlyphClass: 1
Flags: W
LayerCount: 2
Fore
SplineSet
237 1527 m 1,0,-1
 146 1527 l 1,1,-1
 -77 1799 l 1,2,-1
 -70 1832 l 1,3,-1
 118 1832 l 1,4,-1
 237 1527 l 1,0,-1
505 1527 m 1,5,-1
 422 1527 l 1,6,-1
 298 1802 l 1,7,-1
 303 1832 l 1,8,-1
 481 1832 l 1,9,-1
 505 1527 l 1,5,-1
EndSplineSet
EndChar

StartChar: uni0311.case
Encoding: 65561 -1 464
Width: 0
GlyphClass: 1
Flags: W
LayerCount: 2
Fore
SplineSet
379 1708 m 0,0,1
 321 1708 321 1708 276 1691 c 128,-1,2
 231 1674 231 1674 194 1635 c 128,-1,3
 157 1596 157 1596 122 1527 c 1,4,-1
 26 1527 l 1,5,6
 83 1647 83 1647 138 1715 c 128,-1,7
 193 1783 193 1783 257 1810.5 c 128,-1,8
 321 1838 321 1838 404 1838 c 0,9,10
 492 1838 492 1838 541 1807 c 128,-1,11
 590 1776 590 1776 605.5 1707.5 c 128,-1,12
 621 1639 621 1639 606 1527 c 1,13,-1
 525 1527 l 1,14,15
 534 1629 534 1629 501 1668.5 c 128,-1,16
 468 1708 468 1708 379 1708 c 0,0,1
EndSplineSet
EndChar

StartChar: uni0312.case
Encoding: 65562 -1 465
Width: 0
GlyphClass: 1
Flags: W
LayerCount: 2
Fore
SplineSet
457 1615 m 0,0,1
 457 1579 457 1579 425 1546.5 c 128,-1,2
 393 1514 393 1514 335 1514 c 0,3,4
 290 1514 290 1514 263 1539 c 128,-1,5
 236 1564 236 1564 236 1615 c 0,6,7
 236 1662 236 1662 259.5 1710 c 128,-1,8
 283 1758 283 1758 347 1798.5 c 128,-1,9
 411 1839 411 1839 532 1859 c 1,10,-1
 525 1797 l 1,11,12
 461 1784 461 1784 426.5 1765.5 c 128,-1,13
 392 1747 392 1747 379 1727 c 128,-1,14
 366 1707 366 1707 366 1690 c 0,15,16
 366 1665 366 1665 389 1653 c 128,-1,17
 412 1641 412 1641 434.5 1633.5 c 128,-1,18
 457 1626 457 1626 457 1615 c 0,0,1
EndSplineSet
EndChar

StartChar: uni0302_acutecomb.case
Encoding: 65563 -1 466
Width: 0
GlyphClass: 1
Flags: W
LayerCount: 2
Fore
SplineSet
626 1712 m 1,0,-1
 819 1967 l 1,1,-1
 1045 1967 l 1,2,-1
 1037 1937 l 1,3,-1
 722 1712 l 1,4,-1
 626 1712 l 1,0,-1
3 1527 m 1,5,-1
 330 1832 l 1,6,-1
 487 1832 l 1,7,-1
 630 1527 l 1,8,-1
 518 1527 l 1,9,-1
 367 1731 l 1,10,-1
 409 1731 l 1,11,-1
 134 1527 l 1,12,-1
 3 1527 l 1,5,-1
EndSplineSet
EndChar

StartChar: uni0302_gravecomb.case
Encoding: 65564 -1 467
Width: 0
GlyphClass: 1
Flags: W
LayerCount: 2
Fore
SplineSet
111 1712 m 1,0,-1
 32 1712 l 1,1,-1
 -160 1937 l 1,2,-1
 -155 1967 l 1,3,-1
 41 1967 l 1,4,-1
 111 1712 l 1,0,-1
3 1527 m 1,5,-1
 330 1832 l 1,6,-1
 487 1832 l 1,7,-1
 630 1527 l 1,8,-1
 518 1527 l 1,9,-1
 367 1731 l 1,10,-1
 409 1731 l 1,11,-1
 134 1527 l 1,12,-1
 3 1527 l 1,5,-1
EndSplineSet
EndChar

StartChar: uni0302_hookabovecomb.case
Encoding: 65565 -1 468
Width: 0
GlyphClass: 1
Flags: W
LayerCount: 2
Fore
SplineSet
647 1771 m 1,0,1
 711 1786 711 1786 743.5 1803 c 128,-1,2
 776 1820 776 1820 787.5 1839 c 128,-1,3
 799 1858 799 1858 799 1880 c 0,4,5
 799 1900 799 1900 784.5 1915.5 c 128,-1,6
 770 1931 770 1931 726.5 1940.5 c 128,-1,7
 683 1950 683 1950 596 1952 c 1,8,-1
 637 2075 l 1,9,10
 756 2071 756 2071 820.5 2051 c 128,-1,11
 885 2031 885 2031 909.5 1999.5 c 128,-1,12
 934 1968 934 1968 934 1928 c 0,13,14
 934 1878 934 1878 909.5 1835.5 c 128,-1,15
 885 1793 885 1793 822 1760.5 c 128,-1,16
 759 1728 759 1728 645 1707 c 1,17,-1
 647 1771 l 1,0,1
3 1527 m 1,18,-1
 330 1832 l 1,19,-1
 487 1832 l 1,20,-1
 630 1527 l 1,21,-1
 518 1527 l 1,22,-1
 367 1731 l 1,23,-1
 409 1731 l 1,24,-1
 134 1527 l 1,25,-1
 3 1527 l 1,18,-1
EndSplineSet
EndChar

StartChar: uni0302_tildecomb.case
Encoding: 65566 -1 469
Width: 0
GlyphClass: 1
Flags: W
LayerCount: 2
Fore
SplineSet
386 1642 m 1,0,-1
 136 1489 l 1,1,-1
 14 1489 l 1,2,-1
 285 1718 l 1,3,-1
 464 1718 l 1,4,-1
 594 1489 l 1,5,-1
 495 1489 l 1,6,-1
 337 1642 l 1,7,-1
 386 1642 l 1,0,-1
717 1965 m 1,8,9
 680 1885 680 1885 649 1841 c 128,-1,10
 618 1797 618 1797 585 1779.5 c 128,-1,11
 552 1762 552 1762 508 1762 c 0,12,13
 476 1762 476 1762 448 1777 c 128,-1,14
 420 1792 420 1792 394.5 1811.5 c 128,-1,15
 369 1831 369 1831 345 1846 c 128,-1,16
 321 1861 321 1861 298 1861 c 0,17,18
 268 1861 268 1861 246.5 1843 c 128,-1,19
 225 1825 225 1825 195 1765 c 1,20,-1
 109 1765 l 1,21,22
 148 1844 148 1844 178.5 1888 c 128,-1,23
 209 1932 209 1932 241.5 1949.5 c 128,-1,24
 274 1967 274 1967 318 1967 c 0,25,26
 350 1967 350 1967 378 1952.5 c 128,-1,27
 406 1938 406 1938 431.5 1918 c 128,-1,28
 457 1898 457 1898 481 1883.5 c 128,-1,29
 505 1869 505 1869 528 1869 c 0,30,31
 558 1869 558 1869 579.5 1887 c 128,-1,32
 601 1905 601 1905 631 1965 c 1,33,-1
 717 1965 l 1,8,9
EndSplineSet
EndChar

StartChar: uni0306_acutecomb.case
Encoding: 65567 -1 470
Width: 0
GlyphClass: 1
Flags: W
LayerCount: 2
Fore
SplineSet
313 1694 m 1,0,-1
 516 1965 l 1,1,-1
 705 1965 l 1,2,-1
 699 1941 l 1,3,-1
 390 1694 l 1,4,-1
 313 1694 l 1,0,-1
325 1592 m 0,5,6
 414 1592 414 1592 466.5 1622 c 128,-1,7
 519 1652 519 1652 557 1718 c 1,8,-1
 647 1718 l 1,9,10
 600 1625 600 1625 552.5 1574 c 128,-1,11
 505 1523 505 1523 447 1503 c 128,-1,12
 389 1483 389 1483 311 1483 c 0,13,14
 231 1483 231 1483 181.5 1503 c 128,-1,15
 132 1523 132 1523 112.5 1574 c 128,-1,16
 93 1625 93 1625 102 1718 c 1,17,-1
 178 1718 l 1,18,19
 176 1651 176 1651 207 1621.5 c 128,-1,20
 238 1592 238 1592 325 1592 c 0,5,6
EndSplineSet
EndChar

StartChar: uni0306_gravecomb.case
Encoding: 65568 -1 471
Width: 0
GlyphClass: 1
Flags: W
LayerCount: 2
Fore
SplineSet
390 1694 m 1,0,-1
 324 1694 l 1,1,-1
 157 1941 l 1,2,-1
 160 1965 l 1,3,-1
 329 1965 l 1,4,-1
 390 1694 l 1,0,-1
325 1592 m 0,5,6
 414 1592 414 1592 466.5 1622 c 128,-1,7
 519 1652 519 1652 557 1718 c 1,8,-1
 647 1718 l 1,9,10
 600 1625 600 1625 552.5 1574 c 128,-1,11
 505 1523 505 1523 447 1503 c 128,-1,12
 389 1483 389 1483 311 1483 c 0,13,14
 231 1483 231 1483 181.5 1503 c 128,-1,15
 132 1523 132 1523 112.5 1574 c 128,-1,16
 93 1625 93 1625 102 1718 c 1,17,-1
 178 1718 l 1,18,19
 176 1651 176 1651 207 1621.5 c 128,-1,20
 238 1592 238 1592 325 1592 c 0,5,6
EndSplineSet
EndChar

StartChar: uni0306_hookabovecomb.case
Encoding: 65569 -1 472
Width: 0
GlyphClass: 1
Flags: W
LayerCount: 2
Fore
SplineSet
325 1592 m 0,0,1
 414 1592 414 1592 466.5 1622 c 128,-1,2
 519 1652 519 1652 557 1718 c 1,3,-1
 647 1718 l 1,4,5
 600 1625 600 1625 552.5 1574 c 128,-1,6
 505 1523 505 1523 447 1503 c 128,-1,7
 389 1483 389 1483 311 1483 c 0,8,9
 231 1483 231 1483 181.5 1503 c 128,-1,10
 132 1523 132 1523 112.5 1574 c 128,-1,11
 93 1625 93 1625 102 1718 c 1,12,-1
 178 1718 l 1,13,14
 176 1651 176 1651 207 1621.5 c 128,-1,15
 238 1592 238 1592 325 1592 c 0,0,1
328 1688 m 1,16,-1
 330 1749 l 1,17,18
 424 1767 424 1767 452.5 1790.5 c 128,-1,19
 481 1814 481 1814 481 1843 c 0,20,21
 481 1867 481 1867 447 1881.5 c 128,-1,22
 413 1896 413 1896 304 1900 c 1,23,-1
 337 2012 l 1,24,25
 435 2008 435 2008 489 1990 c 128,-1,26
 543 1972 543 1972 564.5 1944.5 c 128,-1,27
 586 1917 586 1917 586 1881 c 0,28,29
 586 1809 586 1809 529 1760 c 128,-1,30
 472 1711 472 1711 328 1688 c 1,16,-1
EndSplineSet
EndChar

StartChar: uni0306_tildecomb.case
Encoding: 65570 -1 473
Width: 0
GlyphClass: 1
Flags: W
LayerCount: 2
Fore
SplineSet
325 1592 m 0,0,1
 414 1592 414 1592 466.5 1622 c 128,-1,2
 519 1652 519 1652 557 1718 c 1,3,-1
 647 1718 l 1,4,5
 600 1625 600 1625 552.5 1574 c 128,-1,6
 505 1523 505 1523 447 1503 c 128,-1,7
 389 1483 389 1483 311 1483 c 0,8,9
 231 1483 231 1483 181.5 1503 c 128,-1,10
 132 1523 132 1523 112.5 1574 c 128,-1,11
 93 1625 93 1625 102 1718 c 1,12,-1
 178 1718 l 1,13,14
 176 1651 176 1651 207 1621.5 c 128,-1,15
 238 1592 238 1592 325 1592 c 0,0,1
717 1965 m 1,16,17
 680 1885 680 1885 649 1841 c 128,-1,18
 618 1797 618 1797 585 1779.5 c 128,-1,19
 552 1762 552 1762 508 1762 c 0,20,21
 476 1762 476 1762 448 1777 c 128,-1,22
 420 1792 420 1792 394.5 1811.5 c 128,-1,23
 369 1831 369 1831 345 1846 c 128,-1,24
 321 1861 321 1861 298 1861 c 0,25,26
 268 1861 268 1861 246.5 1843 c 128,-1,27
 225 1825 225 1825 195 1765 c 1,28,-1
 109 1765 l 1,29,30
 148 1844 148 1844 178.5 1888 c 128,-1,31
 209 1932 209 1932 241.5 1949.5 c 128,-1,32
 274 1967 274 1967 318 1967 c 0,33,34
 350 1967 350 1967 378 1952.5 c 128,-1,35
 406 1938 406 1938 431.5 1918 c 128,-1,36
 457 1898 457 1898 481 1883.5 c 128,-1,37
 505 1869 505 1869 528 1869 c 0,38,39
 558 1869 558 1869 579.5 1887 c 128,-1,40
 601 1905 601 1905 631 1965 c 1,41,-1
 717 1965 l 1,16,17
EndSplineSet
EndChar

StartChar: comma
Encoding: 44 44 474
Width: 513
GlyphClass: 1
Flags: W
LayerCount: 2
Fore
SplineSet
-151 -275 m 1,0,1
 -53 -213 -53 -213 1 -168 c 128,-1,2
 55 -123 55 -123 76 -88 c 128,-1,3
 97 -53 97 -53 97 -20 c 0,4,5
 97 6 97 6 85.5 24.5 c 128,-1,6
 74 43 74 43 58.5 58 c 128,-1,7
 43 73 43 73 31.5 85 c 128,-1,8
 20 97 20 97 20 110 c 0,9,10
 20 144 20 144 39.5 175.5 c 128,-1,11
 59 207 59 207 95 227 c 128,-1,12
 131 247 131 247 180 247 c 0,13,14
 234 247 234 247 267.5 218 c 128,-1,15
 301 189 301 189 301 130 c 0,16,17
 301 76 301 76 283.5 22.5 c 128,-1,18
 266 -31 266 -31 221.5 -88 c 128,-1,19
 177 -145 177 -145 98 -209.5 c 128,-1,20
 19 -274 19 -274 -105 -352 c 1,21,-1
 -151 -275 l 1,0,1
EndSplineSet
EndChar

StartChar: semicolon
Encoding: 59 59 475
Width: 589
GlyphClass: 1
Flags: W
LayerCount: 2
Fore
SplineSet
-134 -275 m 1,0,1
 -36 -213 -36 -213 18 -168 c 128,-1,2
 72 -123 72 -123 93 -88 c 128,-1,3
 114 -53 114 -53 114 -20 c 0,4,5
 114 6 114 6 102.5 24.5 c 128,-1,6
 91 43 91 43 75.5 58 c 128,-1,7
 60 73 60 73 48.5 85 c 128,-1,8
 37 97 37 97 37 110 c 0,9,10
 37 144 37 144 56.5 175.5 c 128,-1,11
 76 207 76 207 112 227 c 128,-1,12
 148 247 148 247 197 247 c 0,13,14
 251 247 251 247 284.5 218 c 128,-1,15
 318 189 318 189 318 130 c 0,16,17
 318 76 318 76 300.5 22.5 c 128,-1,18
 283 -31 283 -31 238.5 -88 c 128,-1,19
 194 -145 194 -145 115 -209.5 c 128,-1,20
 36 -274 36 -274 -88 -352 c 1,21,-1
 -134 -275 l 1,0,1
442 999 m 0,22,23
 495 999 495 999 523.5 972.5 c 128,-1,24
 552 946 552 946 552 899 c 0,25,26
 552 854 552 854 532 815.5 c 128,-1,27
 512 777 512 777 473.5 753.5 c 128,-1,28
 435 730 435 730 379 730 c 0,29,30
 326 730 326 730 297.5 756.5 c 128,-1,31
 269 783 269 783 269 829 c 256,32,33
 269 875 269 875 289 913.5 c 128,-1,34
 309 952 309 952 348 975.5 c 128,-1,35
 387 999 387 999 442 999 c 0,22,23
EndSplineSet
EndChar

StartChar: colon
Encoding: 58 58 476
Width: 572
GlyphClass: 1
Flags: W
LayerCount: 2
Fore
SplineSet
205 252 m 0,0,1
 257 252 257 252 286 225.5 c 128,-1,2
 315 199 315 199 315 152 c 0,3,4
 315 107 315 107 294.5 68.5 c 128,-1,5
 274 30 274 30 235.5 6.5 c 128,-1,6
 197 -17 197 -17 141 -17 c 0,7,8
 89 -17 89 -17 60 9.5 c 128,-1,9
 31 36 31 36 31 82 c 256,10,11
 31 128 31 128 51.5 166.5 c 128,-1,12
 72 205 72 205 111 228.5 c 128,-1,13
 150 252 150 252 205 252 c 0,0,1
428 999 m 0,14,15
 481 999 481 999 509.5 972.5 c 128,-1,16
 538 946 538 946 538 899 c 0,17,18
 538 854 538 854 518 815.5 c 128,-1,19
 498 777 498 777 459.5 753.5 c 128,-1,20
 421 730 421 730 365 730 c 0,21,22
 312 730 312 730 283.5 756.5 c 128,-1,23
 255 783 255 783 255 829 c 256,24,25
 255 875 255 875 275 913.5 c 128,-1,26
 295 952 295 952 334 975.5 c 128,-1,27
 373 999 373 999 428 999 c 0,14,15
EndSplineSet
EndChar

StartChar: period
Encoding: 46 46 478
Width: 497
GlyphClass: 1
Flags: W
LayerCount: 2
Fore
SplineSet
186 252 m 0,0,1
 239 252 239 252 267.5 225.5 c 128,-1,2
 296 199 296 199 296 152 c 0,3,4
 296 107 296 107 276 68.5 c 128,-1,5
 256 30 256 30 217.5 6.5 c 128,-1,6
 179 -17 179 -17 123 -17 c 0,7,8
 70 -17 70 -17 41.5 9.5 c 128,-1,9
 13 36 13 36 13 82 c 256,10,11
 13 128 13 128 33 166.5 c 128,-1,12
 53 205 53 205 92 228.5 c 128,-1,13
 131 252 131 252 186 252 c 0,0,1
EndSplineSet
EndChar

StartChar: hyphen
Encoding: 45 45 479
Width: 757
GlyphClass: 1
Flags: W
LayerCount: 2
Fore
SplineSet
168 574 m 1,0,-1
 636 574 l 1,1,-1
 592 427 l 1,2,-1
 125 427 l 1,3,-1
 168 574 l 1,0,-1
EndSplineSet
Substitution2: "'case' Case-Sensitive Forms in Latin lookup 9 subtable" hyphen.case
EndChar

StartChar: exclam
Encoding: 33 33 483
Width: 607
GlyphClass: 1
Flags: W
LayerCount: 2
Fore
SplineSet
672 1369 m 2,0,-1
 642 1274 l 2,1,2
 637 1259 637 1259 616 1202.5 c 128,-1,3
 595 1146 595 1146 565 1063.5 c 128,-1,4
 535 981 535 981 500 887.5 c 128,-1,5
 465 794 465 794 432 704 c 128,-1,6
 399 614 399 614 372 541 c 128,-1,7
 345 468 345 468 330 429 c 1,8,-1
 232 429 l 1,9,10
 241 468 241 468 258.5 541 c 128,-1,11
 276 614 276 614 298 704 c 128,-1,12
 320 794 320 794 342.5 887.5 c 128,-1,13
 365 981 365 981 385 1063.5 c 128,-1,14
 405 1146 405 1146 419 1202.5 c 128,-1,15
 433 1259 433 1259 437 1274 c 2,16,-1
 464 1370 l 2,17,18
 469 1385 469 1385 480.5 1394.5 c 128,-1,19
 492 1404 492 1404 515.5 1408.5 c 128,-1,20
 539 1413 539 1413 579 1413 c 0,21,22
 620 1413 620 1413 642 1408.5 c 128,-1,23
 664 1404 664 1404 670.5 1394.5 c 128,-1,24
 677 1385 677 1385 672 1369 c 2,0,-1
221 252 m 0,25,26
 273 252 273 252 302 225.5 c 128,-1,27
 331 199 331 199 331 152 c 0,28,29
 331 107 331 107 310.5 68.5 c 128,-1,30
 290 30 290 30 251.5 6.5 c 128,-1,31
 213 -17 213 -17 157 -17 c 0,32,33
 105 -17 105 -17 76 9.5 c 128,-1,34
 47 36 47 36 47 82 c 256,35,36
 47 128 47 128 67.5 166.5 c 128,-1,37
 88 205 88 205 127 228.5 c 128,-1,38
 166 252 166 252 221 252 c 0,25,26
EndSplineSet
EndChar

StartChar: exclamdown
Encoding: 161 161 484
Width: 575
GlyphClass: 1
Flags: W
LayerCount: 2
Fore
SplineSet
-84 -390 m 2,0,-1
 -53 -295 l 2,1,2
 -48 -279 -48 -279 -27.5 -222.5 c 128,-1,3
 -7 -166 -7 -166 23.5 -84 c 128,-1,4
 54 -2 54 -2 88.5 91.5 c 128,-1,5
 123 185 123 185 156.5 275.5 c 128,-1,6
 190 366 190 366 217.5 438.5 c 128,-1,7
 245 511 245 511 259 550 c 1,8,-1
 357 550 l 1,9,10
 348 511 348 511 330.5 438.5 c 128,-1,11
 313 366 313 366 291 275.5 c 128,-1,12
 269 185 269 185 246.5 91.5 c 128,-1,13
 224 -2 224 -2 204 -84 c 128,-1,14
 184 -166 184 -166 170.5 -222.5 c 128,-1,15
 157 -279 157 -279 152 -295 c 2,16,-1
 124 -390 l 2,17,18
 120 -405 120 -405 108.5 -414.5 c 128,-1,19
 97 -424 97 -424 73.5 -429 c 128,-1,20
 50 -434 50 -434 10 -434 c 0,21,22
 -31 -434 -31 -434 -53.5 -429 c 128,-1,23
 -76 -424 -76 -424 -82.5 -414.5 c 128,-1,24
 -89 -405 -89 -405 -84 -390 c 2,0,-1
368 728 m 0,25,26
 316 728 316 728 287 754 c 128,-1,27
 258 780 258 780 258 828 c 0,28,29
 258 873 258 873 278.5 911 c 128,-1,30
 299 949 299 949 338 972.5 c 128,-1,31
 377 996 377 996 432 996 c 0,32,33
 484 996 484 996 513 970 c 128,-1,34
 542 944 542 944 542 897 c 0,35,36
 542 852 542 852 521.5 813.5 c 128,-1,37
 501 775 501 775 462.5 751.5 c 128,-1,38
 424 728 424 728 368 728 c 0,25,26
EndSplineSet
Substitution2: "'case' Case-Sensitive Forms in Latin lookup 9 subtable" exclamdown.case
EndChar

StartChar: question
Encoding: 63 63 486
Width: 1065
GlyphClass: 1
Flags: W
LayerCount: 2
Fore
SplineSet
419 252 m 0,0,1
 472 252 472 252 500.5 225.5 c 128,-1,2
 529 199 529 199 529 152 c 0,3,4
 529 107 529 107 509 68.5 c 128,-1,5
 489 30 489 30 450.5 6.5 c 128,-1,6
 412 -17 412 -17 356 -17 c 0,7,8
 303 -17 303 -17 274.5 9.5 c 128,-1,9
 246 36 246 36 246 82 c 256,10,11
 246 128 246 128 266 166.5 c 128,-1,12
 286 205 286 205 325 228.5 c 128,-1,13
 364 252 364 252 419 252 c 0,0,1
624 1416 m 0,14,15
 718 1416 718 1416 801 1387 c 128,-1,16
 884 1358 884 1358 948 1305 c 128,-1,17
 1012 1252 1012 1252 1048.5 1178 c 128,-1,18
 1085 1104 1085 1104 1085 1013 c 0,19,20
 1085 889 1085 889 1031.5 801 c 128,-1,21
 978 713 978 713 855.5 670 c 128,-1,22
 733 627 733 627 527 637 c 1,23,-1
 618 730 l 1,24,-1
 508 425 l 1,25,-1
 412 425 l 1,26,-1
 482 791 l 1,27,28
 658 779 658 779 757 803 c 128,-1,29
 856 827 856 827 896.5 886 c 128,-1,30
 937 945 937 945 937 1039 c 0,31,32
 937 1111 937 1111 906.5 1171.5 c 128,-1,33
 876 1232 876 1232 817 1268.5 c 128,-1,34
 758 1305 758 1305 670 1305 c 0,35,36
 601 1305 601 1305 555 1287 c 128,-1,37
 509 1269 509 1269 479 1245 c 128,-1,38
 449 1221 449 1221 428.5 1202.5 c 128,-1,39
 408 1184 408 1184 390 1184 c 0,40,41
 349 1184 349 1184 323.5 1207 c 128,-1,42
 298 1230 298 1230 298 1267 c 0,43,44
 298 1307 298 1307 327.5 1341 c 128,-1,45
 357 1375 357 1375 428 1395.5 c 128,-1,46
 499 1416 499 1416 624 1416 c 0,14,15
EndSplineSet
EndChar

StartChar: questiondown
Encoding: 191 191 487
Width: 1050
GlyphClass: 1
Flags: W
LayerCount: 2
Fore
SplineSet
638 729 m 0,0,1
 585 729 585 729 556.5 755.5 c 128,-1,2
 528 782 528 782 528 829 c 0,3,4
 528 875 528 875 548 913 c 128,-1,5
 568 951 568 951 607 974.5 c 128,-1,6
 646 998 646 998 701 998 c 0,7,8
 754 998 754 998 782.5 971.5 c 128,-1,9
 811 945 811 945 811 899 c 0,10,11
 811 854 811 854 791 815 c 128,-1,12
 771 776 771 776 732.5 752.5 c 128,-1,13
 694 729 694 729 638 729 c 0,0,1
433 -434 m 0,14,15
 339 -434 339 -434 256 -405.5 c 128,-1,16
 173 -377 173 -377 109 -324 c 128,-1,17
 45 -271 45 -271 8.5 -196.5 c 128,-1,18
 -28 -122 -28 -122 -28 -32 c 0,19,20
 -28 93 -28 93 25.5 180.5 c 128,-1,21
 79 268 79 268 201.5 311.5 c 128,-1,22
 324 355 324 355 530 345 c 1,23,-1
 439 251 l 1,24,-1
 549 556 l 1,25,-1
 645 556 l 1,26,-1
 575 190 l 1,27,28
 399 202 399 202 300 178.5 c 128,-1,29
 201 155 201 155 160.5 96 c 128,-1,30
 120 37 120 37 120 -58 c 0,31,32
 120 -129 120 -129 150.5 -190 c 128,-1,33
 181 -251 181 -251 240 -287.5 c 128,-1,34
 299 -324 299 -324 387 -324 c 0,35,36
 456 -324 456 -324 502 -305.5 c 128,-1,37
 548 -287 548 -287 578 -263 c 128,-1,38
 608 -239 608 -239 628.5 -221 c 128,-1,39
 649 -203 649 -203 667 -203 c 0,40,41
 708 -203 708 -203 733.5 -226 c 128,-1,42
 759 -249 759 -249 759 -285 c 0,43,44
 759 -325 759 -325 729.5 -359 c 128,-1,45
 700 -393 700 -393 629.5 -413.5 c 128,-1,46
 559 -434 559 -434 433 -434 c 0,14,15
EndSplineSet
Substitution2: "'case' Case-Sensitive Forms in Latin lookup 9 subtable" questiondown.case
EndChar

StartChar: quoteleft
Encoding: 8216 8216 489
Width: 517
GlyphClass: 1
Flags: W
LayerCount: 2
Fore
SplineSet
675 1340 m 1,0,1
 592 1304 592 1304 542 1273 c 128,-1,2
 492 1242 492 1242 469.5 1211 c 128,-1,3
 447 1180 447 1180 447 1145 c 0,4,5
 447 1119 447 1119 461 1101 c 128,-1,6
 475 1083 475 1083 493.5 1069 c 128,-1,7
 512 1055 512 1055 526 1043.5 c 128,-1,8
 540 1032 540 1032 540 1020 c 0,9,10
 540 989 540 989 521.5 958 c 128,-1,11
 503 927 503 927 468 906.5 c 128,-1,12
 433 886 433 886 383 886 c 0,13,14
 334 886 334 886 300 915.5 c 128,-1,15
 266 945 266 945 266 1011 c 0,16,17
 266 1089 266 1089 302 1158 c 128,-1,18
 338 1227 338 1227 421.5 1290 c 128,-1,19
 505 1353 505 1353 647 1412 c 1,20,-1
 675 1340 l 1,0,1
EndSplineSet
EndChar

StartChar: quoteright
Encoding: 8217 8217 490
Width: 517
GlyphClass: 1
Flags: W
LayerCount: 2
Fore
SplineSet
240 955 m 1,0,1
 323 991 323 991 373 1022 c 128,-1,2
 423 1053 423 1053 445 1083.5 c 128,-1,3
 467 1114 467 1114 467 1150 c 0,4,5
 467 1175 467 1175 453.5 1193 c 128,-1,6
 440 1211 440 1211 421 1225 c 128,-1,7
 402 1239 402 1239 388.5 1250.5 c 128,-1,8
 375 1262 375 1262 375 1274 c 0,9,10
 375 1305 375 1305 393.5 1336 c 128,-1,11
 412 1367 412 1367 447 1388 c 128,-1,12
 482 1409 482 1409 532 1409 c 0,13,14
 581 1409 581 1409 615 1379 c 128,-1,15
 649 1349 649 1349 649 1283 c 0,16,17
 649 1206 649 1206 613 1136.5 c 128,-1,18
 577 1067 577 1067 493.5 1004 c 128,-1,19
 410 941 410 941 268 883 c 1,20,-1
 240 955 l 1,0,1
EndSplineSet
EndChar

StartChar: quotesinglbase
Encoding: 8218 8218 491
Width: 508
GlyphClass: 1
Flags: W
LayerCount: 2
Fore
SplineSet
-115 -207 m 1,0,1
 -31 -171 -31 -171 18.5 -140 c 128,-1,2
 68 -109 68 -109 90.5 -78 c 128,-1,3
 113 -47 113 -47 113 -12 c 0,4,5
 113 14 113 14 99 32 c 128,-1,6
 85 50 85 50 66.5 64 c 128,-1,7
 48 78 48 78 34 89 c 128,-1,8
 20 100 20 100 20 113 c 0,9,10
 20 144 20 144 38.5 175 c 128,-1,11
 57 206 57 206 92 226.5 c 128,-1,12
 127 247 127 247 177 247 c 256,13,14
 227 247 227 247 260.5 217 c 128,-1,15
 294 187 294 187 294 121 c 0,16,17
 294 44 294 44 258 -25.5 c 128,-1,18
 222 -95 222 -95 138.5 -157.5 c 128,-1,19
 55 -220 55 -220 -87 -279 c 1,20,-1
 -115 -207 l 1,0,1
EndSplineSet
EndChar

StartChar: quotesingle
Encoding: 39 39 495
Width: 424
GlyphClass: 1
Flags: W
LayerCount: 2
Fore
SplineSet
285 918 m 1,0,-1
 368 1357 l 1,1,-1
 380 1396 l 1,2,-1
 581 1396 l 1,3,-1
 569 1357 l 1,4,-1
 382 918 l 1,5,-1
 285 918 l 1,0,-1
EndSplineSet
EndChar

StartChar: guilsinglleft
Encoding: 8249 8249 497
Width: 664
GlyphClass: 1
Flags: W
LayerCount: 2
Fore
SplineSet
264 527 m 1,0,-1
 446 103 l 1,1,-1
 354 54 l 1,2,-1
 74 441 l 1,3,-1
 110 558 l 1,4,-1
 615 945 l 1,5,-1
 679 860 l 1,6,-1
 235 429 l 1,7,-1
 264 527 l 1,0,-1
EndSplineSet
Substitution2: "'case' Case-Sensitive Forms in Latin lookup 9 subtable" guilsinglleft.case
EndChar

StartChar: guilsinglright
Encoding: 8250 8250 498
Width: 695
GlyphClass: 1
Flags: W
LayerCount: 2
Fore
SplineSet
413 472 m 1,0,-1
 231 896 l 1,1,-1
 324 945 l 1,2,-1
 603 558 l 1,3,-1
 568 441 l 1,4,-1
 63 54 l 1,5,-1
 -1 138 l 1,6,-1
 443 570 l 1,7,-1
 413 472 l 1,0,-1
EndSplineSet
Substitution2: "'case' Case-Sensitive Forms in Latin lookup 9 subtable" guilsinglright.case
EndChar

StartChar: guillemotleft
Encoding: 171 171 501
Width: 1089
GlyphClass: 1
Flags: W
LayerCount: 2
Fore
SplineSet
264 527 m 1,0,-1
 446 103 l 1,1,-1
 354 54 l 1,2,-1
 74 441 l 1,3,-1
 110 558 l 1,4,-1
 615 945 l 1,5,-1
 679 860 l 1,6,-1
 235 429 l 1,7,-1
 264 527 l 1,0,-1
689 527 m 1,8,-1
 871 103 l 1,9,-1
 779 54 l 1,10,-1
 499 441 l 1,11,-1
 535 558 l 1,12,-1
 1040 945 l 1,13,-1
 1104 860 l 1,14,-1
 660 429 l 1,15,-1
 689 527 l 1,8,-1
EndSplineSet
Substitution2: "'case' Case-Sensitive Forms in Latin lookup 9 subtable" guillemotleft.case
EndChar

StartChar: guillemotright
Encoding: 187 187 502
Width: 1120
GlyphClass: 1
Flags: W
LayerCount: 2
Fore
SplineSet
413 472 m 1,0,-1
 231 896 l 1,1,-1
 324 945 l 1,2,-1
 603 558 l 1,3,-1
 568 441 l 1,4,-1
 63 54 l 1,5,-1
 -1 138 l 1,6,-1
 443 570 l 1,7,-1
 413 472 l 1,0,-1
838 472 m 1,8,-1
 656 896 l 1,9,-1
 749 945 l 1,10,-1
 1028 558 l 1,11,-1
 993 441 l 1,12,-1
 488 54 l 1,13,-1
 424 138 l 1,14,-1
 868 570 l 1,15,-1
 838 472 l 1,8,-1
EndSplineSet
Substitution2: "'case' Case-Sensitive Forms in Latin lookup 9 subtable" guillemotright.case
EndChar

StartChar: slash
Encoding: 47 47 505
Width: 840
GlyphClass: 1
Flags: W
LayerCount: 2
Fore
SplineSet
-73 0 m 1,0,-1
 899 1396 l 1,1,-1
 1038 1396 l 1,2,-1
 67 0 l 1,3,-1
 -73 0 l 1,0,-1
EndSplineSet
EndChar

StartChar: backslash
Encoding: 92 92 506
Width: 801
GlyphClass: 1
Flags: W
LayerCount: 2
Fore
SplineSet
589 0 m 1,0,-1
 472 0 l 1,1,-1
 335 1396 l 1,2,-1
 452 1396 l 1,3,-1
 589 0 l 1,0,-1
EndSplineSet
EndChar

StartChar: bar
Encoding: 124 124 507
Width: 555
GlyphClass: 1
Flags: W
LayerCount: 2
Fore
SplineSet
-74 -481 m 1,0,-1
 519 1519 l 1,1,-1
 644 1519 l 1,2,-1
 51 -481 l 1,3,-1
 -74 -481 l 1,0,-1
EndSplineSet
EndChar

StartChar: brokenbar
Encoding: 166 166 508
Width: 555
GlyphClass: 1
Flags: W
LayerCount: 2
Fore
SplineSet
413 736 m 1,0,-1
 287 736 l 1,1,-1
 519 1519 l 1,2,-1
 645 1519 l 1,3,-1
 413 736 l 1,0,-1
-74 -481 m 1,4,-1
 158 302 l 1,5,-1
 284 302 l 1,6,-1
 51 -481 l 1,7,-1
 -74 -481 l 1,4,-1
EndSplineSet
EndChar

StartChar: endash
Encoding: 8211 8211 509
Width: 1031
GlyphClass: 1
Flags: W
LayerCount: 2
Fore
SplineSet
143 555 m 1,0,-1
 926 555 l 1,1,-1
 893 447 l 1,2,-1
 109 447 l 1,3,-1
 143 555 l 1,0,-1
EndSplineSet
Substitution2: "'case' Case-Sensitive Forms in Latin lookup 9 subtable" endash.case
EndChar

StartChar: emdash
Encoding: 8212 8212 512
Width: 1344
GlyphClass: 1
Flags: W
LayerCount: 2
Fore
SplineSet
143 555 m 1,0,-1
 1239 555 l 1,1,-1
 1206 447 l 1,2,-1
 109 447 l 1,3,-1
 143 555 l 1,0,-1
EndSplineSet
Substitution2: "'case' Case-Sensitive Forms in Latin lookup 9 subtable" emdash.case
EndChar

